  0
SECTION
  2
HEADER
  9
$ACADVER
  1
AC1009
  9
$EXTMIN
 10
0.0
 20
0.0
 30
0.0
  9
$EXTMAX
 10
1000.0
 20
1000.0
 30
0.0
  9
$FILLMODE
 70
 0
  9
$SPLFRAME
 70
 1
  0
ENDSEC
  0
SECTION
  2
TABLES
  0
TABLE
  2
LAYER
 70
1
  0
LAYER
  2
0
 70
     0
 62
     7
  6
CONTINUOUS
  0
ENDTAB
  0
ENDSEC
  0
SECTION
  2
ENTITIES
  0
LINE
  8
0
 62
     0
 10
0.0950846
 20
133.96
 30
0.0
 11
367.284
 21
133.96
 31
0.0
  0
LINE
  8
0
 62
     0
 10
367.284
 20
133.96
 30
0.0
 11
367.284
 21
0.135048
 31
0.0
  0
LINE
  8
0
 62
     0
 10
367.284
 20
0.135048
 30
0.0
 11
0.0950846
 21
0.135048
 31
0.0
  0
LINE
  8
0
 62
     0
 10
0.0950846
 20
0.135048
 30
0.0
 11
0.0950846
 21
133.96
 31
0.0
  0
LINE
  8
0
 62
     0
 10
129.063
 20
21.6614
 30
0.0
 11
129.063
 21
20.6609
 31
0.0
  0
LINE
  8
0
 62
     0
 10
129.063
 20
20.6609
 30
0.0
 11
128.262
 21
20.6609
 31
0.0
  0
LINE
  8
0
 62
     0
 10
128.262
 20
20.6609
 30
0.0
 11
128.262
 21
17.5617
 31
0.0
  0
LINE
  8
0
 62
     0
 10
128.262
 20
17.5617
 30
0.0
 11
129.063
 21
17.5617
 31
0.0
  0
LINE
  8
0
 62
     0
 10
129.063
 20
17.5617
 30
0.0
 11
129.063
 21
16.9609
 31
0.0
  0
LINE
  8
0
 62
     0
 10
129.063
 20
16.9609
 30
0.0
 11
89.4373
 21
16.9609
 31
0.0
  0
LINE
  8
0
 62
     0
 10
89.4373
 20
16.9609
 30
0.0
 11
89.4373
 21
20.191
 31
0.0
  0
LINE
  8
0
 62
     0
 10
89.4373
 20
20.191
 30
0.0
 11
87.7122
 21
20.191
 31
0.0
  0
LINE
  8
0
 62
     0
 10
87.7122
 20
20.191
 30
0.0
 11
87.7122
 21
21.1116
 31
0.0
  0
LINE
  8
0
 62
     0
 10
87.7122
 20
21.1116
 30
0.0
 11
84.413
 21
21.1116
 31
0.0
  0
LINE
  8
0
 62
     0
 10
84.413
 20
21.1116
 30
0.0
 11
84.413
 21
20.191
 31
0.0
  0
LINE
  8
0
 62
     0
 10
84.413
 20
20.191
 30
0.0
 11
82.6879
 21
20.191
 31
0.0
  0
LINE
  8
0
 62
     0
 10
82.6879
 20
20.191
 30
0.0
 11
82.6879
 21
16.9609
 31
0.0
  0
LINE
  8
0
 62
     0
 10
82.6879
 20
16.9609
 30
0.0
 11
81.8624
 21
16.9609
 31
0.0
  0
LINE
  8
0
 62
     0
 10
81.8624
 20
16.9609
 30
0.0
 11
81.8624
 21
14.1607
 31
0.0
  0
LINE
  8
0
 62
     0
 10
81.8624
 20
14.1607
 30
0.0
 11
82.6879
 21
14.1607
 31
0.0
  0
LINE
  8
0
 62
     0
 10
82.6879
 20
14.1607
 30
0.0
 11
82.6879
 21
7.89065
 31
0.0
  0
LINE
  8
0
 62
     0
 10
82.6879
 20
7.89065
 30
0.0
 11
84.413
 21
7.89065
 31
0.0
  0
LINE
  8
0
 62
     0
 10
84.413
 20
7.89065
 30
0.0
 11
84.413
 21
6.91085
 31
0.0
  0
LINE
  8
0
 62
     0
 10
84.413
 20
6.91085
 30
0.0
 11
87.7122
 21
6.91085
 31
0.0
  0
LINE
  8
0
 62
     0
 10
87.7122
 20
6.91085
 30
0.0
 11
87.7122
 21
7.89065
 31
0.0
  0
LINE
  8
0
 62
     0
 10
87.7122
 20
7.89065
 30
0.0
 11
89.4373
 21
7.89065
 31
0.0
  0
LINE
  8
0
 62
     0
 10
89.4373
 20
7.89065
 30
0.0
 11
89.4373
 21
12.361
 31
0.0
  0
LINE
  8
0
 62
     0
 10
89.4373
 20
12.361
 30
0.0
 11
129.063
 21
12.361
 31
0.0
  0
LINE
  8
0
 62
     0
 10
129.063
 20
12.361
 30
0.0
 11
129.063
 21
11.7615
 31
0.0
  0
LINE
  8
0
 62
     0
 10
129.063
 20
11.7615
 30
0.0
 11
128.262
 21
11.7615
 31
0.0
  0
LINE
  8
0
 62
     0
 10
128.262
 20
11.7615
 30
0.0
 11
128.262
 21
8.66098
 31
0.0
  0
LINE
  8
0
 62
     0
 10
128.262
 20
8.66098
 30
0.0
 11
129.063
 21
8.66098
 31
0.0
  0
LINE
  8
0
 62
     0
 10
129.063
 20
8.66098
 30
0.0
 11
129.063
 21
7.6605
 31
0.0
  0
LINE
  8
0
 62
     0
 10
129.063
 20
7.6605
 30
0.0
 11
143.062
 21
7.6605
 31
0.0
  0
LINE
  8
0
 62
     0
 10
143.062
 20
7.6605
 30
0.0
 11
143.062
 21
8.66098
 31
0.0
  0
LINE
  8
0
 62
     0
 10
143.062
 20
8.66098
 30
0.0
 11
143.863
 21
8.66098
 31
0.0
  0
LINE
  8
0
 62
     0
 10
143.863
 20
8.66098
 30
0.0
 11
143.863
 21
11.7615
 31
0.0
  0
LINE
  8
0
 62
     0
 10
143.863
 20
11.7615
 30
0.0
 11
143.062
 21
11.7615
 31
0.0
  0
LINE
  8
0
 62
     0
 10
143.062
 20
11.7615
 30
0.0
 11
143.062
 21
12.361
 31
0.0
  0
LINE
  8
0
 62
     0
 10
143.062
 20
12.361
 30
0.0
 11
182.688
 21
12.361
 31
0.0
  0
LINE
  8
0
 62
     0
 10
182.688
 20
12.361
 30
0.0
 11
182.688
 21
7.89065
 31
0.0
  0
LINE
  8
0
 62
     0
 10
182.688
 20
7.89065
 30
0.0
 11
184.412
 21
7.89065
 31
0.0
  0
LINE
  8
0
 62
     0
 10
184.412
 20
7.89065
 30
0.0
 11
184.412
 21
6.91085
 31
0.0
  0
LINE
  8
0
 62
     0
 10
184.412
 20
6.91085
 30
0.0
 11
187.712
 21
6.91085
 31
0.0
  0
LINE
  8
0
 62
     0
 10
187.712
 20
6.91085
 30
0.0
 11
187.712
 21
7.89065
 31
0.0
  0
LINE
  8
0
 62
     0
 10
187.712
 20
7.89065
 30
0.0
 11
189.437
 21
7.89065
 31
0.0
  0
LINE
  8
0
 62
     0
 10
189.437
 20
7.89065
 30
0.0
 11
189.437
 21
14.1607
 31
0.0
  0
LINE
  8
0
 62
     0
 10
189.437
 20
14.1607
 30
0.0
 11
190.263
 21
14.1607
 31
0.0
  0
LINE
  8
0
 62
     0
 10
190.263
 20
14.1607
 30
0.0
 11
190.263
 21
16.9609
 31
0.0
  0
LINE
  8
0
 62
     0
 10
190.263
 20
16.9609
 30
0.0
 11
189.437
 21
16.9609
 31
0.0
  0
LINE
  8
0
 62
     0
 10
189.437
 20
16.9609
 30
0.0
 11
189.437
 21
20.191
 31
0.0
  0
LINE
  8
0
 62
     0
 10
189.437
 20
20.191
 30
0.0
 11
187.712
 21
20.191
 31
0.0
  0
LINE
  8
0
 62
     0
 10
187.712
 20
20.191
 30
0.0
 11
187.712
 21
21.1116
 31
0.0
  0
LINE
  8
0
 62
     0
 10
187.712
 20
21.1116
 30
0.0
 11
184.412
 21
21.1116
 31
0.0
  0
LINE
  8
0
 62
     0
 10
184.412
 20
21.1116
 30
0.0
 11
184.412
 21
20.191
 31
0.0
  0
LINE
  8
0
 62
     0
 10
184.412
 20
20.191
 30
0.0
 11
182.688
 21
20.191
 31
0.0
  0
LINE
  8
0
 62
     0
 10
182.688
 20
20.191
 30
0.0
 11
182.688
 21
16.9609
 31
0.0
  0
LINE
  8
0
 62
     0
 10
182.688
 20
16.9609
 30
0.0
 11
143.062
 21
16.9609
 31
0.0
  0
LINE
  8
0
 62
     0
 10
143.062
 20
16.9609
 30
0.0
 11
143.062
 21
17.5617
 31
0.0
  0
LINE
  8
0
 62
     0
 10
143.062
 20
17.5617
 30
0.0
 11
143.863
 21
17.5617
 31
0.0
  0
LINE
  8
0
 62
     0
 10
143.863
 20
17.5617
 30
0.0
 11
143.863
 21
20.6609
 31
0.0
  0
LINE
  8
0
 62
     0
 10
143.863
 20
20.6609
 30
0.0
 11
143.062
 21
20.6609
 31
0.0
  0
LINE
  8
0
 62
     0
 10
143.062
 20
20.6609
 30
0.0
 11
143.062
 21
21.6614
 31
0.0
  0
LINE
  8
0
 62
     0
 10
143.062
 20
21.6614
 30
0.0
 11
129.063
 21
21.6614
 31
0.0
  0
LINE
  8
0
 62
     0
 10
345.757
 20
21.6614
 30
0.0
 11
345.757
 21
20.6609
 31
0.0
  0
LINE
  8
0
 62
     0
 10
345.757
 20
20.6609
 30
0.0
 11
344.956
 21
20.6609
 31
0.0
  0
LINE
  8
0
 62
     0
 10
344.956
 20
20.6609
 30
0.0
 11
344.956
 21
17.5617
 31
0.0
  0
LINE
  8
0
 62
     0
 10
344.956
 20
17.5617
 30
0.0
 11
345.757
 21
17.5617
 31
0.0
  0
LINE
  8
0
 62
     0
 10
345.757
 20
17.5617
 30
0.0
 11
345.757
 21
11.7615
 31
0.0
  0
LINE
  8
0
 62
     0
 10
345.757
 20
11.7615
 30
0.0
 11
344.956
 21
11.7615
 31
0.0
  0
LINE
  8
0
 62
     0
 10
344.956
 20
11.7615
 30
0.0
 11
344.956
 21
8.66098
 31
0.0
  0
LINE
  8
0
 62
     0
 10
344.956
 20
8.66098
 30
0.0
 11
345.757
 21
8.66098
 31
0.0
  0
LINE
  8
0
 62
     0
 10
345.757
 20
8.66098
 30
0.0
 11
345.757
 21
7.6605
 31
0.0
  0
LINE
  8
0
 62
     0
 10
345.757
 20
7.6605
 30
0.0
 11
359.756
 21
7.6605
 31
0.0
  0
LINE
  8
0
 62
     0
 10
359.756
 20
7.6605
 30
0.0
 11
359.756
 21
8.66098
 31
0.0
  0
LINE
  8
0
 62
     0
 10
359.756
 20
8.66098
 30
0.0
 11
360.557
 21
8.66098
 31
0.0
  0
LINE
  8
0
 62
     0
 10
360.557
 20
8.66098
 30
0.0
 11
360.557
 21
11.7615
 31
0.0
  0
LINE
  8
0
 62
     0
 10
360.557
 20
11.7615
 30
0.0
 11
359.756
 21
11.7615
 31
0.0
  0
LINE
  8
0
 62
     0
 10
359.756
 20
11.7615
 30
0.0
 11
359.756
 21
17.5617
 31
0.0
  0
LINE
  8
0
 62
     0
 10
359.756
 20
17.5617
 30
0.0
 11
360.557
 21
17.5617
 31
0.0
  0
LINE
  8
0
 62
     0
 10
360.557
 20
17.5617
 30
0.0
 11
360.557
 21
20.6609
 31
0.0
  0
LINE
  8
0
 62
     0
 10
360.557
 20
20.6609
 30
0.0
 11
359.756
 21
20.6609
 31
0.0
  0
LINE
  8
0
 62
     0
 10
359.756
 20
20.6609
 30
0.0
 11
359.756
 21
21.6614
 31
0.0
  0
LINE
  8
0
 62
     0
 10
359.756
 20
21.6614
 30
0.0
 11
345.757
 21
21.6614
 31
0.0
  0
LINE
  8
0
 62
     0
 10
317.182
 20
21.6614
 30
0.0
 11
317.182
 21
20.6609
 31
0.0
  0
LINE
  8
0
 62
     0
 10
317.182
 20
20.6609
 30
0.0
 11
316.381
 21
20.6609
 31
0.0
  0
LINE
  8
0
 62
     0
 10
316.381
 20
20.6609
 30
0.0
 11
316.381
 21
17.5617
 31
0.0
  0
LINE
  8
0
 62
     0
 10
316.381
 20
17.5617
 30
0.0
 11
317.182
 21
17.5617
 31
0.0
  0
LINE
  8
0
 62
     0
 10
317.182
 20
17.5617
 30
0.0
 11
317.182
 21
11.7615
 31
0.0
  0
LINE
  8
0
 62
     0
 10
317.182
 20
11.7615
 30
0.0
 11
316.381
 21
11.7615
 31
0.0
  0
LINE
  8
0
 62
     0
 10
316.381
 20
11.7615
 30
0.0
 11
316.381
 21
8.66098
 31
0.0
  0
LINE
  8
0
 62
     0
 10
316.381
 20
8.66098
 30
0.0
 11
317.182
 21
8.66098
 31
0.0
  0
LINE
  8
0
 62
     0
 10
317.182
 20
8.66098
 30
0.0
 11
317.182
 21
7.6605
 31
0.0
  0
LINE
  8
0
 62
     0
 10
317.182
 20
7.6605
 30
0.0
 11
331.181
 21
7.6605
 31
0.0
  0
LINE
  8
0
 62
     0
 10
331.181
 20
7.6605
 30
0.0
 11
331.181
 21
8.66098
 31
0.0
  0
LINE
  8
0
 62
     0
 10
331.181
 20
8.66098
 30
0.0
 11
331.982
 21
8.66098
 31
0.0
  0
LINE
  8
0
 62
     0
 10
331.982
 20
8.66098
 30
0.0
 11
331.982
 21
11.7615
 31
0.0
  0
LINE
  8
0
 62
     0
 10
331.982
 20
11.7615
 30
0.0
 11
331.181
 21
11.7615
 31
0.0
  0
LINE
  8
0
 62
     0
 10
331.181
 20
11.7615
 30
0.0
 11
331.181
 21
17.5617
 31
0.0
  0
LINE
  8
0
 62
     0
 10
331.181
 20
17.5617
 30
0.0
 11
331.982
 21
17.5617
 31
0.0
  0
LINE
  8
0
 62
     0
 10
331.982
 20
17.5617
 30
0.0
 11
331.982
 21
20.6609
 31
0.0
  0
LINE
  8
0
 62
     0
 10
331.982
 20
20.6609
 30
0.0
 11
331.181
 21
20.6609
 31
0.0
  0
LINE
  8
0
 62
     0
 10
331.181
 20
20.6609
 30
0.0
 11
331.181
 21
21.6614
 31
0.0
  0
LINE
  8
0
 62
     0
 10
331.181
 20
21.6614
 30
0.0
 11
317.182
 21
21.6614
 31
0.0
  0
LINE
  8
0
 62
     0
 10
298.132
 20
21.6614
 30
0.0
 11
298.132
 21
20.6609
 31
0.0
  0
LINE
  8
0
 62
     0
 10
298.132
 20
20.6609
 30
0.0
 11
297.331
 21
20.6609
 31
0.0
  0
LINE
  8
0
 62
     0
 10
297.331
 20
20.6609
 30
0.0
 11
297.331
 21
17.5617
 31
0.0
  0
LINE
  8
0
 62
     0
 10
297.331
 20
17.5617
 30
0.0
 11
298.132
 21
17.5617
 31
0.0
  0
LINE
  8
0
 62
     0
 10
298.132
 20
17.5617
 30
0.0
 11
298.132
 21
11.7615
 31
0.0
  0
LINE
  8
0
 62
     0
 10
298.132
 20
11.7615
 30
0.0
 11
297.331
 21
11.7615
 31
0.0
  0
LINE
  8
0
 62
     0
 10
297.331
 20
11.7615
 30
0.0
 11
297.331
 21
8.66098
 31
0.0
  0
LINE
  8
0
 62
     0
 10
297.331
 20
8.66098
 30
0.0
 11
298.132
 21
8.66098
 31
0.0
  0
LINE
  8
0
 62
     0
 10
298.132
 20
8.66098
 30
0.0
 11
298.132
 21
7.6605
 31
0.0
  0
LINE
  8
0
 62
     0
 10
298.132
 20
7.6605
 30
0.0
 11
312.131
 21
7.6605
 31
0.0
  0
LINE
  8
0
 62
     0
 10
312.131
 20
7.6605
 30
0.0
 11
312.131
 21
8.66098
 31
0.0
  0
LINE
  8
0
 62
     0
 10
312.131
 20
8.66098
 30
0.0
 11
312.932
 21
8.66098
 31
0.0
  0
LINE
  8
0
 62
     0
 10
312.932
 20
8.66098
 30
0.0
 11
312.932
 21
11.7615
 31
0.0
  0
LINE
  8
0
 62
     0
 10
312.932
 20
11.7615
 30
0.0
 11
312.131
 21
11.7615
 31
0.0
  0
LINE
  8
0
 62
     0
 10
312.131
 20
11.7615
 30
0.0
 11
312.131
 21
17.5617
 31
0.0
  0
LINE
  8
0
 62
     0
 10
312.131
 20
17.5617
 30
0.0
 11
312.932
 21
17.5617
 31
0.0
  0
LINE
  8
0
 62
     0
 10
312.932
 20
17.5617
 30
0.0
 11
312.932
 21
20.6609
 31
0.0
  0
LINE
  8
0
 62
     0
 10
312.932
 20
20.6609
 30
0.0
 11
312.131
 21
20.6609
 31
0.0
  0
LINE
  8
0
 62
     0
 10
312.131
 20
20.6609
 30
0.0
 11
312.131
 21
21.6614
 31
0.0
  0
LINE
  8
0
 62
     0
 10
312.131
 20
21.6614
 30
0.0
 11
298.132
 21
21.6614
 31
0.0
  0
LINE
  8
0
 62
     0
 10
279.082
 20
21.6614
 30
0.0
 11
279.082
 21
20.6609
 31
0.0
  0
LINE
  8
0
 62
     0
 10
279.082
 20
20.6609
 30
0.0
 11
278.281
 21
20.6609
 31
0.0
  0
LINE
  8
0
 62
     0
 10
278.281
 20
20.6609
 30
0.0
 11
278.281
 21
17.5617
 31
0.0
  0
LINE
  8
0
 62
     0
 10
278.281
 20
17.5617
 30
0.0
 11
279.082
 21
17.5617
 31
0.0
  0
LINE
  8
0
 62
     0
 10
279.082
 20
17.5617
 30
0.0
 11
279.082
 21
11.7615
 31
0.0
  0
LINE
  8
0
 62
     0
 10
279.082
 20
11.7615
 30
0.0
 11
278.281
 21
11.7615
 31
0.0
  0
LINE
  8
0
 62
     0
 10
278.281
 20
11.7615
 30
0.0
 11
278.281
 21
8.66098
 31
0.0
  0
LINE
  8
0
 62
     0
 10
278.281
 20
8.66098
 30
0.0
 11
279.082
 21
8.66098
 31
0.0
  0
LINE
  8
0
 62
     0
 10
279.082
 20
8.66098
 30
0.0
 11
279.082
 21
7.6605
 31
0.0
  0
LINE
  8
0
 62
     0
 10
279.082
 20
7.6605
 30
0.0
 11
293.081
 21
7.6605
 31
0.0
  0
LINE
  8
0
 62
     0
 10
293.081
 20
7.6605
 30
0.0
 11
293.081
 21
8.66098
 31
0.0
  0
LINE
  8
0
 62
     0
 10
293.081
 20
8.66098
 30
0.0
 11
293.882
 21
8.66098
 31
0.0
  0
LINE
  8
0
 62
     0
 10
293.882
 20
8.66098
 30
0.0
 11
293.882
 21
11.7615
 31
0.0
  0
LINE
  8
0
 62
     0
 10
293.882
 20
11.7615
 30
0.0
 11
293.081
 21
11.7615
 31
0.0
  0
LINE
  8
0
 62
     0
 10
293.081
 20
11.7615
 30
0.0
 11
293.081
 21
17.5617
 31
0.0
  0
LINE
  8
0
 62
     0
 10
293.081
 20
17.5617
 30
0.0
 11
293.882
 21
17.5617
 31
0.0
  0
LINE
  8
0
 62
     0
 10
293.882
 20
17.5617
 30
0.0
 11
293.882
 21
20.6609
 31
0.0
  0
LINE
  8
0
 62
     0
 10
293.882
 20
20.6609
 30
0.0
 11
293.081
 21
20.6609
 31
0.0
  0
LINE
  8
0
 62
     0
 10
293.081
 20
20.6609
 30
0.0
 11
293.081
 21
21.6614
 31
0.0
  0
LINE
  8
0
 62
     0
 10
293.081
 20
21.6614
 30
0.0
 11
279.082
 21
21.6614
 31
0.0
  0
LINE
  8
0
 62
     0
 10
245.744
 20
21.6614
 30
0.0
 11
245.744
 21
20.6609
 31
0.0
  0
LINE
  8
0
 62
     0
 10
245.744
 20
20.6609
 30
0.0
 11
244.943
 21
20.6609
 31
0.0
  0
LINE
  8
0
 62
     0
 10
244.943
 20
20.6609
 30
0.0
 11
244.943
 21
17.5617
 31
0.0
  0
LINE
  8
0
 62
     0
 10
244.943
 20
17.5617
 30
0.0
 11
245.744
 21
17.5617
 31
0.0
  0
LINE
  8
0
 62
     0
 10
245.744
 20
17.5617
 30
0.0
 11
245.744
 21
11.7615
 31
0.0
  0
LINE
  8
0
 62
     0
 10
245.744
 20
11.7615
 30
0.0
 11
244.943
 21
11.7615
 31
0.0
  0
LINE
  8
0
 62
     0
 10
244.943
 20
11.7615
 30
0.0
 11
244.943
 21
8.66098
 31
0.0
  0
LINE
  8
0
 62
     0
 10
244.943
 20
8.66098
 30
0.0
 11
245.744
 21
8.66098
 31
0.0
  0
LINE
  8
0
 62
     0
 10
245.744
 20
8.66098
 30
0.0
 11
245.744
 21
7.6605
 31
0.0
  0
LINE
  8
0
 62
     0
 10
245.744
 20
7.6605
 30
0.0
 11
259.745
 21
7.6605
 31
0.0
  0
LINE
  8
0
 62
     0
 10
259.745
 20
7.6605
 30
0.0
 11
259.745
 21
8.66098
 31
0.0
  0
LINE
  8
0
 62
     0
 10
259.745
 20
8.66098
 30
0.0
 11
260.544
 21
8.66098
 31
0.0
  0
LINE
  8
0
 62
     0
 10
260.544
 20
8.66098
 30
0.0
 11
260.544
 21
11.7615
 31
0.0
  0
LINE
  8
0
 62
     0
 10
260.544
 20
11.7615
 30
0.0
 11
259.745
 21
11.7615
 31
0.0
  0
LINE
  8
0
 62
     0
 10
259.745
 20
11.7615
 30
0.0
 11
259.745
 21
17.5617
 31
0.0
  0
LINE
  8
0
 62
     0
 10
259.745
 20
17.5617
 30
0.0
 11
260.544
 21
17.5617
 31
0.0
  0
LINE
  8
0
 62
     0
 10
260.544
 20
17.5617
 30
0.0
 11
260.544
 21
20.6609
 31
0.0
  0
LINE
  8
0
 62
     0
 10
260.544
 20
20.6609
 30
0.0
 11
259.745
 21
20.6609
 31
0.0
  0
LINE
  8
0
 62
     0
 10
259.745
 20
20.6609
 30
0.0
 11
259.745
 21
21.6614
 31
0.0
  0
LINE
  8
0
 62
     0
 10
259.745
 20
21.6614
 30
0.0
 11
245.744
 21
21.6614
 31
0.0
  0
LINE
  8
0
 62
     0
 10
224.313
 20
21.6614
 30
0.0
 11
224.313
 21
20.6609
 31
0.0
  0
LINE
  8
0
 62
     0
 10
224.313
 20
20.6609
 30
0.0
 11
223.512
 21
20.6609
 31
0.0
  0
LINE
  8
0
 62
     0
 10
223.512
 20
20.6609
 30
0.0
 11
223.512
 21
17.5617
 31
0.0
  0
LINE
  8
0
 62
     0
 10
223.512
 20
17.5617
 30
0.0
 11
224.313
 21
17.5617
 31
0.0
  0
LINE
  8
0
 62
     0
 10
224.313
 20
17.5617
 30
0.0
 11
224.313
 21
11.7615
 31
0.0
  0
LINE
  8
0
 62
     0
 10
224.313
 20
11.7615
 30
0.0
 11
223.512
 21
11.7615
 31
0.0
  0
LINE
  8
0
 62
     0
 10
223.512
 20
11.7615
 30
0.0
 11
223.512
 21
8.66098
 31
0.0
  0
LINE
  8
0
 62
     0
 10
223.512
 20
8.66098
 30
0.0
 11
224.313
 21
8.66098
 31
0.0
  0
LINE
  8
0
 62
     0
 10
224.313
 20
8.66098
 30
0.0
 11
224.313
 21
7.6605
 31
0.0
  0
LINE
  8
0
 62
     0
 10
224.313
 20
7.6605
 30
0.0
 11
238.312
 21
7.6605
 31
0.0
  0
LINE
  8
0
 62
     0
 10
238.312
 20
7.6605
 30
0.0
 11
238.312
 21
8.66098
 31
0.0
  0
LINE
  8
0
 62
     0
 10
238.312
 20
8.66098
 30
0.0
 11
239.113
 21
8.66098
 31
0.0
  0
LINE
  8
0
 62
     0
 10
239.113
 20
8.66098
 30
0.0
 11
239.113
 21
11.7615
 31
0.0
  0
LINE
  8
0
 62
     0
 10
239.113
 20
11.7615
 30
0.0
 11
238.312
 21
11.7615
 31
0.0
  0
LINE
  8
0
 62
     0
 10
238.312
 20
11.7615
 30
0.0
 11
238.312
 21
17.5617
 31
0.0
  0
LINE
  8
0
 62
     0
 10
238.312
 20
17.5617
 30
0.0
 11
239.113
 21
17.5617
 31
0.0
  0
LINE
  8
0
 62
     0
 10
239.113
 20
17.5617
 30
0.0
 11
239.113
 21
20.6609
 31
0.0
  0
LINE
  8
0
 62
     0
 10
239.113
 20
20.6609
 30
0.0
 11
238.312
 21
20.6609
 31
0.0
  0
LINE
  8
0
 62
     0
 10
238.312
 20
20.6609
 30
0.0
 11
238.312
 21
21.6614
 31
0.0
  0
LINE
  8
0
 62
     0
 10
238.312
 20
21.6614
 30
0.0
 11
224.313
 21
21.6614
 31
0.0
  0
LINE
  8
0
 62
     0
 10
200.501
 20
21.6614
 30
0.0
 11
200.501
 21
20.6609
 31
0.0
  0
LINE
  8
0
 62
     0
 10
200.501
 20
20.6609
 30
0.0
 11
199.701
 21
20.6609
 31
0.0
  0
LINE
  8
0
 62
     0
 10
199.701
 20
20.6609
 30
0.0
 11
199.701
 21
17.5617
 31
0.0
  0
LINE
  8
0
 62
     0
 10
199.701
 20
17.5617
 30
0.0
 11
200.501
 21
17.5617
 31
0.0
  0
LINE
  8
0
 62
     0
 10
200.501
 20
17.5617
 30
0.0
 11
200.501
 21
11.7615
 31
0.0
  0
LINE
  8
0
 62
     0
 10
200.501
 20
11.7615
 30
0.0
 11
199.701
 21
11.7615
 31
0.0
  0
LINE
  8
0
 62
     0
 10
199.701
 20
11.7615
 30
0.0
 11
199.701
 21
8.66098
 31
0.0
  0
LINE
  8
0
 62
     0
 10
199.701
 20
8.66098
 30
0.0
 11
200.501
 21
8.66098
 31
0.0
  0
LINE
  8
0
 62
     0
 10
200.501
 20
8.66098
 30
0.0
 11
200.501
 21
7.6605
 31
0.0
  0
LINE
  8
0
 62
     0
 10
200.501
 20
7.6605
 30
0.0
 11
214.5
 21
7.6605
 31
0.0
  0
LINE
  8
0
 62
     0
 10
214.5
 20
7.6605
 30
0.0
 11
214.5
 21
8.66098
 31
0.0
  0
LINE
  8
0
 62
     0
 10
214.5
 20
8.66098
 30
0.0
 11
215.301
 21
8.66098
 31
0.0
  0
LINE
  8
0
 62
     0
 10
215.301
 20
8.66098
 30
0.0
 11
215.301
 21
11.7615
 31
0.0
  0
LINE
  8
0
 62
     0
 10
215.301
 20
11.7615
 30
0.0
 11
214.5
 21
11.7615
 31
0.0
  0
LINE
  8
0
 62
     0
 10
214.5
 20
11.7615
 30
0.0
 11
214.5
 21
17.5617
 31
0.0
  0
LINE
  8
0
 62
     0
 10
214.5
 20
17.5617
 30
0.0
 11
215.301
 21
17.5617
 31
0.0
  0
LINE
  8
0
 62
     0
 10
215.301
 20
17.5617
 30
0.0
 11
215.301
 21
20.6609
 31
0.0
  0
LINE
  8
0
 62
     0
 10
215.301
 20
20.6609
 30
0.0
 11
214.5
 21
20.6609
 31
0.0
  0
LINE
  8
0
 62
     0
 10
214.5
 20
20.6609
 30
0.0
 11
214.5
 21
21.6614
 31
0.0
  0
LINE
  8
0
 62
     0
 10
214.5
 20
21.6614
 30
0.0
 11
200.501
 21
21.6614
 31
0.0
  0
LINE
  8
0
 62
     0
 10
57.6255
 20
21.6614
 30
0.0
 11
57.6255
 21
20.6609
 31
0.0
  0
LINE
  8
0
 62
     0
 10
57.6255
 20
20.6609
 30
0.0
 11
56.8262
 21
20.6609
 31
0.0
  0
LINE
  8
0
 62
     0
 10
56.8262
 20
20.6609
 30
0.0
 11
56.8262
 21
17.5617
 31
0.0
  0
LINE
  8
0
 62
     0
 10
56.8262
 20
17.5617
 30
0.0
 11
57.6255
 21
17.5617
 31
0.0
  0
LINE
  8
0
 62
     0
 10
57.6255
 20
17.5617
 30
0.0
 11
57.6255
 21
11.7615
 31
0.0
  0
LINE
  8
0
 62
     0
 10
57.6255
 20
11.7615
 30
0.0
 11
56.8262
 21
11.7615
 31
0.0
  0
LINE
  8
0
 62
     0
 10
56.8262
 20
11.7615
 30
0.0
 11
56.8262
 21
8.66098
 31
0.0
  0
LINE
  8
0
 62
     0
 10
56.8262
 20
8.66098
 30
0.0
 11
57.6255
 21
8.66098
 31
0.0
  0
LINE
  8
0
 62
     0
 10
57.6255
 20
8.66098
 30
0.0
 11
57.6255
 21
7.6605
 31
0.0
  0
LINE
  8
0
 62
     0
 10
57.6255
 20
7.6605
 30
0.0
 11
71.6248
 21
7.6605
 31
0.0
  0
LINE
  8
0
 62
     0
 10
71.6248
 20
7.6605
 30
0.0
 11
71.6248
 21
8.66098
 31
0.0
  0
LINE
  8
0
 62
     0
 10
71.6248
 20
8.66098
 30
0.0
 11
72.4256
 21
8.66098
 31
0.0
  0
LINE
  8
0
 62
     0
 10
72.4256
 20
8.66098
 30
0.0
 11
72.4256
 21
11.7615
 31
0.0
  0
LINE
  8
0
 62
     0
 10
72.4256
 20
11.7615
 30
0.0
 11
71.6248
 21
11.7615
 31
0.0
  0
LINE
  8
0
 62
     0
 10
71.6248
 20
11.7615
 30
0.0
 11
71.6248
 21
17.5617
 31
0.0
  0
LINE
  8
0
 62
     0
 10
71.6248
 20
17.5617
 30
0.0
 11
72.4256
 21
17.5617
 31
0.0
  0
LINE
  8
0
 62
     0
 10
72.4256
 20
17.5617
 30
0.0
 11
72.4256
 21
20.6609
 31
0.0
  0
LINE
  8
0
 62
     0
 10
72.4256
 20
20.6609
 30
0.0
 11
71.6248
 21
20.6609
 31
0.0
  0
LINE
  8
0
 62
     0
 10
71.6248
 20
20.6609
 30
0.0
 11
71.6248
 21
21.6614
 31
0.0
  0
LINE
  8
0
 62
     0
 10
71.6248
 20
21.6614
 30
0.0
 11
57.6255
 21
21.6614
 31
0.0
  0
LINE
  8
0
 62
     0
 10
33.8129
 20
21.6614
 30
0.0
 11
33.8129
 21
20.6609
 31
0.0
  0
LINE
  8
0
 62
     0
 10
33.8129
 20
20.6609
 30
0.0
 11
33.0123
 21
20.6609
 31
0.0
  0
LINE
  8
0
 62
     0
 10
33.0123
 20
20.6609
 30
0.0
 11
33.0123
 21
17.5617
 31
0.0
  0
LINE
  8
0
 62
     0
 10
33.0123
 20
17.5617
 30
0.0
 11
33.8129
 21
17.5617
 31
0.0
  0
LINE
  8
0
 62
     0
 10
33.8129
 20
17.5617
 30
0.0
 11
33.8129
 21
11.7615
 31
0.0
  0
LINE
  8
0
 62
     0
 10
33.8129
 20
11.7615
 30
0.0
 11
33.0123
 21
11.7615
 31
0.0
  0
LINE
  8
0
 62
     0
 10
33.0123
 20
11.7615
 30
0.0
 11
33.0123
 21
8.66098
 31
0.0
  0
LINE
  8
0
 62
     0
 10
33.0123
 20
8.66098
 30
0.0
 11
33.8129
 21
8.66098
 31
0.0
  0
LINE
  8
0
 62
     0
 10
33.8129
 20
8.66098
 30
0.0
 11
33.8129
 21
7.6605
 31
0.0
  0
LINE
  8
0
 62
     0
 10
33.8129
 20
7.6605
 30
0.0
 11
47.8123
 21
7.6605
 31
0.0
  0
LINE
  8
0
 62
     0
 10
47.8123
 20
7.6605
 30
0.0
 11
47.8123
 21
8.66098
 31
0.0
  0
LINE
  8
0
 62
     0
 10
47.8123
 20
8.66098
 30
0.0
 11
48.6131
 21
8.66098
 31
0.0
  0
LINE
  8
0
 62
     0
 10
48.6131
 20
8.66098
 30
0.0
 11
48.6131
 21
11.7615
 31
0.0
  0
LINE
  8
0
 62
     0
 10
48.6131
 20
11.7615
 30
0.0
 11
47.8123
 21
11.7615
 31
0.0
  0
LINE
  8
0
 62
     0
 10
47.8123
 20
11.7615
 30
0.0
 11
47.8123
 21
17.5617
 31
0.0
  0
LINE
  8
0
 62
     0
 10
47.8123
 20
17.5617
 30
0.0
 11
48.6131
 21
17.5617
 31
0.0
  0
LINE
  8
0
 62
     0
 10
48.6131
 20
17.5617
 30
0.0
 11
48.6131
 21
20.6609
 31
0.0
  0
LINE
  8
0
 62
     0
 10
48.6131
 20
20.6609
 30
0.0
 11
47.8123
 21
20.6609
 31
0.0
  0
LINE
  8
0
 62
     0
 10
47.8123
 20
20.6609
 30
0.0
 11
47.8123
 21
21.6614
 31
0.0
  0
LINE
  8
0
 62
     0
 10
47.8123
 20
21.6614
 30
0.0
 11
33.8129
 21
21.6614
 31
0.0
  0
LINE
  8
0
 62
     0
 10
10.0004
 20
21.6614
 30
0.0
 11
10.0004
 21
20.6609
 31
0.0
  0
LINE
  8
0
 62
     0
 10
10.0004
 20
20.6609
 30
0.0
 11
9.20115
 21
20.6609
 31
0.0
  0
LINE
  8
0
 62
     0
 10
9.20115
 20
20.6609
 30
0.0
 11
9.20115
 21
17.5617
 31
0.0
  0
LINE
  8
0
 62
     0
 10
9.20115
 20
17.5617
 30
0.0
 11
10.0004
 21
17.5617
 31
0.0
  0
LINE
  8
0
 62
     0
 10
10.0004
 20
17.5617
 30
0.0
 11
10.0004
 21
11.7615
 31
0.0
  0
LINE
  8
0
 62
     0
 10
10.0004
 20
11.7615
 30
0.0
 11
9.20115
 21
11.7615
 31
0.0
  0
LINE
  8
0
 62
     0
 10
9.20115
 20
11.7615
 30
0.0
 11
9.20115
 21
8.66098
 31
0.0
  0
LINE
  8
0
 62
     0
 10
9.20115
 20
8.66098
 30
0.0
 11
10.0004
 21
8.66098
 31
0.0
  0
LINE
  8
0
 62
     0
 10
10.0004
 20
8.66098
 30
0.0
 11
10.0004
 21
7.6605
 31
0.0
  0
LINE
  8
0
 62
     0
 10
10.0004
 20
7.6605
 30
0.0
 11
23.9999
 21
7.6605
 31
0.0
  0
LINE
  8
0
 62
     0
 10
23.9999
 20
7.6605
 30
0.0
 11
23.9999
 21
8.66098
 31
0.0
  0
LINE
  8
0
 62
     0
 10
23.9999
 20
8.66098
 30
0.0
 11
24.8006
 21
8.66098
 31
0.0
  0
LINE
  8
0
 62
     0
 10
24.8006
 20
8.66098
 30
0.0
 11
24.8006
 21
11.7615
 31
0.0
  0
LINE
  8
0
 62
     0
 10
24.8006
 20
11.7615
 30
0.0
 11
23.9999
 21
11.7615
 31
0.0
  0
LINE
  8
0
 62
     0
 10
23.9999
 20
11.7615
 30
0.0
 11
23.9999
 21
17.5617
 31
0.0
  0
LINE
  8
0
 62
     0
 10
23.9999
 20
17.5617
 30
0.0
 11
24.8006
 21
17.5617
 31
0.0
  0
LINE
  8
0
 62
     0
 10
24.8006
 20
17.5617
 30
0.0
 11
24.8006
 21
20.6609
 31
0.0
  0
LINE
  8
0
 62
     0
 10
24.8006
 20
20.6609
 30
0.0
 11
23.9999
 21
20.6609
 31
0.0
  0
LINE
  8
0
 62
     0
 10
23.9999
 20
20.6609
 30
0.0
 11
23.9999
 21
21.6614
 31
0.0
  0
LINE
  8
0
 62
     0
 10
23.9999
 20
21.6614
 30
0.0
 11
10.0004
 21
21.6614
 31
0.0
  0
LINE
  8
0
 62
     0
 10
257.651
 20
40.7113
 30
0.0
 11
257.651
 21
39.7108
 31
0.0
  0
LINE
  8
0
 62
     0
 10
257.651
 20
39.7108
 30
0.0
 11
256.85
 21
39.7108
 31
0.0
  0
LINE
  8
0
 62
     0
 10
256.85
 20
39.7108
 30
0.0
 11
256.85
 21
36.6116
 31
0.0
  0
LINE
  8
0
 62
     0
 10
256.85
 20
36.6116
 30
0.0
 11
257.651
 21
36.6116
 31
0.0
  0
LINE
  8
0
 62
     0
 10
257.651
 20
36.6116
 30
0.0
 11
257.651
 21
36.0109
 31
0.0
  0
LINE
  8
0
 62
     0
 10
257.651
 20
36.0109
 30
0.0
 11
256.125
 21
36.0109
 31
0.0
  0
LINE
  8
0
 62
     0
 10
256.125
 20
36.0109
 30
0.0
 11
256.125
 21
39.2409
 31
0.0
  0
LINE
  8
0
 62
     0
 10
256.125
 20
39.2409
 30
0.0
 11
254.4
 21
39.2409
 31
0.0
  0
LINE
  8
0
 62
     0
 10
254.4
 20
39.2409
 30
0.0
 11
254.4
 21
40.1616
 31
0.0
  0
LINE
  8
0
 62
     0
 10
254.4
 20
40.1616
 30
0.0
 11
251.099
 21
40.1616
 31
0.0
  0
LINE
  8
0
 62
     0
 10
251.099
 20
40.1616
 30
0.0
 11
251.099
 21
39.2409
 31
0.0
  0
LINE
  8
0
 62
     0
 10
251.099
 20
39.2409
 30
0.0
 11
249.375
 21
39.2409
 31
0.0
  0
LINE
  8
0
 62
     0
 10
249.375
 20
39.2409
 30
0.0
 11
249.375
 21
36.0109
 31
0.0
  0
LINE
  8
0
 62
     0
 10
249.375
 20
36.0109
 30
0.0
 11
248.55
 21
36.0109
 31
0.0
  0
LINE
  8
0
 62
     0
 10
248.55
 20
36.0109
 30
0.0
 11
248.55
 21
33.2107
 31
0.0
  0
LINE
  8
0
 62
     0
 10
248.55
 20
33.2107
 30
0.0
 11
249.375
 21
33.2107
 31
0.0
  0
LINE
  8
0
 62
     0
 10
249.375
 20
33.2107
 30
0.0
 11
249.375
 21
26.9407
 31
0.0
  0
LINE
  8
0
 62
     0
 10
249.375
 20
26.9407
 30
0.0
 11
251.099
 21
26.9407
 31
0.0
  0
LINE
  8
0
 62
     0
 10
251.099
 20
26.9407
 30
0.0
 11
251.099
 21
25.9608
 31
0.0
  0
LINE
  8
0
 62
     0
 10
251.099
 20
25.9608
 30
0.0
 11
254.4
 21
25.9608
 31
0.0
  0
LINE
  8
0
 62
     0
 10
254.4
 20
25.9608
 30
0.0
 11
254.4
 21
26.9407
 31
0.0
  0
LINE
  8
0
 62
     0
 10
254.4
 20
26.9407
 30
0.0
 11
256.125
 21
26.9407
 31
0.0
  0
LINE
  8
0
 62
     0
 10
256.125
 20
26.9407
 30
0.0
 11
256.125
 21
31.411
 31
0.0
  0
LINE
  8
0
 62
     0
 10
256.125
 20
31.411
 30
0.0
 11
257.651
 21
31.411
 31
0.0
  0
LINE
  8
0
 62
     0
 10
257.651
 20
31.411
 30
0.0
 11
257.651
 21
30.8115
 31
0.0
  0
LINE
  8
0
 62
     0
 10
257.651
 20
30.8115
 30
0.0
 11
256.85
 21
30.8115
 31
0.0
  0
LINE
  8
0
 62
     0
 10
256.85
 20
30.8115
 30
0.0
 11
256.85
 21
27.711
 31
0.0
  0
LINE
  8
0
 62
     0
 10
256.85
 20
27.711
 30
0.0
 11
257.651
 21
27.711
 31
0.0
  0
LINE
  8
0
 62
     0
 10
257.651
 20
27.711
 30
0.0
 11
257.651
 21
26.7105
 31
0.0
  0
LINE
  8
0
 62
     0
 10
257.651
 20
26.7105
 30
0.0
 11
271.65
 21
26.7105
 31
0.0
  0
LINE
  8
0
 62
     0
 10
271.65
 20
26.7105
 30
0.0
 11
271.65
 21
27.711
 31
0.0
  0
LINE
  8
0
 62
     0
 10
271.65
 20
27.711
 30
0.0
 11
272.451
 21
27.711
 31
0.0
  0
LINE
  8
0
 62
     0
 10
272.451
 20
27.711
 30
0.0
 11
272.451
 21
30.8115
 31
0.0
  0
LINE
  8
0
 62
     0
 10
272.451
 20
30.8115
 30
0.0
 11
271.65
 21
30.8115
 31
0.0
  0
LINE
  8
0
 62
     0
 10
271.65
 20
30.8115
 30
0.0
 11
271.65
 21
31.411
 31
0.0
  0
LINE
  8
0
 62
     0
 10
271.65
 20
31.411
 30
0.0
 11
273.175
 21
31.411
 31
0.0
  0
LINE
  8
0
 62
     0
 10
273.175
 20
31.411
 30
0.0
 11
273.175
 21
26.9407
 31
0.0
  0
LINE
  8
0
 62
     0
 10
273.175
 20
26.9407
 30
0.0
 11
274.901
 21
26.9407
 31
0.0
  0
LINE
  8
0
 62
     0
 10
274.901
 20
26.9407
 30
0.0
 11
274.901
 21
25.9608
 31
0.0
  0
LINE
  8
0
 62
     0
 10
274.901
 20
25.9608
 30
0.0
 11
278.201
 21
25.9608
 31
0.0
  0
LINE
  8
0
 62
     0
 10
278.201
 20
25.9608
 30
0.0
 11
278.201
 21
26.9407
 31
0.0
  0
LINE
  8
0
 62
     0
 10
278.201
 20
26.9407
 30
0.0
 11
279.925
 21
26.9407
 31
0.0
  0
LINE
  8
0
 62
     0
 10
279.925
 20
26.9407
 30
0.0
 11
279.925
 21
33.2107
 31
0.0
  0
LINE
  8
0
 62
     0
 10
279.925
 20
33.2107
 30
0.0
 11
280.75
 21
33.2107
 31
0.0
  0
LINE
  8
0
 62
     0
 10
280.75
 20
33.2107
 30
0.0
 11
280.75
 21
36.0109
 31
0.0
  0
LINE
  8
0
 62
     0
 10
280.75
 20
36.0109
 30
0.0
 11
279.925
 21
36.0109
 31
0.0
  0
LINE
  8
0
 62
     0
 10
279.925
 20
36.0109
 30
0.0
 11
279.925
 21
39.2409
 31
0.0
  0
LINE
  8
0
 62
     0
 10
279.925
 20
39.2409
 30
0.0
 11
278.201
 21
39.2409
 31
0.0
  0
LINE
  8
0
 62
     0
 10
278.201
 20
39.2409
 30
0.0
 11
278.201
 21
40.1616
 31
0.0
  0
LINE
  8
0
 62
     0
 10
278.201
 20
40.1616
 30
0.0
 11
274.901
 21
40.1616
 31
0.0
  0
LINE
  8
0
 62
     0
 10
274.901
 20
40.1616
 30
0.0
 11
274.901
 21
39.2409
 31
0.0
  0
LINE
  8
0
 62
     0
 10
274.901
 20
39.2409
 30
0.0
 11
273.175
 21
39.2409
 31
0.0
  0
LINE
  8
0
 62
     0
 10
273.175
 20
39.2409
 30
0.0
 11
273.175
 21
36.0109
 31
0.0
  0
LINE
  8
0
 62
     0
 10
273.175
 20
36.0109
 30
0.0
 11
271.65
 21
36.0109
 31
0.0
  0
LINE
  8
0
 62
     0
 10
271.65
 20
36.0109
 30
0.0
 11
271.65
 21
36.6116
 31
0.0
  0
LINE
  8
0
 62
     0
 10
271.65
 20
36.6116
 30
0.0
 11
272.451
 21
36.6116
 31
0.0
  0
LINE
  8
0
 62
     0
 10
272.451
 20
36.6116
 30
0.0
 11
272.451
 21
39.7108
 31
0.0
  0
LINE
  8
0
 62
     0
 10
272.451
 20
39.7108
 30
0.0
 11
271.65
 21
39.7108
 31
0.0
  0
LINE
  8
0
 62
     0
 10
271.65
 20
39.7108
 30
0.0
 11
271.65
 21
40.7113
 31
0.0
  0
LINE
  8
0
 62
     0
 10
271.65
 20
40.7113
 30
0.0
 11
257.651
 21
40.7113
 31
0.0
  0
LINE
  8
0
 62
     0
 10
19.5254
 20
40.7113
 30
0.0
 11
19.5254
 21
39.7108
 31
0.0
  0
LINE
  8
0
 62
     0
 10
19.5254
 20
39.7108
 30
0.0
 11
18.7262
 21
39.7108
 31
0.0
  0
LINE
  8
0
 62
     0
 10
18.7262
 20
39.7108
 30
0.0
 11
18.7262
 21
36.6116
 31
0.0
  0
LINE
  8
0
 62
     0
 10
18.7262
 20
36.6116
 30
0.0
 11
19.5254
 21
36.6116
 31
0.0
  0
LINE
  8
0
 62
     0
 10
19.5254
 20
36.6116
 30
0.0
 11
19.5254
 21
36.0109
 31
0.0
  0
LINE
  8
0
 62
     0
 10
19.5254
 20
36.0109
 30
0.0
 11
17.9999
 21
36.0109
 31
0.0
  0
LINE
  8
0
 62
     0
 10
17.9999
 20
36.0109
 30
0.0
 11
17.9999
 21
39.2409
 31
0.0
  0
LINE
  8
0
 62
     0
 10
17.9999
 20
39.2409
 30
0.0
 11
16.276
 21
39.2409
 31
0.0
  0
LINE
  8
0
 62
     0
 10
16.276
 20
39.2409
 30
0.0
 11
16.276
 21
40.1616
 31
0.0
  0
LINE
  8
0
 62
     0
 10
16.276
 20
40.1616
 30
0.0
 11
12.9756
 21
40.1616
 31
0.0
  0
LINE
  8
0
 62
     0
 10
12.9756
 20
40.1616
 30
0.0
 11
12.9756
 21
39.2409
 31
0.0
  0
LINE
  8
0
 62
     0
 10
12.9756
 20
39.2409
 30
0.0
 11
11.2489
 21
39.2409
 31
0.0
  0
LINE
  8
0
 62
     0
 10
11.2489
 20
39.2409
 30
0.0
 11
11.2489
 21
36.0109
 31
0.0
  0
LINE
  8
0
 62
     0
 10
11.2489
 20
36.0109
 30
0.0
 11
10.4249
 21
36.0109
 31
0.0
  0
LINE
  8
0
 62
     0
 10
10.4249
 20
36.0109
 30
0.0
 11
10.4249
 21
33.2107
 31
0.0
  0
LINE
  8
0
 62
     0
 10
10.4249
 20
33.2107
 30
0.0
 11
11.2489
 21
33.2107
 31
0.0
  0
LINE
  8
0
 62
     0
 10
11.2489
 20
33.2107
 30
0.0
 11
11.2489
 21
26.9407
 31
0.0
  0
LINE
  8
0
 62
     0
 10
11.2489
 20
26.9407
 30
0.0
 11
12.9756
 21
26.9407
 31
0.0
  0
LINE
  8
0
 62
     0
 10
12.9756
 20
26.9407
 30
0.0
 11
12.9756
 21
25.9608
 31
0.0
  0
LINE
  8
0
 62
     0
 10
12.9756
 20
25.9608
 30
0.0
 11
16.276
 21
25.9608
 31
0.0
  0
LINE
  8
0
 62
     0
 10
16.276
 20
25.9608
 30
0.0
 11
16.276
 21
26.9407
 31
0.0
  0
LINE
  8
0
 62
     0
 10
16.276
 20
26.9407
 30
0.0
 11
17.9999
 21
26.9407
 31
0.0
  0
LINE
  8
0
 62
     0
 10
17.9999
 20
26.9407
 30
0.0
 11
17.9999
 21
31.411
 31
0.0
  0
LINE
  8
0
 62
     0
 10
17.9999
 20
31.411
 30
0.0
 11
19.5254
 21
31.411
 31
0.0
  0
LINE
  8
0
 62
     0
 10
19.5254
 20
31.411
 30
0.0
 11
19.5254
 21
30.8115
 31
0.0
  0
LINE
  8
0
 62
     0
 10
19.5254
 20
30.8115
 30
0.0
 11
18.7262
 21
30.8115
 31
0.0
  0
LINE
  8
0
 62
     0
 10
18.7262
 20
30.8115
 30
0.0
 11
18.7262
 21
27.711
 31
0.0
  0
LINE
  8
0
 62
     0
 10
18.7262
 20
27.711
 30
0.0
 11
19.5254
 21
27.711
 31
0.0
  0
LINE
  8
0
 62
     0
 10
19.5254
 20
27.711
 30
0.0
 11
19.5254
 21
26.7105
 31
0.0
  0
LINE
  8
0
 62
     0
 10
19.5254
 20
26.7105
 30
0.0
 11
33.5249
 21
26.7105
 31
0.0
  0
LINE
  8
0
 62
     0
 10
33.5249
 20
26.7105
 30
0.0
 11
33.5249
 21
27.711
 31
0.0
  0
LINE
  8
0
 62
     0
 10
33.5249
 20
27.711
 30
0.0
 11
34.3256
 21
27.711
 31
0.0
  0
LINE
  8
0
 62
     0
 10
34.3256
 20
27.711
 30
0.0
 11
34.3256
 21
30.8115
 31
0.0
  0
LINE
  8
0
 62
     0
 10
34.3256
 20
30.8115
 30
0.0
 11
33.5249
 21
30.8115
 31
0.0
  0
LINE
  8
0
 62
     0
 10
33.5249
 20
30.8115
 30
0.0
 11
33.5249
 21
31.411
 31
0.0
  0
LINE
  8
0
 62
     0
 10
33.5249
 20
31.411
 30
0.0
 11
35.0504
 21
31.411
 31
0.0
  0
LINE
  8
0
 62
     0
 10
35.0504
 20
31.411
 30
0.0
 11
35.0504
 21
26.9407
 31
0.0
  0
LINE
  8
0
 62
     0
 10
35.0504
 20
26.9407
 30
0.0
 11
36.7757
 21
26.9407
 31
0.0
  0
LINE
  8
0
 62
     0
 10
36.7757
 20
26.9407
 30
0.0
 11
36.7757
 21
25.9608
 31
0.0
  0
LINE
  8
0
 62
     0
 10
36.7757
 20
25.9608
 30
0.0
 11
40.0763
 21
25.9608
 31
0.0
  0
LINE
  8
0
 62
     0
 10
40.0763
 20
25.9608
 30
0.0
 11
40.0763
 21
26.9407
 31
0.0
  0
LINE
  8
0
 62
     0
 10
40.0763
 20
26.9407
 30
0.0
 11
41.7999
 21
26.9407
 31
0.0
  0
LINE
  8
0
 62
     0
 10
41.7999
 20
26.9407
 30
0.0
 11
41.7999
 21
33.2107
 31
0.0
  0
LINE
  8
0
 62
     0
 10
41.7999
 20
33.2107
 30
0.0
 11
42.6254
 21
33.2107
 31
0.0
  0
LINE
  8
0
 62
     0
 10
42.6254
 20
33.2107
 30
0.0
 11
42.6254
 21
36.0109
 31
0.0
  0
LINE
  8
0
 62
     0
 10
42.6254
 20
36.0109
 30
0.0
 11
41.7999
 21
36.0109
 31
0.0
  0
LINE
  8
0
 62
     0
 10
41.7999
 20
36.0109
 30
0.0
 11
41.7999
 21
39.2409
 31
0.0
  0
LINE
  8
0
 62
     0
 10
41.7999
 20
39.2409
 30
0.0
 11
40.0763
 21
39.2409
 31
0.0
  0
LINE
  8
0
 62
     0
 10
40.0763
 20
39.2409
 30
0.0
 11
40.0763
 21
40.1616
 31
0.0
  0
LINE
  8
0
 62
     0
 10
40.0763
 20
40.1616
 30
0.0
 11
36.7757
 21
40.1616
 31
0.0
  0
LINE
  8
0
 62
     0
 10
36.7757
 20
40.1616
 30
0.0
 11
36.7757
 21
39.2409
 31
0.0
  0
LINE
  8
0
 62
     0
 10
36.7757
 20
39.2409
 30
0.0
 11
35.0504
 21
39.2409
 31
0.0
  0
LINE
  8
0
 62
     0
 10
35.0504
 20
39.2409
 30
0.0
 11
35.0504
 21
36.0109
 31
0.0
  0
LINE
  8
0
 62
     0
 10
35.0504
 20
36.0109
 30
0.0
 11
33.5249
 21
36.0109
 31
0.0
  0
LINE
  8
0
 62
     0
 10
33.5249
 20
36.0109
 30
0.0
 11
33.5249
 21
36.6116
 31
0.0
  0
LINE
  8
0
 62
     0
 10
33.5249
 20
36.6116
 30
0.0
 11
34.3256
 21
36.6116
 31
0.0
  0
LINE
  8
0
 62
     0
 10
34.3256
 20
36.6116
 30
0.0
 11
34.3256
 21
39.7108
 31
0.0
  0
LINE
  8
0
 62
     0
 10
34.3256
 20
39.7108
 30
0.0
 11
33.5249
 21
39.7108
 31
0.0
  0
LINE
  8
0
 62
     0
 10
33.5249
 20
39.7108
 30
0.0
 11
33.5249
 21
40.7113
 31
0.0
  0
LINE
  8
0
 62
     0
 10
33.5249
 20
40.7113
 30
0.0
 11
19.5254
 21
40.7113
 31
0.0
  0
LINE
  8
0
 62
     0
 10
345.757
 20
40.7113
 30
0.0
 11
345.757
 21
39.7108
 31
0.0
  0
LINE
  8
0
 62
     0
 10
345.757
 20
39.7108
 30
0.0
 11
344.956
 21
39.7108
 31
0.0
  0
LINE
  8
0
 62
     0
 10
344.956
 20
39.7108
 30
0.0
 11
344.956
 21
36.6116
 31
0.0
  0
LINE
  8
0
 62
     0
 10
344.956
 20
36.6116
 30
0.0
 11
345.757
 21
36.6116
 31
0.0
  0
LINE
  8
0
 62
     0
 10
345.757
 20
36.6116
 30
0.0
 11
345.757
 21
30.8115
 31
0.0
  0
LINE
  8
0
 62
     0
 10
345.757
 20
30.8115
 30
0.0
 11
344.956
 21
30.8115
 31
0.0
  0
LINE
  8
0
 62
     0
 10
344.956
 20
30.8115
 30
0.0
 11
344.956
 21
27.711
 31
0.0
  0
LINE
  8
0
 62
     0
 10
344.956
 20
27.711
 30
0.0
 11
345.757
 21
27.711
 31
0.0
  0
LINE
  8
0
 62
     0
 10
345.757
 20
27.711
 30
0.0
 11
345.757
 21
26.7105
 31
0.0
  0
LINE
  8
0
 62
     0
 10
345.757
 20
26.7105
 30
0.0
 11
359.756
 21
26.7105
 31
0.0
  0
LINE
  8
0
 62
     0
 10
359.756
 20
26.7105
 30
0.0
 11
359.756
 21
27.711
 31
0.0
  0
LINE
  8
0
 62
     0
 10
359.756
 20
27.711
 30
0.0
 11
360.557
 21
27.711
 31
0.0
  0
LINE
  8
0
 62
     0
 10
360.557
 20
27.711
 30
0.0
 11
360.557
 21
30.8115
 31
0.0
  0
LINE
  8
0
 62
     0
 10
360.557
 20
30.8115
 30
0.0
 11
359.756
 21
30.8115
 31
0.0
  0
LINE
  8
0
 62
     0
 10
359.756
 20
30.8115
 30
0.0
 11
359.756
 21
36.6116
 31
0.0
  0
LINE
  8
0
 62
     0
 10
359.756
 20
36.6116
 30
0.0
 11
360.557
 21
36.6116
 31
0.0
  0
LINE
  8
0
 62
     0
 10
360.557
 20
36.6116
 30
0.0
 11
360.557
 21
39.7108
 31
0.0
  0
LINE
  8
0
 62
     0
 10
360.557
 20
39.7108
 30
0.0
 11
359.756
 21
39.7108
 31
0.0
  0
LINE
  8
0
 62
     0
 10
359.756
 20
39.7108
 30
0.0
 11
359.756
 21
40.7113
 31
0.0
  0
LINE
  8
0
 62
     0
 10
359.756
 20
40.7113
 30
0.0
 11
345.757
 21
40.7113
 31
0.0
  0
LINE
  8
0
 62
     0
 10
298.132
 20
40.7113
 30
0.0
 11
298.132
 21
39.7108
 31
0.0
  0
LINE
  8
0
 62
     0
 10
298.132
 20
39.7108
 30
0.0
 11
297.331
 21
39.7108
 31
0.0
  0
LINE
  8
0
 62
     0
 10
297.331
 20
39.7108
 30
0.0
 11
297.331
 21
36.6116
 31
0.0
  0
LINE
  8
0
 62
     0
 10
297.331
 20
36.6116
 30
0.0
 11
298.132
 21
36.6116
 31
0.0
  0
LINE
  8
0
 62
     0
 10
298.132
 20
36.6116
 30
0.0
 11
298.132
 21
30.8115
 31
0.0
  0
LINE
  8
0
 62
     0
 10
298.132
 20
30.8115
 30
0.0
 11
297.331
 21
30.8115
 31
0.0
  0
LINE
  8
0
 62
     0
 10
297.331
 20
30.8115
 30
0.0
 11
297.331
 21
27.711
 31
0.0
  0
LINE
  8
0
 62
     0
 10
297.331
 20
27.711
 30
0.0
 11
298.132
 21
27.711
 31
0.0
  0
LINE
  8
0
 62
     0
 10
298.132
 20
27.711
 30
0.0
 11
298.132
 21
26.7105
 31
0.0
  0
LINE
  8
0
 62
     0
 10
298.132
 20
26.7105
 30
0.0
 11
312.131
 21
26.7105
 31
0.0
  0
LINE
  8
0
 62
     0
 10
312.131
 20
26.7105
 30
0.0
 11
312.131
 21
27.711
 31
0.0
  0
LINE
  8
0
 62
     0
 10
312.131
 20
27.711
 30
0.0
 11
312.932
 21
27.711
 31
0.0
  0
LINE
  8
0
 62
     0
 10
312.932
 20
27.711
 30
0.0
 11
312.932
 21
30.8115
 31
0.0
  0
LINE
  8
0
 62
     0
 10
312.932
 20
30.8115
 30
0.0
 11
312.131
 21
30.8115
 31
0.0
  0
LINE
  8
0
 62
     0
 10
312.131
 20
30.8115
 30
0.0
 11
312.131
 21
36.6116
 31
0.0
  0
LINE
  8
0
 62
     0
 10
312.131
 20
36.6116
 30
0.0
 11
312.932
 21
36.6116
 31
0.0
  0
LINE
  8
0
 62
     0
 10
312.932
 20
36.6116
 30
0.0
 11
312.932
 21
39.7108
 31
0.0
  0
LINE
  8
0
 62
     0
 10
312.932
 20
39.7108
 30
0.0
 11
312.131
 21
39.7108
 31
0.0
  0
LINE
  8
0
 62
     0
 10
312.131
 20
39.7108
 30
0.0
 11
312.131
 21
40.7113
 31
0.0
  0
LINE
  8
0
 62
     0
 10
312.131
 20
40.7113
 30
0.0
 11
298.132
 21
40.7113
 31
0.0
  0
LINE
  8
0
 62
     0
 10
221.932
 20
40.7113
 30
0.0
 11
221.932
 21
39.7108
 31
0.0
  0
LINE
  8
0
 62
     0
 10
221.932
 20
39.7108
 30
0.0
 11
221.131
 21
39.7108
 31
0.0
  0
LINE
  8
0
 62
     0
 10
221.131
 20
39.7108
 30
0.0
 11
221.131
 21
36.6116
 31
0.0
  0
LINE
  8
0
 62
     0
 10
221.131
 20
36.6116
 30
0.0
 11
221.932
 21
36.6116
 31
0.0
  0
LINE
  8
0
 62
     0
 10
221.932
 20
36.6116
 30
0.0
 11
221.932
 21
30.8115
 31
0.0
  0
LINE
  8
0
 62
     0
 10
221.932
 20
30.8115
 30
0.0
 11
221.131
 21
30.8115
 31
0.0
  0
LINE
  8
0
 62
     0
 10
221.131
 20
30.8115
 30
0.0
 11
221.131
 21
27.711
 31
0.0
  0
LINE
  8
0
 62
     0
 10
221.131
 20
27.711
 30
0.0
 11
221.932
 21
27.711
 31
0.0
  0
LINE
  8
0
 62
     0
 10
221.932
 20
27.711
 30
0.0
 11
221.932
 21
26.7105
 31
0.0
  0
LINE
  8
0
 62
     0
 10
221.932
 20
26.7105
 30
0.0
 11
235.931
 21
26.7105
 31
0.0
  0
LINE
  8
0
 62
     0
 10
235.931
 20
26.7105
 30
0.0
 11
235.931
 21
27.711
 31
0.0
  0
LINE
  8
0
 62
     0
 10
235.931
 20
27.711
 30
0.0
 11
236.732
 21
27.711
 31
0.0
  0
LINE
  8
0
 62
     0
 10
236.732
 20
27.711
 30
0.0
 11
236.732
 21
30.8115
 31
0.0
  0
LINE
  8
0
 62
     0
 10
236.732
 20
30.8115
 30
0.0
 11
235.931
 21
30.8115
 31
0.0
  0
LINE
  8
0
 62
     0
 10
235.931
 20
30.8115
 30
0.0
 11
235.931
 21
36.6116
 31
0.0
  0
LINE
  8
0
 62
     0
 10
235.931
 20
36.6116
 30
0.0
 11
236.732
 21
36.6116
 31
0.0
  0
LINE
  8
0
 62
     0
 10
236.732
 20
36.6116
 30
0.0
 11
236.732
 21
39.7108
 31
0.0
  0
LINE
  8
0
 62
     0
 10
236.732
 20
39.7108
 30
0.0
 11
235.931
 21
39.7108
 31
0.0
  0
LINE
  8
0
 62
     0
 10
235.931
 20
39.7108
 30
0.0
 11
235.931
 21
40.7113
 31
0.0
  0
LINE
  8
0
 62
     0
 10
235.931
 20
40.7113
 30
0.0
 11
221.932
 21
40.7113
 31
0.0
  0
LINE
  8
0
 62
     0
 10
202.882
 20
40.7113
 30
0.0
 11
202.882
 21
39.7108
 31
0.0
  0
LINE
  8
0
 62
     0
 10
202.882
 20
39.7108
 30
0.0
 11
202.081
 21
39.7108
 31
0.0
  0
LINE
  8
0
 62
     0
 10
202.081
 20
39.7108
 30
0.0
 11
202.081
 21
36.6116
 31
0.0
  0
LINE
  8
0
 62
     0
 10
202.081
 20
36.6116
 30
0.0
 11
202.882
 21
36.6116
 31
0.0
  0
LINE
  8
0
 62
     0
 10
202.882
 20
36.6116
 30
0.0
 11
202.882
 21
30.8115
 31
0.0
  0
LINE
  8
0
 62
     0
 10
202.882
 20
30.8115
 30
0.0
 11
202.081
 21
30.8115
 31
0.0
  0
LINE
  8
0
 62
     0
 10
202.081
 20
30.8115
 30
0.0
 11
202.081
 21
27.711
 31
0.0
  0
LINE
  8
0
 62
     0
 10
202.081
 20
27.711
 30
0.0
 11
202.882
 21
27.711
 31
0.0
  0
LINE
  8
0
 62
     0
 10
202.882
 20
27.711
 30
0.0
 11
202.882
 21
26.7105
 31
0.0
  0
LINE
  8
0
 62
     0
 10
202.882
 20
26.7105
 30
0.0
 11
216.881
 21
26.7105
 31
0.0
  0
LINE
  8
0
 62
     0
 10
216.881
 20
26.7105
 30
0.0
 11
216.881
 21
27.711
 31
0.0
  0
LINE
  8
0
 62
     0
 10
216.881
 20
27.711
 30
0.0
 11
217.682
 21
27.711
 31
0.0
  0
LINE
  8
0
 62
     0
 10
217.682
 20
27.711
 30
0.0
 11
217.682
 21
30.8115
 31
0.0
  0
LINE
  8
0
 62
     0
 10
217.682
 20
30.8115
 30
0.0
 11
216.881
 21
30.8115
 31
0.0
  0
LINE
  8
0
 62
     0
 10
216.881
 20
30.8115
 30
0.0
 11
216.881
 21
36.6116
 31
0.0
  0
LINE
  8
0
 62
     0
 10
216.881
 20
36.6116
 30
0.0
 11
217.682
 21
36.6116
 31
0.0
  0
LINE
  8
0
 62
     0
 10
217.682
 20
36.6116
 30
0.0
 11
217.682
 21
39.7108
 31
0.0
  0
LINE
  8
0
 62
     0
 10
217.682
 20
39.7108
 30
0.0
 11
216.881
 21
39.7108
 31
0.0
  0
LINE
  8
0
 62
     0
 10
216.881
 20
39.7108
 30
0.0
 11
216.881
 21
40.7113
 31
0.0
  0
LINE
  8
0
 62
     0
 10
216.881
 20
40.7113
 30
0.0
 11
202.882
 21
40.7113
 31
0.0
  0
LINE
  8
0
 62
     0
 10
183.832
 20
40.7113
 30
0.0
 11
183.832
 21
39.7108
 31
0.0
  0
LINE
  8
0
 62
     0
 10
183.832
 20
39.7108
 30
0.0
 11
183.031
 21
39.7108
 31
0.0
  0
LINE
  8
0
 62
     0
 10
183.031
 20
39.7108
 30
0.0
 11
183.031
 21
36.6116
 31
0.0
  0
LINE
  8
0
 62
     0
 10
183.031
 20
36.6116
 30
0.0
 11
183.832
 21
36.6116
 31
0.0
  0
LINE
  8
0
 62
     0
 10
183.832
 20
36.6116
 30
0.0
 11
183.832
 21
30.8115
 31
0.0
  0
LINE
  8
0
 62
     0
 10
183.832
 20
30.8115
 30
0.0
 11
183.031
 21
30.8115
 31
0.0
  0
LINE
  8
0
 62
     0
 10
183.031
 20
30.8115
 30
0.0
 11
183.031
 21
27.711
 31
0.0
  0
LINE
  8
0
 62
     0
 10
183.031
 20
27.711
 30
0.0
 11
183.832
 21
27.711
 31
0.0
  0
LINE
  8
0
 62
     0
 10
183.832
 20
27.711
 30
0.0
 11
183.832
 21
26.7105
 31
0.0
  0
LINE
  8
0
 62
     0
 10
183.832
 20
26.7105
 30
0.0
 11
197.831
 21
26.7105
 31
0.0
  0
LINE
  8
0
 62
     0
 10
197.831
 20
26.7105
 30
0.0
 11
197.831
 21
27.711
 31
0.0
  0
LINE
  8
0
 62
     0
 10
197.831
 20
27.711
 30
0.0
 11
198.632
 21
27.711
 31
0.0
  0
LINE
  8
0
 62
     0
 10
198.632
 20
27.711
 30
0.0
 11
198.632
 21
30.8115
 31
0.0
  0
LINE
  8
0
 62
     0
 10
198.632
 20
30.8115
 30
0.0
 11
197.831
 21
30.8115
 31
0.0
  0
LINE
  8
0
 62
     0
 10
197.831
 20
30.8115
 30
0.0
 11
197.831
 21
36.6116
 31
0.0
  0
LINE
  8
0
 62
     0
 10
197.831
 20
36.6116
 30
0.0
 11
198.632
 21
36.6116
 31
0.0
  0
LINE
  8
0
 62
     0
 10
198.632
 20
36.6116
 30
0.0
 11
198.632
 21
39.7108
 31
0.0
  0
LINE
  8
0
 62
     0
 10
198.632
 20
39.7108
 30
0.0
 11
197.831
 21
39.7108
 31
0.0
  0
LINE
  8
0
 62
     0
 10
197.831
 20
39.7108
 30
0.0
 11
197.831
 21
40.7113
 31
0.0
  0
LINE
  8
0
 62
     0
 10
197.831
 20
40.7113
 30
0.0
 11
183.832
 21
40.7113
 31
0.0
  0
LINE
  8
0
 62
     0
 10
164.782
 20
40.7113
 30
0.0
 11
164.782
 21
39.7108
 31
0.0
  0
LINE
  8
0
 62
     0
 10
164.782
 20
39.7108
 30
0.0
 11
163.981
 21
39.7108
 31
0.0
  0
LINE
  8
0
 62
     0
 10
163.981
 20
39.7108
 30
0.0
 11
163.981
 21
36.6116
 31
0.0
  0
LINE
  8
0
 62
     0
 10
163.981
 20
36.6116
 30
0.0
 11
164.782
 21
36.6116
 31
0.0
  0
LINE
  8
0
 62
     0
 10
164.782
 20
36.6116
 30
0.0
 11
164.782
 21
30.8115
 31
0.0
  0
LINE
  8
0
 62
     0
 10
164.782
 20
30.8115
 30
0.0
 11
163.981
 21
30.8115
 31
0.0
  0
LINE
  8
0
 62
     0
 10
163.981
 20
30.8115
 30
0.0
 11
163.981
 21
27.711
 31
0.0
  0
LINE
  8
0
 62
     0
 10
163.981
 20
27.711
 30
0.0
 11
164.782
 21
27.711
 31
0.0
  0
LINE
  8
0
 62
     0
 10
164.782
 20
27.711
 30
0.0
 11
164.782
 21
26.7105
 31
0.0
  0
LINE
  8
0
 62
     0
 10
164.782
 20
26.7105
 30
0.0
 11
178.781
 21
26.7105
 31
0.0
  0
LINE
  8
0
 62
     0
 10
178.781
 20
26.7105
 30
0.0
 11
178.781
 21
27.711
 31
0.0
  0
LINE
  8
0
 62
     0
 10
178.781
 20
27.711
 30
0.0
 11
179.582
 21
27.711
 31
0.0
  0
LINE
  8
0
 62
     0
 10
179.582
 20
27.711
 30
0.0
 11
179.582
 21
30.8115
 31
0.0
  0
LINE
  8
0
 62
     0
 10
179.582
 20
30.8115
 30
0.0
 11
178.781
 21
30.8115
 31
0.0
  0
LINE
  8
0
 62
     0
 10
178.781
 20
30.8115
 30
0.0
 11
178.781
 21
36.6116
 31
0.0
  0
LINE
  8
0
 62
     0
 10
178.781
 20
36.6116
 30
0.0
 11
179.582
 21
36.6116
 31
0.0
  0
LINE
  8
0
 62
     0
 10
179.582
 20
36.6116
 30
0.0
 11
179.582
 21
39.7108
 31
0.0
  0
LINE
  8
0
 62
     0
 10
179.582
 20
39.7108
 30
0.0
 11
178.781
 21
39.7108
 31
0.0
  0
LINE
  8
0
 62
     0
 10
178.781
 20
39.7108
 30
0.0
 11
178.781
 21
40.7113
 31
0.0
  0
LINE
  8
0
 62
     0
 10
178.781
 20
40.7113
 30
0.0
 11
164.782
 21
40.7113
 31
0.0
  0
LINE
  8
0
 62
     0
 10
145.732
 20
40.7113
 30
0.0
 11
145.732
 21
39.7108
 31
0.0
  0
LINE
  8
0
 62
     0
 10
145.732
 20
39.7108
 30
0.0
 11
144.931
 21
39.7108
 31
0.0
  0
LINE
  8
0
 62
     0
 10
144.931
 20
39.7108
 30
0.0
 11
144.931
 21
36.6116
 31
0.0
  0
LINE
  8
0
 62
     0
 10
144.931
 20
36.6116
 30
0.0
 11
145.732
 21
36.6116
 31
0.0
  0
LINE
  8
0
 62
     0
 10
145.732
 20
36.6116
 30
0.0
 11
145.732
 21
30.8115
 31
0.0
  0
LINE
  8
0
 62
     0
 10
145.732
 20
30.8115
 30
0.0
 11
144.931
 21
30.8115
 31
0.0
  0
LINE
  8
0
 62
     0
 10
144.931
 20
30.8115
 30
0.0
 11
144.931
 21
27.711
 31
0.0
  0
LINE
  8
0
 62
     0
 10
144.931
 20
27.711
 30
0.0
 11
145.732
 21
27.711
 31
0.0
  0
LINE
  8
0
 62
     0
 10
145.732
 20
27.711
 30
0.0
 11
145.732
 21
26.7105
 31
0.0
  0
LINE
  8
0
 62
     0
 10
145.732
 20
26.7105
 30
0.0
 11
159.731
 21
26.7105
 31
0.0
  0
LINE
  8
0
 62
     0
 10
159.731
 20
26.7105
 30
0.0
 11
159.731
 21
27.711
 31
0.0
  0
LINE
  8
0
 62
     0
 10
159.731
 20
27.711
 30
0.0
 11
160.532
 21
27.711
 31
0.0
  0
LINE
  8
0
 62
     0
 10
160.532
 20
27.711
 30
0.0
 11
160.532
 21
30.8115
 31
0.0
  0
LINE
  8
0
 62
     0
 10
160.532
 20
30.8115
 30
0.0
 11
159.731
 21
30.8115
 31
0.0
  0
LINE
  8
0
 62
     0
 10
159.731
 20
30.8115
 30
0.0
 11
159.731
 21
36.6116
 31
0.0
  0
LINE
  8
0
 62
     0
 10
159.731
 20
36.6116
 30
0.0
 11
160.532
 21
36.6116
 31
0.0
  0
LINE
  8
0
 62
     0
 10
160.532
 20
36.6116
 30
0.0
 11
160.532
 21
39.7108
 31
0.0
  0
LINE
  8
0
 62
     0
 10
160.532
 20
39.7108
 30
0.0
 11
159.731
 21
39.7108
 31
0.0
  0
LINE
  8
0
 62
     0
 10
159.731
 20
39.7108
 30
0.0
 11
159.731
 21
40.7113
 31
0.0
  0
LINE
  8
0
 62
     0
 10
159.731
 20
40.7113
 30
0.0
 11
145.732
 21
40.7113
 31
0.0
  0
LINE
  8
0
 62
     0
 10
126.682
 20
40.7113
 30
0.0
 11
126.682
 21
39.7108
 31
0.0
  0
LINE
  8
0
 62
     0
 10
126.682
 20
39.7108
 30
0.0
 11
125.881
 21
39.7108
 31
0.0
  0
LINE
  8
0
 62
     0
 10
125.881
 20
39.7108
 30
0.0
 11
125.881
 21
36.6116
 31
0.0
  0
LINE
  8
0
 62
     0
 10
125.881
 20
36.6116
 30
0.0
 11
126.682
 21
36.6116
 31
0.0
  0
LINE
  8
0
 62
     0
 10
126.682
 20
36.6116
 30
0.0
 11
126.682
 21
30.8115
 31
0.0
  0
LINE
  8
0
 62
     0
 10
126.682
 20
30.8115
 30
0.0
 11
125.881
 21
30.8115
 31
0.0
  0
LINE
  8
0
 62
     0
 10
125.881
 20
30.8115
 30
0.0
 11
125.881
 21
27.711
 31
0.0
  0
LINE
  8
0
 62
     0
 10
125.881
 20
27.711
 30
0.0
 11
126.682
 21
27.711
 31
0.0
  0
LINE
  8
0
 62
     0
 10
126.682
 20
27.711
 30
0.0
 11
126.682
 21
26.7105
 31
0.0
  0
LINE
  8
0
 62
     0
 10
126.682
 20
26.7105
 30
0.0
 11
140.681
 21
26.7105
 31
0.0
  0
LINE
  8
0
 62
     0
 10
140.681
 20
26.7105
 30
0.0
 11
140.681
 21
27.711
 31
0.0
  0
LINE
  8
0
 62
     0
 10
140.681
 20
27.711
 30
0.0
 11
141.482
 21
27.711
 31
0.0
  0
LINE
  8
0
 62
     0
 10
141.482
 20
27.711
 30
0.0
 11
141.482
 21
30.8115
 31
0.0
  0
LINE
  8
0
 62
     0
 10
141.482
 20
30.8115
 30
0.0
 11
140.681
 21
30.8115
 31
0.0
  0
LINE
  8
0
 62
     0
 10
140.681
 20
30.8115
 30
0.0
 11
140.681
 21
36.6116
 31
0.0
  0
LINE
  8
0
 62
     0
 10
140.681
 20
36.6116
 30
0.0
 11
141.482
 21
36.6116
 31
0.0
  0
LINE
  8
0
 62
     0
 10
141.482
 20
36.6116
 30
0.0
 11
141.482
 21
39.7108
 31
0.0
  0
LINE
  8
0
 62
     0
 10
141.482
 20
39.7108
 30
0.0
 11
140.681
 21
39.7108
 31
0.0
  0
LINE
  8
0
 62
     0
 10
140.681
 20
39.7108
 30
0.0
 11
140.681
 21
40.7113
 31
0.0
  0
LINE
  8
0
 62
     0
 10
140.681
 20
40.7113
 30
0.0
 11
126.682
 21
40.7113
 31
0.0
  0
LINE
  8
0
 62
     0
 10
107.632
 20
40.7113
 30
0.0
 11
107.632
 21
39.7108
 31
0.0
  0
LINE
  8
0
 62
     0
 10
107.632
 20
39.7108
 30
0.0
 11
106.831
 21
39.7108
 31
0.0
  0
LINE
  8
0
 62
     0
 10
106.831
 20
39.7108
 30
0.0
 11
106.831
 21
36.6116
 31
0.0
  0
LINE
  8
0
 62
     0
 10
106.831
 20
36.6116
 30
0.0
 11
107.632
 21
36.6116
 31
0.0
  0
LINE
  8
0
 62
     0
 10
107.632
 20
36.6116
 30
0.0
 11
107.632
 21
30.8115
 31
0.0
  0
LINE
  8
0
 62
     0
 10
107.632
 20
30.8115
 30
0.0
 11
106.831
 21
30.8115
 31
0.0
  0
LINE
  8
0
 62
     0
 10
106.831
 20
30.8115
 30
0.0
 11
106.831
 21
27.711
 31
0.0
  0
LINE
  8
0
 62
     0
 10
106.831
 20
27.711
 30
0.0
 11
107.632
 21
27.711
 31
0.0
  0
LINE
  8
0
 62
     0
 10
107.632
 20
27.711
 30
0.0
 11
107.632
 21
26.7105
 31
0.0
  0
LINE
  8
0
 62
     0
 10
107.632
 20
26.7105
 30
0.0
 11
121.631
 21
26.7105
 31
0.0
  0
LINE
  8
0
 62
     0
 10
121.631
 20
26.7105
 30
0.0
 11
121.631
 21
27.711
 31
0.0
  0
LINE
  8
0
 62
     0
 10
121.631
 20
27.711
 30
0.0
 11
122.432
 21
27.711
 31
0.0
  0
LINE
  8
0
 62
     0
 10
122.432
 20
27.711
 30
0.0
 11
122.432
 21
30.8115
 31
0.0
  0
LINE
  8
0
 62
     0
 10
122.432
 20
30.8115
 30
0.0
 11
121.631
 21
30.8115
 31
0.0
  0
LINE
  8
0
 62
     0
 10
121.631
 20
30.8115
 30
0.0
 11
121.631
 21
36.6116
 31
0.0
  0
LINE
  8
0
 62
     0
 10
121.631
 20
36.6116
 30
0.0
 11
122.432
 21
36.6116
 31
0.0
  0
LINE
  8
0
 62
     0
 10
122.432
 20
36.6116
 30
0.0
 11
122.432
 21
39.7108
 31
0.0
  0
LINE
  8
0
 62
     0
 10
122.432
 20
39.7108
 30
0.0
 11
121.631
 21
39.7108
 31
0.0
  0
LINE
  8
0
 62
     0
 10
121.631
 20
39.7108
 30
0.0
 11
121.631
 21
40.7113
 31
0.0
  0
LINE
  8
0
 62
     0
 10
121.631
 20
40.7113
 30
0.0
 11
107.632
 21
40.7113
 31
0.0
  0
LINE
  8
0
 62
     0
 10
88.5818
 20
40.7113
 30
0.0
 11
88.5818
 21
39.7108
 31
0.0
  0
LINE
  8
0
 62
     0
 10
88.5818
 20
39.7108
 30
0.0
 11
87.781
 21
39.7108
 31
0.0
  0
LINE
  8
0
 62
     0
 10
87.781
 20
39.7108
 30
0.0
 11
87.781
 21
36.6116
 31
0.0
  0
LINE
  8
0
 62
     0
 10
87.781
 20
36.6116
 30
0.0
 11
88.5818
 21
36.6116
 31
0.0
  0
LINE
  8
0
 62
     0
 10
88.5818
 20
36.6116
 30
0.0
 11
88.5818
 21
30.8115
 31
0.0
  0
LINE
  8
0
 62
     0
 10
88.5818
 20
30.8115
 30
0.0
 11
87.781
 21
30.8115
 31
0.0
  0
LINE
  8
0
 62
     0
 10
87.781
 20
30.8115
 30
0.0
 11
87.781
 21
27.711
 31
0.0
  0
LINE
  8
0
 62
     0
 10
87.781
 20
27.711
 30
0.0
 11
88.5818
 21
27.711
 31
0.0
  0
LINE
  8
0
 62
     0
 10
88.5818
 20
27.711
 30
0.0
 11
88.5818
 21
26.7105
 31
0.0
  0
LINE
  8
0
 62
     0
 10
88.5818
 20
26.7105
 30
0.0
 11
102.581
 21
26.7105
 31
0.0
  0
LINE
  8
0
 62
     0
 10
102.581
 20
26.7105
 30
0.0
 11
102.581
 21
27.711
 31
0.0
  0
LINE
  8
0
 62
     0
 10
102.581
 20
27.711
 30
0.0
 11
103.382
 21
27.711
 31
0.0
  0
LINE
  8
0
 62
     0
 10
103.382
 20
27.711
 30
0.0
 11
103.382
 21
30.8115
 31
0.0
  0
LINE
  8
0
 62
     0
 10
103.382
 20
30.8115
 30
0.0
 11
102.581
 21
30.8115
 31
0.0
  0
LINE
  8
0
 62
     0
 10
102.581
 20
30.8115
 30
0.0
 11
102.581
 21
36.6116
 31
0.0
  0
LINE
  8
0
 62
     0
 10
102.581
 20
36.6116
 30
0.0
 11
103.382
 21
36.6116
 31
0.0
  0
LINE
  8
0
 62
     0
 10
103.382
 20
36.6116
 30
0.0
 11
103.382
 21
39.7108
 31
0.0
  0
LINE
  8
0
 62
     0
 10
103.382
 20
39.7108
 30
0.0
 11
102.581
 21
39.7108
 31
0.0
  0
LINE
  8
0
 62
     0
 10
102.581
 20
39.7108
 30
0.0
 11
102.581
 21
40.7113
 31
0.0
  0
LINE
  8
0
 62
     0
 10
102.581
 20
40.7113
 30
0.0
 11
88.5818
 21
40.7113
 31
0.0
  0
LINE
  8
0
 62
     0
 10
69.5318
 20
40.7113
 30
0.0
 11
69.5318
 21
39.7108
 31
0.0
  0
LINE
  8
0
 62
     0
 10
69.5318
 20
39.7108
 30
0.0
 11
68.731
 21
39.7108
 31
0.0
  0
LINE
  8
0
 62
     0
 10
68.731
 20
39.7108
 30
0.0
 11
68.731
 21
36.6116
 31
0.0
  0
LINE
  8
0
 62
     0
 10
68.731
 20
36.6116
 30
0.0
 11
69.5318
 21
36.6116
 31
0.0
  0
LINE
  8
0
 62
     0
 10
69.5318
 20
36.6116
 30
0.0
 11
69.5318
 21
30.8115
 31
0.0
  0
LINE
  8
0
 62
     0
 10
69.5318
 20
30.8115
 30
0.0
 11
68.731
 21
30.8115
 31
0.0
  0
LINE
  8
0
 62
     0
 10
68.731
 20
30.8115
 30
0.0
 11
68.731
 21
27.711
 31
0.0
  0
LINE
  8
0
 62
     0
 10
68.731
 20
27.711
 30
0.0
 11
69.5318
 21
27.711
 31
0.0
  0
LINE
  8
0
 62
     0
 10
69.5318
 20
27.711
 30
0.0
 11
69.5318
 21
26.7105
 31
0.0
  0
LINE
  8
0
 62
     0
 10
69.5318
 20
26.7105
 30
0.0
 11
83.5311
 21
26.7105
 31
0.0
  0
LINE
  8
0
 62
     0
 10
83.5311
 20
26.7105
 30
0.0
 11
83.5311
 21
27.711
 31
0.0
  0
LINE
  8
0
 62
     0
 10
83.5311
 20
27.711
 30
0.0
 11
84.3319
 21
27.711
 31
0.0
  0
LINE
  8
0
 62
     0
 10
84.3319
 20
27.711
 30
0.0
 11
84.3319
 21
30.8115
 31
0.0
  0
LINE
  8
0
 62
     0
 10
84.3319
 20
30.8115
 30
0.0
 11
83.5311
 21
30.8115
 31
0.0
  0
LINE
  8
0
 62
     0
 10
83.5311
 20
30.8115
 30
0.0
 11
83.5311
 21
36.6116
 31
0.0
  0
LINE
  8
0
 62
     0
 10
83.5311
 20
36.6116
 30
0.0
 11
84.3319
 21
36.6116
 31
0.0
  0
LINE
  8
0
 62
     0
 10
84.3319
 20
36.6116
 30
0.0
 11
84.3319
 21
39.7108
 31
0.0
  0
LINE
  8
0
 62
     0
 10
84.3319
 20
39.7108
 30
0.0
 11
83.5311
 21
39.7108
 31
0.0
  0
LINE
  8
0
 62
     0
 10
83.5311
 20
39.7108
 30
0.0
 11
83.5311
 21
40.7113
 31
0.0
  0
LINE
  8
0
 62
     0
 10
83.5311
 20
40.7113
 30
0.0
 11
69.5318
 21
40.7113
 31
0.0
  0
LINE
  8
0
 62
     0
 10
50.4818
 20
40.7113
 30
0.0
 11
50.4818
 21
39.7108
 31
0.0
  0
LINE
  8
0
 62
     0
 10
50.4818
 20
39.7108
 30
0.0
 11
49.681
 21
39.7108
 31
0.0
  0
LINE
  8
0
 62
     0
 10
49.681
 20
39.7108
 30
0.0
 11
49.681
 21
36.6116
 31
0.0
  0
LINE
  8
0
 62
     0
 10
49.681
 20
36.6116
 30
0.0
 11
50.4818
 21
36.6116
 31
0.0
  0
LINE
  8
0
 62
     0
 10
50.4818
 20
36.6116
 30
0.0
 11
50.4818
 21
30.8115
 31
0.0
  0
LINE
  8
0
 62
     0
 10
50.4818
 20
30.8115
 30
0.0
 11
49.681
 21
30.8115
 31
0.0
  0
LINE
  8
0
 62
     0
 10
49.681
 20
30.8115
 30
0.0
 11
49.681
 21
27.711
 31
0.0
  0
LINE
  8
0
 62
     0
 10
49.681
 20
27.711
 30
0.0
 11
50.4818
 21
27.711
 31
0.0
  0
LINE
  8
0
 62
     0
 10
50.4818
 20
27.711
 30
0.0
 11
50.4818
 21
26.7105
 31
0.0
  0
LINE
  8
0
 62
     0
 10
50.4818
 20
26.7105
 30
0.0
 11
64.4811
 21
26.7105
 31
0.0
  0
LINE
  8
0
 62
     0
 10
64.4811
 20
26.7105
 30
0.0
 11
64.4811
 21
27.711
 31
0.0
  0
LINE
  8
0
 62
     0
 10
64.4811
 20
27.711
 30
0.0
 11
65.2819
 21
27.711
 31
0.0
  0
LINE
  8
0
 62
     0
 10
65.2819
 20
27.711
 30
0.0
 11
65.2819
 21
30.8115
 31
0.0
  0
LINE
  8
0
 62
     0
 10
65.2819
 20
30.8115
 30
0.0
 11
64.4811
 21
30.8115
 31
0.0
  0
LINE
  8
0
 62
     0
 10
64.4811
 20
30.8115
 30
0.0
 11
64.4811
 21
36.6116
 31
0.0
  0
LINE
  8
0
 62
     0
 10
64.4811
 20
36.6116
 30
0.0
 11
65.2819
 21
36.6116
 31
0.0
  0
LINE
  8
0
 62
     0
 10
65.2819
 20
36.6116
 30
0.0
 11
65.2819
 21
39.7108
 31
0.0
  0
LINE
  8
0
 62
     0
 10
65.2819
 20
39.7108
 30
0.0
 11
64.4811
 21
39.7108
 31
0.0
  0
LINE
  8
0
 62
     0
 10
64.4811
 20
39.7108
 30
0.0
 11
64.4811
 21
40.7113
 31
0.0
  0
LINE
  8
0
 62
     0
 10
64.4811
 20
40.7113
 30
0.0
 11
50.4818
 21
40.7113
 31
0.0
  0
LINE
  8
0
 62
     0
 10
321.944
 20
45.4738
 30
0.0
 11
321.944
 21
44.4733
 31
0.0
  0
LINE
  8
0
 62
     0
 10
321.944
 20
44.4733
 30
0.0
 11
321.143
 21
44.4733
 31
0.0
  0
LINE
  8
0
 62
     0
 10
321.143
 20
44.4733
 30
0.0
 11
321.143
 21
41.3741
 31
0.0
  0
LINE
  8
0
 62
     0
 10
321.143
 20
41.3741
 30
0.0
 11
321.944
 21
41.3741
 31
0.0
  0
LINE
  8
0
 62
     0
 10
321.944
 20
41.3741
 30
0.0
 11
321.944
 21
35.5741
 31
0.0
  0
LINE
  8
0
 62
     0
 10
321.944
 20
35.5741
 30
0.0
 11
321.143
 21
35.5741
 31
0.0
  0
LINE
  8
0
 62
     0
 10
321.143
 20
35.5741
 30
0.0
 11
321.143
 21
32.4735
 31
0.0
  0
LINE
  8
0
 62
     0
 10
321.143
 20
32.4735
 30
0.0
 11
321.944
 21
32.4735
 31
0.0
  0
LINE
  8
0
 62
     0
 10
321.944
 20
32.4735
 30
0.0
 11
321.944
 21
31.4744
 31
0.0
  0
LINE
  8
0
 62
     0
 10
321.944
 20
31.4744
 30
0.0
 11
335.944
 21
31.4744
 31
0.0
  0
LINE
  8
0
 62
     0
 10
335.944
 20
31.4744
 30
0.0
 11
335.944
 21
32.4735
 31
0.0
  0
LINE
  8
0
 62
     0
 10
335.944
 20
32.4735
 30
0.0
 11
336.744
 21
32.4735
 31
0.0
  0
LINE
  8
0
 62
     0
 10
336.744
 20
32.4735
 30
0.0
 11
336.744
 21
35.5741
 31
0.0
  0
LINE
  8
0
 62
     0
 10
336.744
 20
35.5741
 30
0.0
 11
335.944
 21
35.5741
 31
0.0
  0
LINE
  8
0
 62
     0
 10
335.944
 20
35.5741
 30
0.0
 11
335.944
 21
41.3741
 31
0.0
  0
LINE
  8
0
 62
     0
 10
335.944
 20
41.3741
 30
0.0
 11
336.744
 21
41.3741
 31
0.0
  0
LINE
  8
0
 62
     0
 10
336.744
 20
41.3741
 30
0.0
 11
336.744
 21
44.4733
 31
0.0
  0
LINE
  8
0
 62
     0
 10
336.744
 20
44.4733
 30
0.0
 11
335.944
 21
44.4733
 31
0.0
  0
LINE
  8
0
 62
     0
 10
335.944
 20
44.4733
 30
0.0
 11
335.944
 21
45.4738
 31
0.0
  0
LINE
  8
0
 62
     0
 10
335.944
 20
45.4738
 30
0.0
 11
321.944
 21
45.4738
 31
0.0
  0
LINE
  8
0
 62
     0
 10
262.413
 20
59.7613
 30
0.0
 11
262.413
 21
58.7608
 31
0.0
  0
LINE
  8
0
 62
     0
 10
262.413
 20
58.7608
 30
0.0
 11
261.612
 21
58.7608
 31
0.0
  0
LINE
  8
0
 62
     0
 10
261.612
 20
58.7608
 30
0.0
 11
261.612
 21
55.6616
 31
0.0
  0
LINE
  8
0
 62
     0
 10
261.612
 20
55.6616
 30
0.0
 11
262.413
 21
55.6616
 31
0.0
  0
LINE
  8
0
 62
     0
 10
262.413
 20
55.6616
 30
0.0
 11
262.413
 21
55.0609
 31
0.0
  0
LINE
  8
0
 62
     0
 10
262.413
 20
55.0609
 30
0.0
 11
260.887
 21
55.0609
 31
0.0
  0
LINE
  8
0
 62
     0
 10
260.887
 20
55.0609
 30
0.0
 11
260.887
 21
58.2909
 31
0.0
  0
LINE
  8
0
 62
     0
 10
260.887
 20
58.2909
 30
0.0
 11
259.162
 21
58.2909
 31
0.0
  0
LINE
  8
0
 62
     0
 10
259.162
 20
58.2909
 30
0.0
 11
259.162
 21
59.2116
 31
0.0
  0
LINE
  8
0
 62
     0
 10
259.162
 20
59.2116
 30
0.0
 11
255.862
 21
59.2116
 31
0.0
  0
LINE
  8
0
 62
     0
 10
255.862
 20
59.2116
 30
0.0
 11
255.862
 21
58.2909
 31
0.0
  0
LINE
  8
0
 62
     0
 10
255.862
 20
58.2909
 30
0.0
 11
254.138
 21
58.2909
 31
0.0
  0
LINE
  8
0
 62
     0
 10
254.138
 20
58.2909
 30
0.0
 11
254.138
 21
55.0609
 31
0.0
  0
LINE
  8
0
 62
     0
 10
254.138
 20
55.0609
 30
0.0
 11
253.312
 21
55.0609
 31
0.0
  0
LINE
  8
0
 62
     0
 10
253.312
 20
55.0609
 30
0.0
 11
253.312
 21
52.2609
 31
0.0
  0
LINE
  8
0
 62
     0
 10
253.312
 20
52.2609
 30
0.0
 11
254.138
 21
52.2609
 31
0.0
  0
LINE
  8
0
 62
     0
 10
254.138
 20
52.2609
 30
0.0
 11
254.138
 21
45.9906
 31
0.0
  0
LINE
  8
0
 62
     0
 10
254.138
 20
45.9906
 30
0.0
 11
255.862
 21
45.9906
 31
0.0
  0
LINE
  8
0
 62
     0
 10
255.862
 20
45.9906
 30
0.0
 11
255.862
 21
45.0109
 31
0.0
  0
LINE
  8
0
 62
     0
 10
255.862
 20
45.0109
 30
0.0
 11
259.162
 21
45.0109
 31
0.0
  0
LINE
  8
0
 62
     0
 10
259.162
 20
45.0109
 30
0.0
 11
259.162
 21
45.9906
 31
0.0
  0
LINE
  8
0
 62
     0
 10
259.162
 20
45.9906
 30
0.0
 11
260.887
 21
45.9906
 31
0.0
  0
LINE
  8
0
 62
     0
 10
260.887
 20
45.9906
 30
0.0
 11
260.887
 21
50.461
 31
0.0
  0
LINE
  8
0
 62
     0
 10
260.887
 20
50.461
 30
0.0
 11
262.413
 21
50.461
 31
0.0
  0
LINE
  8
0
 62
     0
 10
262.413
 20
50.461
 30
0.0
 11
262.413
 21
49.8616
 31
0.0
  0
LINE
  8
0
 62
     0
 10
262.413
 20
49.8616
 30
0.0
 11
261.612
 21
49.8616
 31
0.0
  0
LINE
  8
0
 62
     0
 10
261.612
 20
49.8616
 30
0.0
 11
261.612
 21
46.761
 31
0.0
  0
LINE
  8
0
 62
     0
 10
261.612
 20
46.761
 30
0.0
 11
262.413
 21
46.761
 31
0.0
  0
LINE
  8
0
 62
     0
 10
262.413
 20
46.761
 30
0.0
 11
262.413
 21
45.7606
 31
0.0
  0
LINE
  8
0
 62
     0
 10
262.413
 20
45.7606
 30
0.0
 11
276.412
 21
45.7606
 31
0.0
  0
LINE
  8
0
 62
     0
 10
276.412
 20
45.7606
 30
0.0
 11
276.412
 21
46.761
 31
0.0
  0
LINE
  8
0
 62
     0
 10
276.412
 20
46.761
 30
0.0
 11
277.213
 21
46.761
 31
0.0
  0
LINE
  8
0
 62
     0
 10
277.213
 20
46.761
 30
0.0
 11
277.213
 21
49.8616
 31
0.0
  0
LINE
  8
0
 62
     0
 10
277.213
 20
49.8616
 30
0.0
 11
276.412
 21
49.8616
 31
0.0
  0
LINE
  8
0
 62
     0
 10
276.412
 20
49.8616
 30
0.0
 11
276.412
 21
50.461
 31
0.0
  0
LINE
  8
0
 62
     0
 10
276.412
 20
50.461
 30
0.0
 11
277.938
 21
50.461
 31
0.0
  0
LINE
  8
0
 62
     0
 10
277.938
 20
50.461
 30
0.0
 11
277.938
 21
45.9906
 31
0.0
  0
LINE
  8
0
 62
     0
 10
277.938
 20
45.9906
 30
0.0
 11
279.662
 21
45.9906
 31
0.0
  0
LINE
  8
0
 62
     0
 10
279.662
 20
45.9906
 30
0.0
 11
279.662
 21
45.0109
 31
0.0
  0
LINE
  8
0
 62
     0
 10
279.662
 20
45.0109
 30
0.0
 11
282.962
 21
45.0109
 31
0.0
  0
LINE
  8
0
 62
     0
 10
282.962
 20
45.0109
 30
0.0
 11
282.962
 21
45.9906
 31
0.0
  0
LINE
  8
0
 62
     0
 10
282.962
 20
45.9906
 30
0.0
 11
284.687
 21
45.9906
 31
0.0
  0
LINE
  8
0
 62
     0
 10
284.687
 20
45.9906
 30
0.0
 11
284.687
 21
52.2609
 31
0.0
  0
LINE
  8
0
 62
     0
 10
284.687
 20
52.2609
 30
0.0
 11
285.513
 21
52.2609
 31
0.0
  0
LINE
  8
0
 62
     0
 10
285.513
 20
52.2609
 30
0.0
 11
285.513
 21
55.0609
 31
0.0
  0
LINE
  8
0
 62
     0
 10
285.513
 20
55.0609
 30
0.0
 11
284.687
 21
55.0609
 31
0.0
  0
LINE
  8
0
 62
     0
 10
284.687
 20
55.0609
 30
0.0
 11
284.687
 21
58.2909
 31
0.0
  0
LINE
  8
0
 62
     0
 10
284.687
 20
58.2909
 30
0.0
 11
282.962
 21
58.2909
 31
0.0
  0
LINE
  8
0
 62
     0
 10
282.962
 20
58.2909
 30
0.0
 11
282.962
 21
59.2116
 31
0.0
  0
LINE
  8
0
 62
     0
 10
282.962
 20
59.2116
 30
0.0
 11
279.662
 21
59.2116
 31
0.0
  0
LINE
  8
0
 62
     0
 10
279.662
 20
59.2116
 30
0.0
 11
279.662
 21
58.2909
 31
0.0
  0
LINE
  8
0
 62
     0
 10
279.662
 20
58.2909
 30
0.0
 11
277.938
 21
58.2909
 31
0.0
  0
LINE
  8
0
 62
     0
 10
277.938
 20
58.2909
 30
0.0
 11
277.938
 21
55.0609
 31
0.0
  0
LINE
  8
0
 62
     0
 10
277.938
 20
55.0609
 30
0.0
 11
276.412
 21
55.0609
 31
0.0
  0
LINE
  8
0
 62
     0
 10
276.412
 20
55.0609
 30
0.0
 11
276.412
 21
55.6616
 31
0.0
  0
LINE
  8
0
 62
     0
 10
276.412
 20
55.6616
 30
0.0
 11
277.213
 21
55.6616
 31
0.0
  0
LINE
  8
0
 62
     0
 10
277.213
 20
55.6616
 30
0.0
 11
277.213
 21
58.7608
 31
0.0
  0
LINE
  8
0
 62
     0
 10
277.213
 20
58.7608
 30
0.0
 11
276.412
 21
58.7608
 31
0.0
  0
LINE
  8
0
 62
     0
 10
276.412
 20
58.7608
 30
0.0
 11
276.412
 21
59.7613
 31
0.0
  0
LINE
  8
0
 62
     0
 10
276.412
 20
59.7613
 30
0.0
 11
262.413
 21
59.7613
 31
0.0
  0
LINE
  8
0
 62
     0
 10
231.457
 20
59.7613
 30
0.0
 11
231.457
 21
58.7608
 31
0.0
  0
LINE
  8
0
 62
     0
 10
231.457
 20
58.7608
 30
0.0
 11
230.656
 21
58.7608
 31
0.0
  0
LINE
  8
0
 62
     0
 10
230.656
 20
58.7608
 30
0.0
 11
230.656
 21
55.6616
 31
0.0
  0
LINE
  8
0
 62
     0
 10
230.656
 20
55.6616
 30
0.0
 11
231.457
 21
55.6616
 31
0.0
  0
LINE
  8
0
 62
     0
 10
231.457
 20
55.6616
 30
0.0
 11
231.457
 21
49.8616
 31
0.0
  0
LINE
  8
0
 62
     0
 10
231.457
 20
49.8616
 30
0.0
 11
230.656
 21
49.8616
 31
0.0
  0
LINE
  8
0
 62
     0
 10
230.656
 20
49.8616
 30
0.0
 11
230.656
 21
46.761
 31
0.0
  0
LINE
  8
0
 62
     0
 10
230.656
 20
46.761
 30
0.0
 11
231.457
 21
46.761
 31
0.0
  0
LINE
  8
0
 62
     0
 10
231.457
 20
46.761
 30
0.0
 11
231.457
 21
45.7606
 31
0.0
  0
LINE
  8
0
 62
     0
 10
231.457
 20
45.7606
 30
0.0
 11
245.456
 21
45.7606
 31
0.0
  0
LINE
  8
0
 62
     0
 10
245.456
 20
45.7606
 30
0.0
 11
245.456
 21
46.761
 31
0.0
  0
LINE
  8
0
 62
     0
 10
245.456
 20
46.761
 30
0.0
 11
246.257
 21
46.761
 31
0.0
  0
LINE
  8
0
 62
     0
 10
246.257
 20
46.761
 30
0.0
 11
246.257
 21
49.8616
 31
0.0
  0
LINE
  8
0
 62
     0
 10
246.257
 20
49.8616
 30
0.0
 11
245.456
 21
49.8616
 31
0.0
  0
LINE
  8
0
 62
     0
 10
245.456
 20
49.8616
 30
0.0
 11
245.456
 21
55.6616
 31
0.0
  0
LINE
  8
0
 62
     0
 10
245.456
 20
55.6616
 30
0.0
 11
246.257
 21
55.6616
 31
0.0
  0
LINE
  8
0
 62
     0
 10
246.257
 20
55.6616
 30
0.0
 11
246.257
 21
58.7608
 31
0.0
  0
LINE
  8
0
 62
     0
 10
246.257
 20
58.7608
 30
0.0
 11
245.456
 21
58.7608
 31
0.0
  0
LINE
  8
0
 62
     0
 10
245.456
 20
58.7608
 30
0.0
 11
245.456
 21
59.7613
 31
0.0
  0
LINE
  8
0
 62
     0
 10
245.456
 20
59.7613
 30
0.0
 11
231.457
 21
59.7613
 31
0.0
  0
LINE
  8
0
 62
     0
 10
212.407
 20
59.7613
 30
0.0
 11
212.407
 21
58.7608
 31
0.0
  0
LINE
  8
0
 62
     0
 10
212.407
 20
58.7608
 30
0.0
 11
211.606
 21
58.7608
 31
0.0
  0
LINE
  8
0
 62
     0
 10
211.606
 20
58.7608
 30
0.0
 11
211.606
 21
55.6616
 31
0.0
  0
LINE
  8
0
 62
     0
 10
211.606
 20
55.6616
 30
0.0
 11
212.407
 21
55.6616
 31
0.0
  0
LINE
  8
0
 62
     0
 10
212.407
 20
55.6616
 30
0.0
 11
212.407
 21
49.8616
 31
0.0
  0
LINE
  8
0
 62
     0
 10
212.407
 20
49.8616
 30
0.0
 11
211.606
 21
49.8616
 31
0.0
  0
LINE
  8
0
 62
     0
 10
211.606
 20
49.8616
 30
0.0
 11
211.606
 21
46.761
 31
0.0
  0
LINE
  8
0
 62
     0
 10
211.606
 20
46.761
 30
0.0
 11
212.407
 21
46.761
 31
0.0
  0
LINE
  8
0
 62
     0
 10
212.407
 20
46.761
 30
0.0
 11
212.407
 21
45.7606
 31
0.0
  0
LINE
  8
0
 62
     0
 10
212.407
 20
45.7606
 30
0.0
 11
226.406
 21
45.7606
 31
0.0
  0
LINE
  8
0
 62
     0
 10
226.406
 20
45.7606
 30
0.0
 11
226.406
 21
46.761
 31
0.0
  0
LINE
  8
0
 62
     0
 10
226.406
 20
46.761
 30
0.0
 11
227.207
 21
46.761
 31
0.0
  0
LINE
  8
0
 62
     0
 10
227.207
 20
46.761
 30
0.0
 11
227.207
 21
49.8616
 31
0.0
  0
LINE
  8
0
 62
     0
 10
227.207
 20
49.8616
 30
0.0
 11
226.406
 21
49.8616
 31
0.0
  0
LINE
  8
0
 62
     0
 10
226.406
 20
49.8616
 30
0.0
 11
226.406
 21
55.6616
 31
0.0
  0
LINE
  8
0
 62
     0
 10
226.406
 20
55.6616
 30
0.0
 11
227.207
 21
55.6616
 31
0.0
  0
LINE
  8
0
 62
     0
 10
227.207
 20
55.6616
 30
0.0
 11
227.207
 21
58.7608
 31
0.0
  0
LINE
  8
0
 62
     0
 10
227.207
 20
58.7608
 30
0.0
 11
226.406
 21
58.7608
 31
0.0
  0
LINE
  8
0
 62
     0
 10
226.406
 20
58.7608
 30
0.0
 11
226.406
 21
59.7613
 31
0.0
  0
LINE
  8
0
 62
     0
 10
226.406
 20
59.7613
 30
0.0
 11
212.407
 21
59.7613
 31
0.0
  0
LINE
  8
0
 62
     0
 10
193.357
 20
59.7613
 30
0.0
 11
193.357
 21
58.7608
 31
0.0
  0
LINE
  8
0
 62
     0
 10
193.357
 20
58.7608
 30
0.0
 11
192.556
 21
58.7608
 31
0.0
  0
LINE
  8
0
 62
     0
 10
192.556
 20
58.7608
 30
0.0
 11
192.556
 21
55.6616
 31
0.0
  0
LINE
  8
0
 62
     0
 10
192.556
 20
55.6616
 30
0.0
 11
193.357
 21
55.6616
 31
0.0
  0
LINE
  8
0
 62
     0
 10
193.357
 20
55.6616
 30
0.0
 11
193.357
 21
49.8616
 31
0.0
  0
LINE
  8
0
 62
     0
 10
193.357
 20
49.8616
 30
0.0
 11
192.556
 21
49.8616
 31
0.0
  0
LINE
  8
0
 62
     0
 10
192.556
 20
49.8616
 30
0.0
 11
192.556
 21
46.761
 31
0.0
  0
LINE
  8
0
 62
     0
 10
192.556
 20
46.761
 30
0.0
 11
193.357
 21
46.761
 31
0.0
  0
LINE
  8
0
 62
     0
 10
193.357
 20
46.761
 30
0.0
 11
193.357
 21
45.7606
 31
0.0
  0
LINE
  8
0
 62
     0
 10
193.357
 20
45.7606
 30
0.0
 11
207.356
 21
45.7606
 31
0.0
  0
LINE
  8
0
 62
     0
 10
207.356
 20
45.7606
 30
0.0
 11
207.356
 21
46.761
 31
0.0
  0
LINE
  8
0
 62
     0
 10
207.356
 20
46.761
 30
0.0
 11
208.157
 21
46.761
 31
0.0
  0
LINE
  8
0
 62
     0
 10
208.157
 20
46.761
 30
0.0
 11
208.157
 21
49.8616
 31
0.0
  0
LINE
  8
0
 62
     0
 10
208.157
 20
49.8616
 30
0.0
 11
207.356
 21
49.8616
 31
0.0
  0
LINE
  8
0
 62
     0
 10
207.356
 20
49.8616
 30
0.0
 11
207.356
 21
55.6616
 31
0.0
  0
LINE
  8
0
 62
     0
 10
207.356
 20
55.6616
 30
0.0
 11
208.157
 21
55.6616
 31
0.0
  0
LINE
  8
0
 62
     0
 10
208.157
 20
55.6616
 30
0.0
 11
208.157
 21
58.7608
 31
0.0
  0
LINE
  8
0
 62
     0
 10
208.157
 20
58.7608
 30
0.0
 11
207.356
 21
58.7608
 31
0.0
  0
LINE
  8
0
 62
     0
 10
207.356
 20
58.7608
 30
0.0
 11
207.356
 21
59.7613
 31
0.0
  0
LINE
  8
0
 62
     0
 10
207.356
 20
59.7613
 30
0.0
 11
193.357
 21
59.7613
 31
0.0
  0
LINE
  8
0
 62
     0
 10
174.307
 20
59.7613
 30
0.0
 11
174.307
 21
58.7608
 31
0.0
  0
LINE
  8
0
 62
     0
 10
174.307
 20
58.7608
 30
0.0
 11
173.506
 21
58.7608
 31
0.0
  0
LINE
  8
0
 62
     0
 10
173.506
 20
58.7608
 30
0.0
 11
173.506
 21
55.6616
 31
0.0
  0
LINE
  8
0
 62
     0
 10
173.506
 20
55.6616
 30
0.0
 11
174.307
 21
55.6616
 31
0.0
  0
LINE
  8
0
 62
     0
 10
174.307
 20
55.6616
 30
0.0
 11
174.307
 21
49.8616
 31
0.0
  0
LINE
  8
0
 62
     0
 10
174.307
 20
49.8616
 30
0.0
 11
173.506
 21
49.8616
 31
0.0
  0
LINE
  8
0
 62
     0
 10
173.506
 20
49.8616
 30
0.0
 11
173.506
 21
46.761
 31
0.0
  0
LINE
  8
0
 62
     0
 10
173.506
 20
46.761
 30
0.0
 11
174.307
 21
46.761
 31
0.0
  0
LINE
  8
0
 62
     0
 10
174.307
 20
46.761
 30
0.0
 11
174.307
 21
45.7606
 31
0.0
  0
LINE
  8
0
 62
     0
 10
174.307
 20
45.7606
 30
0.0
 11
188.306
 21
45.7606
 31
0.0
  0
LINE
  8
0
 62
     0
 10
188.306
 20
45.7606
 30
0.0
 11
188.306
 21
46.761
 31
0.0
  0
LINE
  8
0
 62
     0
 10
188.306
 20
46.761
 30
0.0
 11
189.107
 21
46.761
 31
0.0
  0
LINE
  8
0
 62
     0
 10
189.107
 20
46.761
 30
0.0
 11
189.107
 21
49.8616
 31
0.0
  0
LINE
  8
0
 62
     0
 10
189.107
 20
49.8616
 30
0.0
 11
188.306
 21
49.8616
 31
0.0
  0
LINE
  8
0
 62
     0
 10
188.306
 20
49.8616
 30
0.0
 11
188.306
 21
55.6616
 31
0.0
  0
LINE
  8
0
 62
     0
 10
188.306
 20
55.6616
 30
0.0
 11
189.107
 21
55.6616
 31
0.0
  0
LINE
  8
0
 62
     0
 10
189.107
 20
55.6616
 30
0.0
 11
189.107
 21
58.7608
 31
0.0
  0
LINE
  8
0
 62
     0
 10
189.107
 20
58.7608
 30
0.0
 11
188.306
 21
58.7608
 31
0.0
  0
LINE
  8
0
 62
     0
 10
188.306
 20
58.7608
 30
0.0
 11
188.306
 21
59.7613
 31
0.0
  0
LINE
  8
0
 62
     0
 10
188.306
 20
59.7613
 30
0.0
 11
174.307
 21
59.7613
 31
0.0
  0
LINE
  8
0
 62
     0
 10
155.257
 20
59.7613
 30
0.0
 11
155.257
 21
58.7608
 31
0.0
  0
LINE
  8
0
 62
     0
 10
155.257
 20
58.7608
 30
0.0
 11
154.456
 21
58.7608
 31
0.0
  0
LINE
  8
0
 62
     0
 10
154.456
 20
58.7608
 30
0.0
 11
154.456
 21
55.6616
 31
0.0
  0
LINE
  8
0
 62
     0
 10
154.456
 20
55.6616
 30
0.0
 11
155.257
 21
55.6616
 31
0.0
  0
LINE
  8
0
 62
     0
 10
155.257
 20
55.6616
 30
0.0
 11
155.257
 21
49.8616
 31
0.0
  0
LINE
  8
0
 62
     0
 10
155.257
 20
49.8616
 30
0.0
 11
154.456
 21
49.8616
 31
0.0
  0
LINE
  8
0
 62
     0
 10
154.456
 20
49.8616
 30
0.0
 11
154.456
 21
46.761
 31
0.0
  0
LINE
  8
0
 62
     0
 10
154.456
 20
46.761
 30
0.0
 11
155.257
 21
46.761
 31
0.0
  0
LINE
  8
0
 62
     0
 10
155.257
 20
46.761
 30
0.0
 11
155.257
 21
45.7606
 31
0.0
  0
LINE
  8
0
 62
     0
 10
155.257
 20
45.7606
 30
0.0
 11
169.256
 21
45.7606
 31
0.0
  0
LINE
  8
0
 62
     0
 10
169.256
 20
45.7606
 30
0.0
 11
169.256
 21
46.761
 31
0.0
  0
LINE
  8
0
 62
     0
 10
169.256
 20
46.761
 30
0.0
 11
170.057
 21
46.761
 31
0.0
  0
LINE
  8
0
 62
     0
 10
170.057
 20
46.761
 30
0.0
 11
170.057
 21
49.8616
 31
0.0
  0
LINE
  8
0
 62
     0
 10
170.057
 20
49.8616
 30
0.0
 11
169.256
 21
49.8616
 31
0.0
  0
LINE
  8
0
 62
     0
 10
169.256
 20
49.8616
 30
0.0
 11
169.256
 21
55.6616
 31
0.0
  0
LINE
  8
0
 62
     0
 10
169.256
 20
55.6616
 30
0.0
 11
170.057
 21
55.6616
 31
0.0
  0
LINE
  8
0
 62
     0
 10
170.057
 20
55.6616
 30
0.0
 11
170.057
 21
58.7608
 31
0.0
  0
LINE
  8
0
 62
     0
 10
170.057
 20
58.7608
 30
0.0
 11
169.256
 21
58.7608
 31
0.0
  0
LINE
  8
0
 62
     0
 10
169.256
 20
58.7608
 30
0.0
 11
169.256
 21
59.7613
 31
0.0
  0
LINE
  8
0
 62
     0
 10
169.256
 20
59.7613
 30
0.0
 11
155.257
 21
59.7613
 31
0.0
  0
LINE
  8
0
 62
     0
 10
136.207
 20
59.7613
 30
0.0
 11
136.207
 21
58.7608
 31
0.0
  0
LINE
  8
0
 62
     0
 10
136.207
 20
58.7608
 30
0.0
 11
135.406
 21
58.7608
 31
0.0
  0
LINE
  8
0
 62
     0
 10
135.406
 20
58.7608
 30
0.0
 11
135.406
 21
55.6616
 31
0.0
  0
LINE
  8
0
 62
     0
 10
135.406
 20
55.6616
 30
0.0
 11
136.207
 21
55.6616
 31
0.0
  0
LINE
  8
0
 62
     0
 10
136.207
 20
55.6616
 30
0.0
 11
136.207
 21
49.8616
 31
0.0
  0
LINE
  8
0
 62
     0
 10
136.207
 20
49.8616
 30
0.0
 11
135.406
 21
49.8616
 31
0.0
  0
LINE
  8
0
 62
     0
 10
135.406
 20
49.8616
 30
0.0
 11
135.406
 21
46.761
 31
0.0
  0
LINE
  8
0
 62
     0
 10
135.406
 20
46.761
 30
0.0
 11
136.207
 21
46.761
 31
0.0
  0
LINE
  8
0
 62
     0
 10
136.207
 20
46.761
 30
0.0
 11
136.207
 21
45.7606
 31
0.0
  0
LINE
  8
0
 62
     0
 10
136.207
 20
45.7606
 30
0.0
 11
150.206
 21
45.7606
 31
0.0
  0
LINE
  8
0
 62
     0
 10
150.206
 20
45.7606
 30
0.0
 11
150.206
 21
46.761
 31
0.0
  0
LINE
  8
0
 62
     0
 10
150.206
 20
46.761
 30
0.0
 11
151.007
 21
46.761
 31
0.0
  0
LINE
  8
0
 62
     0
 10
151.007
 20
46.761
 30
0.0
 11
151.007
 21
49.8616
 31
0.0
  0
LINE
  8
0
 62
     0
 10
151.007
 20
49.8616
 30
0.0
 11
150.206
 21
49.8616
 31
0.0
  0
LINE
  8
0
 62
     0
 10
150.206
 20
49.8616
 30
0.0
 11
150.206
 21
55.6616
 31
0.0
  0
LINE
  8
0
 62
     0
 10
150.206
 20
55.6616
 30
0.0
 11
151.007
 21
55.6616
 31
0.0
  0
LINE
  8
0
 62
     0
 10
151.007
 20
55.6616
 30
0.0
 11
151.007
 21
58.7608
 31
0.0
  0
LINE
  8
0
 62
     0
 10
151.007
 20
58.7608
 30
0.0
 11
150.206
 21
58.7608
 31
0.0
  0
LINE
  8
0
 62
     0
 10
150.206
 20
58.7608
 30
0.0
 11
150.206
 21
59.7613
 31
0.0
  0
LINE
  8
0
 62
     0
 10
150.206
 20
59.7613
 30
0.0
 11
136.207
 21
59.7613
 31
0.0
  0
LINE
  8
0
 62
     0
 10
117.157
 20
59.7613
 30
0.0
 11
117.157
 21
58.7608
 31
0.0
  0
LINE
  8
0
 62
     0
 10
117.157
 20
58.7608
 30
0.0
 11
116.356
 21
58.7608
 31
0.0
  0
LINE
  8
0
 62
     0
 10
116.356
 20
58.7608
 30
0.0
 11
116.356
 21
55.6616
 31
0.0
  0
LINE
  8
0
 62
     0
 10
116.356
 20
55.6616
 30
0.0
 11
117.157
 21
55.6616
 31
0.0
  0
LINE
  8
0
 62
     0
 10
117.157
 20
55.6616
 30
0.0
 11
117.157
 21
49.8616
 31
0.0
  0
LINE
  8
0
 62
     0
 10
117.157
 20
49.8616
 30
0.0
 11
116.356
 21
49.8616
 31
0.0
  0
LINE
  8
0
 62
     0
 10
116.356
 20
49.8616
 30
0.0
 11
116.356
 21
46.761
 31
0.0
  0
LINE
  8
0
 62
     0
 10
116.356
 20
46.761
 30
0.0
 11
117.157
 21
46.761
 31
0.0
  0
LINE
  8
0
 62
     0
 10
117.157
 20
46.761
 30
0.0
 11
117.157
 21
45.7606
 31
0.0
  0
LINE
  8
0
 62
     0
 10
117.157
 20
45.7606
 30
0.0
 11
131.156
 21
45.7606
 31
0.0
  0
LINE
  8
0
 62
     0
 10
131.156
 20
45.7606
 30
0.0
 11
131.156
 21
46.761
 31
0.0
  0
LINE
  8
0
 62
     0
 10
131.156
 20
46.761
 30
0.0
 11
131.957
 21
46.761
 31
0.0
  0
LINE
  8
0
 62
     0
 10
131.957
 20
46.761
 30
0.0
 11
131.957
 21
49.8616
 31
0.0
  0
LINE
  8
0
 62
     0
 10
131.957
 20
49.8616
 30
0.0
 11
131.156
 21
49.8616
 31
0.0
  0
LINE
  8
0
 62
     0
 10
131.156
 20
49.8616
 30
0.0
 11
131.156
 21
55.6616
 31
0.0
  0
LINE
  8
0
 62
     0
 10
131.156
 20
55.6616
 30
0.0
 11
131.957
 21
55.6616
 31
0.0
  0
LINE
  8
0
 62
     0
 10
131.957
 20
55.6616
 30
0.0
 11
131.957
 21
58.7608
 31
0.0
  0
LINE
  8
0
 62
     0
 10
131.957
 20
58.7608
 30
0.0
 11
131.156
 21
58.7608
 31
0.0
  0
LINE
  8
0
 62
     0
 10
131.156
 20
58.7608
 30
0.0
 11
131.156
 21
59.7613
 31
0.0
  0
LINE
  8
0
 62
     0
 10
131.156
 20
59.7613
 30
0.0
 11
117.157
 21
59.7613
 31
0.0
  0
LINE
  8
0
 62
     0
 10
98.1068
 20
59.7613
 30
0.0
 11
98.1068
 21
58.7608
 31
0.0
  0
LINE
  8
0
 62
     0
 10
98.1068
 20
58.7608
 30
0.0
 11
97.306
 21
58.7608
 31
0.0
  0
LINE
  8
0
 62
     0
 10
97.306
 20
58.7608
 30
0.0
 11
97.306
 21
55.6616
 31
0.0
  0
LINE
  8
0
 62
     0
 10
97.306
 20
55.6616
 30
0.0
 11
98.1068
 21
55.6616
 31
0.0
  0
LINE
  8
0
 62
     0
 10
98.1068
 20
55.6616
 30
0.0
 11
98.1068
 21
49.8616
 31
0.0
  0
LINE
  8
0
 62
     0
 10
98.1068
 20
49.8616
 30
0.0
 11
97.306
 21
49.8616
 31
0.0
  0
LINE
  8
0
 62
     0
 10
97.306
 20
49.8616
 30
0.0
 11
97.306
 21
46.761
 31
0.0
  0
LINE
  8
0
 62
     0
 10
97.306
 20
46.761
 30
0.0
 11
98.1068
 21
46.761
 31
0.0
  0
LINE
  8
0
 62
     0
 10
98.1068
 20
46.761
 30
0.0
 11
98.1068
 21
45.7606
 31
0.0
  0
LINE
  8
0
 62
     0
 10
98.1068
 20
45.7606
 30
0.0
 11
112.106
 21
45.7606
 31
0.0
  0
LINE
  8
0
 62
     0
 10
112.106
 20
45.7606
 30
0.0
 11
112.106
 21
46.761
 31
0.0
  0
LINE
  8
0
 62
     0
 10
112.106
 20
46.761
 30
0.0
 11
112.907
 21
46.761
 31
0.0
  0
LINE
  8
0
 62
     0
 10
112.907
 20
46.761
 30
0.0
 11
112.907
 21
49.8616
 31
0.0
  0
LINE
  8
0
 62
     0
 10
112.907
 20
49.8616
 30
0.0
 11
112.106
 21
49.8616
 31
0.0
  0
LINE
  8
0
 62
     0
 10
112.106
 20
49.8616
 30
0.0
 11
112.106
 21
55.6616
 31
0.0
  0
LINE
  8
0
 62
     0
 10
112.106
 20
55.6616
 30
0.0
 11
112.907
 21
55.6616
 31
0.0
  0
LINE
  8
0
 62
     0
 10
112.907
 20
55.6616
 30
0.0
 11
112.907
 21
58.7608
 31
0.0
  0
LINE
  8
0
 62
     0
 10
112.907
 20
58.7608
 30
0.0
 11
112.106
 21
58.7608
 31
0.0
  0
LINE
  8
0
 62
     0
 10
112.106
 20
58.7608
 30
0.0
 11
112.106
 21
59.7613
 31
0.0
  0
LINE
  8
0
 62
     0
 10
112.106
 20
59.7613
 30
0.0
 11
98.1068
 21
59.7613
 31
0.0
  0
LINE
  8
0
 62
     0
 10
79.0568
 20
59.7613
 30
0.0
 11
79.0568
 21
58.7608
 31
0.0
  0
LINE
  8
0
 62
     0
 10
79.0568
 20
58.7608
 30
0.0
 11
78.256
 21
58.7608
 31
0.0
  0
LINE
  8
0
 62
     0
 10
78.256
 20
58.7608
 30
0.0
 11
78.256
 21
55.6616
 31
0.0
  0
LINE
  8
0
 62
     0
 10
78.256
 20
55.6616
 30
0.0
 11
79.0568
 21
55.6616
 31
0.0
  0
LINE
  8
0
 62
     0
 10
79.0568
 20
55.6616
 30
0.0
 11
79.0568
 21
49.8616
 31
0.0
  0
LINE
  8
0
 62
     0
 10
79.0568
 20
49.8616
 30
0.0
 11
78.256
 21
49.8616
 31
0.0
  0
LINE
  8
0
 62
     0
 10
78.256
 20
49.8616
 30
0.0
 11
78.256
 21
46.761
 31
0.0
  0
LINE
  8
0
 62
     0
 10
78.256
 20
46.761
 30
0.0
 11
79.0568
 21
46.761
 31
0.0
  0
LINE
  8
0
 62
     0
 10
79.0568
 20
46.761
 30
0.0
 11
79.0568
 21
45.7606
 31
0.0
  0
LINE
  8
0
 62
     0
 10
79.0568
 20
45.7606
 30
0.0
 11
93.0561
 21
45.7606
 31
0.0
  0
LINE
  8
0
 62
     0
 10
93.0561
 20
45.7606
 30
0.0
 11
93.0561
 21
46.761
 31
0.0
  0
LINE
  8
0
 62
     0
 10
93.0561
 20
46.761
 30
0.0
 11
93.8569
 21
46.761
 31
0.0
  0
LINE
  8
0
 62
     0
 10
93.8569
 20
46.761
 30
0.0
 11
93.8569
 21
49.8616
 31
0.0
  0
LINE
  8
0
 62
     0
 10
93.8569
 20
49.8616
 30
0.0
 11
93.0561
 21
49.8616
 31
0.0
  0
LINE
  8
0
 62
     0
 10
93.0561
 20
49.8616
 30
0.0
 11
93.0561
 21
55.6616
 31
0.0
  0
LINE
  8
0
 62
     0
 10
93.0561
 20
55.6616
 30
0.0
 11
93.8569
 21
55.6616
 31
0.0
  0
LINE
  8
0
 62
     0
 10
93.8569
 20
55.6616
 30
0.0
 11
93.8569
 21
58.7608
 31
0.0
  0
LINE
  8
0
 62
     0
 10
93.8569
 20
58.7608
 30
0.0
 11
93.0561
 21
58.7608
 31
0.0
  0
LINE
  8
0
 62
     0
 10
93.0561
 20
58.7608
 30
0.0
 11
93.0561
 21
59.7613
 31
0.0
  0
LINE
  8
0
 62
     0
 10
93.0561
 20
59.7613
 30
0.0
 11
79.0568
 21
59.7613
 31
0.0
  0
LINE
  8
0
 62
     0
 10
60.0068
 20
59.7613
 30
0.0
 11
60.0068
 21
58.7608
 31
0.0
  0
LINE
  8
0
 62
     0
 10
60.0068
 20
58.7608
 30
0.0
 11
59.206
 21
58.7608
 31
0.0
  0
LINE
  8
0
 62
     0
 10
59.206
 20
58.7608
 30
0.0
 11
59.206
 21
55.6616
 31
0.0
  0
LINE
  8
0
 62
     0
 10
59.206
 20
55.6616
 30
0.0
 11
60.0068
 21
55.6616
 31
0.0
  0
LINE
  8
0
 62
     0
 10
60.0068
 20
55.6616
 30
0.0
 11
60.0068
 21
49.8616
 31
0.0
  0
LINE
  8
0
 62
     0
 10
60.0068
 20
49.8616
 30
0.0
 11
59.206
 21
49.8616
 31
0.0
  0
LINE
  8
0
 62
     0
 10
59.206
 20
49.8616
 30
0.0
 11
59.206
 21
46.761
 31
0.0
  0
LINE
  8
0
 62
     0
 10
59.206
 20
46.761
 30
0.0
 11
60.0068
 21
46.761
 31
0.0
  0
LINE
  8
0
 62
     0
 10
60.0068
 20
46.761
 30
0.0
 11
60.0068
 21
45.7606
 31
0.0
  0
LINE
  8
0
 62
     0
 10
60.0068
 20
45.7606
 30
0.0
 11
74.0061
 21
45.7606
 31
0.0
  0
LINE
  8
0
 62
     0
 10
74.0061
 20
45.7606
 30
0.0
 11
74.0061
 21
46.761
 31
0.0
  0
LINE
  8
0
 62
     0
 10
74.0061
 20
46.761
 30
0.0
 11
74.8069
 21
46.761
 31
0.0
  0
LINE
  8
0
 62
     0
 10
74.8069
 20
46.761
 30
0.0
 11
74.8069
 21
49.8616
 31
0.0
  0
LINE
  8
0
 62
     0
 10
74.8069
 20
49.8616
 30
0.0
 11
74.0061
 21
49.8616
 31
0.0
  0
LINE
  8
0
 62
     0
 10
74.0061
 20
49.8616
 30
0.0
 11
74.0061
 21
55.6616
 31
0.0
  0
LINE
  8
0
 62
     0
 10
74.0061
 20
55.6616
 30
0.0
 11
74.8069
 21
55.6616
 31
0.0
  0
LINE
  8
0
 62
     0
 10
74.8069
 20
55.6616
 30
0.0
 11
74.8069
 21
58.7608
 31
0.0
  0
LINE
  8
0
 62
     0
 10
74.8069
 20
58.7608
 30
0.0
 11
74.0061
 21
58.7608
 31
0.0
  0
LINE
  8
0
 62
     0
 10
74.0061
 20
58.7608
 30
0.0
 11
74.0061
 21
59.7613
 31
0.0
  0
LINE
  8
0
 62
     0
 10
74.0061
 20
59.7613
 30
0.0
 11
60.0068
 21
59.7613
 31
0.0
  0
LINE
  8
0
 62
     0
 10
40.9568
 20
59.7613
 30
0.0
 11
40.9568
 21
58.7608
 31
0.0
  0
LINE
  8
0
 62
     0
 10
40.9568
 20
58.7608
 30
0.0
 11
40.156
 21
58.7608
 31
0.0
  0
LINE
  8
0
 62
     0
 10
40.156
 20
58.7608
 30
0.0
 11
40.156
 21
55.6616
 31
0.0
  0
LINE
  8
0
 62
     0
 10
40.156
 20
55.6616
 30
0.0
 11
40.9568
 21
55.6616
 31
0.0
  0
LINE
  8
0
 62
     0
 10
40.9568
 20
55.6616
 30
0.0
 11
40.9568
 21
49.8616
 31
0.0
  0
LINE
  8
0
 62
     0
 10
40.9568
 20
49.8616
 30
0.0
 11
40.156
 21
49.8616
 31
0.0
  0
LINE
  8
0
 62
     0
 10
40.156
 20
49.8616
 30
0.0
 11
40.156
 21
46.761
 31
0.0
  0
LINE
  8
0
 62
     0
 10
40.156
 20
46.761
 30
0.0
 11
40.9568
 21
46.761
 31
0.0
  0
LINE
  8
0
 62
     0
 10
40.9568
 20
46.761
 30
0.0
 11
40.9568
 21
45.7606
 31
0.0
  0
LINE
  8
0
 62
     0
 10
40.9568
 20
45.7606
 30
0.0
 11
54.9561
 21
45.7606
 31
0.0
  0
LINE
  8
0
 62
     0
 10
54.9561
 20
45.7606
 30
0.0
 11
54.9561
 21
46.761
 31
0.0
  0
LINE
  8
0
 62
     0
 10
54.9561
 20
46.761
 30
0.0
 11
55.7569
 21
46.761
 31
0.0
  0
LINE
  8
0
 62
     0
 10
55.7569
 20
46.761
 30
0.0
 11
55.7569
 21
49.8616
 31
0.0
  0
LINE
  8
0
 62
     0
 10
55.7569
 20
49.8616
 30
0.0
 11
54.9561
 21
49.8616
 31
0.0
  0
LINE
  8
0
 62
     0
 10
54.9561
 20
49.8616
 30
0.0
 11
54.9561
 21
55.6616
 31
0.0
  0
LINE
  8
0
 62
     0
 10
54.9561
 20
55.6616
 30
0.0
 11
55.7569
 21
55.6616
 31
0.0
  0
LINE
  8
0
 62
     0
 10
55.7569
 20
55.6616
 30
0.0
 11
55.7569
 21
58.7608
 31
0.0
  0
LINE
  8
0
 62
     0
 10
55.7569
 20
58.7608
 30
0.0
 11
54.9561
 21
58.7608
 31
0.0
  0
LINE
  8
0
 62
     0
 10
54.9561
 20
58.7608
 30
0.0
 11
54.9561
 21
59.7613
 31
0.0
  0
LINE
  8
0
 62
     0
 10
54.9561
 20
59.7613
 30
0.0
 11
40.9568
 21
59.7613
 31
0.0
  0
LINE
  8
0
 62
     0
 10
14.7629
 20
59.7613
 30
0.0
 11
14.7629
 21
58.7608
 31
0.0
  0
LINE
  8
0
 62
     0
 10
14.7629
 20
58.7608
 30
0.0
 11
13.9623
 21
58.7608
 31
0.0
  0
LINE
  8
0
 62
     0
 10
13.9623
 20
58.7608
 30
0.0
 11
13.9623
 21
55.6616
 31
0.0
  0
LINE
  8
0
 62
     0
 10
13.9623
 20
55.6616
 30
0.0
 11
14.7629
 21
55.6616
 31
0.0
  0
LINE
  8
0
 62
     0
 10
14.7629
 20
55.6616
 30
0.0
 11
14.7629
 21
49.8616
 31
0.0
  0
LINE
  8
0
 62
     0
 10
14.7629
 20
49.8616
 30
0.0
 11
13.9623
 21
49.8616
 31
0.0
  0
LINE
  8
0
 62
     0
 10
13.9623
 20
49.8616
 30
0.0
 11
13.9623
 21
46.761
 31
0.0
  0
LINE
  8
0
 62
     0
 10
13.9623
 20
46.761
 30
0.0
 11
14.7629
 21
46.761
 31
0.0
  0
LINE
  8
0
 62
     0
 10
14.7629
 20
46.761
 30
0.0
 11
14.7629
 21
45.7606
 31
0.0
  0
LINE
  8
0
 62
     0
 10
14.7629
 20
45.7606
 30
0.0
 11
28.7624
 21
45.7606
 31
0.0
  0
LINE
  8
0
 62
     0
 10
28.7624
 20
45.7606
 30
0.0
 11
28.7624
 21
46.761
 31
0.0
  0
LINE
  8
0
 62
     0
 10
28.7624
 20
46.761
 30
0.0
 11
29.5631
 21
46.761
 31
0.0
  0
LINE
  8
0
 62
     0
 10
29.5631
 20
46.761
 30
0.0
 11
29.5631
 21
49.8616
 31
0.0
  0
LINE
  8
0
 62
     0
 10
29.5631
 20
49.8616
 30
0.0
 11
28.7624
 21
49.8616
 31
0.0
  0
LINE
  8
0
 62
     0
 10
28.7624
 20
49.8616
 30
0.0
 11
28.7624
 21
55.6616
 31
0.0
  0
LINE
  8
0
 62
     0
 10
28.7624
 20
55.6616
 30
0.0
 11
29.5631
 21
55.6616
 31
0.0
  0
LINE
  8
0
 62
     0
 10
29.5631
 20
55.6616
 30
0.0
 11
29.5631
 21
58.7608
 31
0.0
  0
LINE
  8
0
 62
     0
 10
29.5631
 20
58.7608
 30
0.0
 11
28.7624
 21
58.7608
 31
0.0
  0
LINE
  8
0
 62
     0
 10
28.7624
 20
58.7608
 30
0.0
 11
28.7624
 21
59.7613
 31
0.0
  0
LINE
  8
0
 62
     0
 10
28.7624
 20
59.7613
 30
0.0
 11
14.7629
 21
59.7613
 31
0.0
  0
LINE
  8
0
 62
     0
 10
340.994
 20
64.5238
 30
0.0
 11
340.994
 21
63.5233
 31
0.0
  0
LINE
  8
0
 62
     0
 10
340.994
 20
63.5233
 30
0.0
 11
340.195
 21
63.5233
 31
0.0
  0
LINE
  8
0
 62
     0
 10
340.195
 20
63.5233
 30
0.0
 11
340.195
 21
60.4241
 31
0.0
  0
LINE
  8
0
 62
     0
 10
340.195
 20
60.4241
 30
0.0
 11
340.994
 21
60.4241
 31
0.0
  0
LINE
  8
0
 62
     0
 10
340.994
 20
60.4241
 30
0.0
 11
340.994
 21
54.6241
 31
0.0
  0
LINE
  8
0
 62
     0
 10
340.994
 20
54.6241
 30
0.0
 11
340.195
 21
54.6241
 31
0.0
  0
LINE
  8
0
 62
     0
 10
340.195
 20
54.6241
 30
0.0
 11
340.195
 21
51.5235
 31
0.0
  0
LINE
  8
0
 62
     0
 10
340.195
 20
51.5235
 30
0.0
 11
340.994
 21
51.5235
 31
0.0
  0
LINE
  8
0
 62
     0
 10
340.994
 20
51.5235
 30
0.0
 11
340.994
 21
50.5245
 31
0.0
  0
LINE
  8
0
 62
     0
 10
340.994
 20
50.5245
 30
0.0
 11
354.997
 21
50.5245
 31
0.0
  0
LINE
  8
0
 62
     0
 10
354.997
 20
50.5245
 30
0.0
 11
354.997
 21
51.5235
 31
0.0
  0
LINE
  8
0
 62
     0
 10
354.997
 20
51.5235
 30
0.0
 11
355.794
 21
51.5235
 31
0.0
  0
LINE
  8
0
 62
     0
 10
355.794
 20
51.5235
 30
0.0
 11
355.794
 21
54.6241
 31
0.0
  0
LINE
  8
0
 62
     0
 10
355.794
 20
54.6241
 30
0.0
 11
354.997
 21
54.6241
 31
0.0
  0
LINE
  8
0
 62
     0
 10
354.997
 20
54.6241
 30
0.0
 11
354.997
 21
60.4241
 31
0.0
  0
LINE
  8
0
 62
     0
 10
354.997
 20
60.4241
 30
0.0
 11
355.794
 21
60.4241
 31
0.0
  0
LINE
  8
0
 62
     0
 10
355.794
 20
60.4241
 30
0.0
 11
355.794
 21
63.5233
 31
0.0
  0
LINE
  8
0
 62
     0
 10
355.794
 20
63.5233
 30
0.0
 11
354.997
 21
63.5233
 31
0.0
  0
LINE
  8
0
 62
     0
 10
354.997
 20
63.5233
 30
0.0
 11
354.997
 21
64.5238
 31
0.0
  0
LINE
  8
0
 62
     0
 10
354.997
 20
64.5238
 30
0.0
 11
340.994
 21
64.5238
 31
0.0
  0
LINE
  8
0
 62
     0
 10
321.944
 20
64.5238
 30
0.0
 11
321.944
 21
63.5233
 31
0.0
  0
LINE
  8
0
 62
     0
 10
321.944
 20
63.5233
 30
0.0
 11
321.145
 21
63.5233
 31
0.0
  0
LINE
  8
0
 62
     0
 10
321.145
 20
63.5233
 30
0.0
 11
321.145
 21
60.4241
 31
0.0
  0
LINE
  8
0
 62
     0
 10
321.145
 20
60.4241
 30
0.0
 11
321.944
 21
60.4241
 31
0.0
  0
LINE
  8
0
 62
     0
 10
321.944
 20
60.4241
 30
0.0
 11
321.944
 21
54.6241
 31
0.0
  0
LINE
  8
0
 62
     0
 10
321.944
 20
54.6241
 30
0.0
 11
321.145
 21
54.6241
 31
0.0
  0
LINE
  8
0
 62
     0
 10
321.145
 20
54.6241
 30
0.0
 11
321.145
 21
51.5235
 31
0.0
  0
LINE
  8
0
 62
     0
 10
321.145
 20
51.5235
 30
0.0
 11
321.944
 21
51.5235
 31
0.0
  0
LINE
  8
0
 62
     0
 10
321.944
 20
51.5235
 30
0.0
 11
321.944
 21
50.5245
 31
0.0
  0
LINE
  8
0
 62
     0
 10
321.944
 20
50.5245
 30
0.0
 11
335.945
 21
50.5245
 31
0.0
  0
LINE
  8
0
 62
     0
 10
335.945
 20
50.5245
 30
0.0
 11
335.945
 21
51.5235
 31
0.0
  0
LINE
  8
0
 62
     0
 10
335.945
 20
51.5235
 30
0.0
 11
336.744
 21
51.5235
 31
0.0
  0
LINE
  8
0
 62
     0
 10
336.744
 20
51.5235
 30
0.0
 11
336.744
 21
54.6241
 31
0.0
  0
LINE
  8
0
 62
     0
 10
336.744
 20
54.6241
 30
0.0
 11
335.945
 21
54.6241
 31
0.0
  0
LINE
  8
0
 62
     0
 10
335.945
 20
54.6241
 30
0.0
 11
335.945
 21
60.4241
 31
0.0
  0
LINE
  8
0
 62
     0
 10
335.945
 20
60.4241
 30
0.0
 11
336.744
 21
60.4241
 31
0.0
  0
LINE
  8
0
 62
     0
 10
336.744
 20
60.4241
 30
0.0
 11
336.744
 21
63.5233
 31
0.0
  0
LINE
  8
0
 62
     0
 10
336.744
 20
63.5233
 30
0.0
 11
335.945
 21
63.5233
 31
0.0
  0
LINE
  8
0
 62
     0
 10
335.945
 20
63.5233
 30
0.0
 11
335.945
 21
64.5238
 31
0.0
  0
LINE
  8
0
 62
     0
 10
335.945
 20
64.5238
 30
0.0
 11
321.944
 21
64.5238
 31
0.0
  0
LINE
  8
0
 62
     0
 10
302.894
 20
64.5238
 30
0.0
 11
302.894
 21
63.5233
 31
0.0
  0
LINE
  8
0
 62
     0
 10
302.894
 20
63.5233
 30
0.0
 11
302.095
 21
63.5233
 31
0.0
  0
LINE
  8
0
 62
     0
 10
302.095
 20
63.5233
 30
0.0
 11
302.095
 21
60.4241
 31
0.0
  0
LINE
  8
0
 62
     0
 10
302.095
 20
60.4241
 30
0.0
 11
302.894
 21
60.4241
 31
0.0
  0
LINE
  8
0
 62
     0
 10
302.894
 20
60.4241
 30
0.0
 11
302.894
 21
54.6241
 31
0.0
  0
LINE
  8
0
 62
     0
 10
302.894
 20
54.6241
 30
0.0
 11
302.095
 21
54.6241
 31
0.0
  0
LINE
  8
0
 62
     0
 10
302.095
 20
54.6241
 30
0.0
 11
302.095
 21
51.5235
 31
0.0
  0
LINE
  8
0
 62
     0
 10
302.095
 20
51.5235
 30
0.0
 11
302.894
 21
51.5235
 31
0.0
  0
LINE
  8
0
 62
     0
 10
302.894
 20
51.5235
 30
0.0
 11
302.894
 21
50.5245
 31
0.0
  0
LINE
  8
0
 62
     0
 10
302.894
 20
50.5245
 30
0.0
 11
316.895
 21
50.5245
 31
0.0
  0
LINE
  8
0
 62
     0
 10
316.895
 20
50.5245
 30
0.0
 11
316.895
 21
51.5235
 31
0.0
  0
LINE
  8
0
 62
     0
 10
316.895
 20
51.5235
 30
0.0
 11
317.694
 21
51.5235
 31
0.0
  0
LINE
  8
0
 62
     0
 10
317.694
 20
51.5235
 30
0.0
 11
317.694
 21
54.6241
 31
0.0
  0
LINE
  8
0
 62
     0
 10
317.694
 20
54.6241
 30
0.0
 11
316.895
 21
54.6241
 31
0.0
  0
LINE
  8
0
 62
     0
 10
316.895
 20
54.6241
 30
0.0
 11
316.895
 21
60.4241
 31
0.0
  0
LINE
  8
0
 62
     0
 10
316.895
 20
60.4241
 30
0.0
 11
317.694
 21
60.4241
 31
0.0
  0
LINE
  8
0
 62
     0
 10
317.694
 20
60.4241
 30
0.0
 11
317.694
 21
63.5233
 31
0.0
  0
LINE
  8
0
 62
     0
 10
317.694
 20
63.5233
 30
0.0
 11
316.895
 21
63.5233
 31
0.0
  0
LINE
  8
0
 62
     0
 10
316.895
 20
63.5233
 30
0.0
 11
316.895
 21
64.5238
 31
0.0
  0
LINE
  8
0
 62
     0
 10
316.895
 20
64.5238
 30
0.0
 11
302.894
 21
64.5238
 31
0.0
  0
LINE
  8
0
 62
     0
 10
269.557
 20
78.8113
 30
0.0
 11
269.557
 21
77.8122
 31
0.0
  0
LINE
  8
0
 62
     0
 10
269.557
 20
77.8122
 30
0.0
 11
268.756
 21
77.8122
 31
0.0
  0
LINE
  8
0
 62
     0
 10
268.756
 20
77.8122
 30
0.0
 11
268.756
 21
74.713
 31
0.0
  0
LINE
  8
0
 62
     0
 10
268.756
 20
74.713
 30
0.0
 11
269.557
 21
74.713
 31
0.0
  0
LINE
  8
0
 62
     0
 10
269.557
 20
74.713
 30
0.0
 11
269.557
 21
68.9116
 31
0.0
  0
LINE
  8
0
 62
     0
 10
269.557
 20
68.9116
 30
0.0
 11
268.756
 21
68.9116
 31
0.0
  0
LINE
  8
0
 62
     0
 10
268.756
 20
68.9116
 30
0.0
 11
268.756
 21
65.8125
 31
0.0
  0
LINE
  8
0
 62
     0
 10
268.756
 20
65.8125
 30
0.0
 11
269.557
 21
65.8125
 31
0.0
  0
LINE
  8
0
 62
     0
 10
269.557
 20
65.8125
 30
0.0
 11
269.557
 21
64.812
 31
0.0
  0
LINE
  8
0
 62
     0
 10
269.557
 20
64.812
 30
0.0
 11
283.556
 21
64.812
 31
0.0
  0
LINE
  8
0
 62
     0
 10
283.556
 20
64.812
 30
0.0
 11
283.556
 21
65.8125
 31
0.0
  0
LINE
  8
0
 62
     0
 10
283.556
 20
65.8125
 30
0.0
 11
284.357
 21
65.8125
 31
0.0
  0
LINE
  8
0
 62
     0
 10
284.357
 20
65.8125
 30
0.0
 11
284.357
 21
68.9116
 31
0.0
  0
LINE
  8
0
 62
     0
 10
284.357
 20
68.9116
 30
0.0
 11
283.556
 21
68.9116
 31
0.0
  0
LINE
  8
0
 62
     0
 10
283.556
 20
68.9116
 30
0.0
 11
283.556
 21
74.713
 31
0.0
  0
LINE
  8
0
 62
     0
 10
283.556
 20
74.713
 30
0.0
 11
284.357
 21
74.713
 31
0.0
  0
LINE
  8
0
 62
     0
 10
284.357
 20
74.713
 30
0.0
 11
284.357
 21
77.8122
 31
0.0
  0
LINE
  8
0
 62
     0
 10
284.357
 20
77.8122
 30
0.0
 11
283.556
 21
77.8122
 31
0.0
  0
LINE
  8
0
 62
     0
 10
283.556
 20
77.8122
 30
0.0
 11
283.556
 21
78.8113
 31
0.0
  0
LINE
  8
0
 62
     0
 10
283.556
 20
78.8113
 30
0.0
 11
269.557
 21
78.8113
 31
0.0
  0
LINE
  8
0
 62
     0
 10
245.744
 20
78.8113
 30
0.0
 11
245.744
 21
77.8122
 31
0.0
  0
LINE
  8
0
 62
     0
 10
245.744
 20
77.8122
 30
0.0
 11
244.945
 21
77.8122
 31
0.0
  0
LINE
  8
0
 62
     0
 10
244.945
 20
77.8122
 30
0.0
 11
244.945
 21
74.713
 31
0.0
  0
LINE
  8
0
 62
     0
 10
244.945
 20
74.713
 30
0.0
 11
245.744
 21
74.713
 31
0.0
  0
LINE
  8
0
 62
     0
 10
245.744
 20
74.713
 30
0.0
 11
245.744
 21
68.9116
 31
0.0
  0
LINE
  8
0
 62
     0
 10
245.744
 20
68.9116
 30
0.0
 11
244.945
 21
68.9116
 31
0.0
  0
LINE
  8
0
 62
     0
 10
244.945
 20
68.9116
 30
0.0
 11
244.945
 21
65.8125
 31
0.0
  0
LINE
  8
0
 62
     0
 10
244.945
 20
65.8125
 30
0.0
 11
245.744
 21
65.8125
 31
0.0
  0
LINE
  8
0
 62
     0
 10
245.744
 20
65.8125
 30
0.0
 11
245.744
 21
64.812
 31
0.0
  0
LINE
  8
0
 62
     0
 10
245.744
 20
64.812
 30
0.0
 11
259.745
 21
64.812
 31
0.0
  0
LINE
  8
0
 62
     0
 10
259.745
 20
64.812
 30
0.0
 11
259.745
 21
65.8125
 31
0.0
  0
LINE
  8
0
 62
     0
 10
259.745
 20
65.8125
 30
0.0
 11
260.544
 21
65.8125
 31
0.0
  0
LINE
  8
0
 62
     0
 10
260.544
 20
65.8125
 30
0.0
 11
260.544
 21
68.9116
 31
0.0
  0
LINE
  8
0
 62
     0
 10
260.544
 20
68.9116
 30
0.0
 11
259.745
 21
68.9116
 31
0.0
  0
LINE
  8
0
 62
     0
 10
259.745
 20
68.9116
 30
0.0
 11
259.745
 21
74.713
 31
0.0
  0
LINE
  8
0
 62
     0
 10
259.745
 20
74.713
 30
0.0
 11
260.544
 21
74.713
 31
0.0
  0
LINE
  8
0
 62
     0
 10
260.544
 20
74.713
 30
0.0
 11
260.544
 21
77.8122
 31
0.0
  0
LINE
  8
0
 62
     0
 10
260.544
 20
77.8122
 30
0.0
 11
259.745
 21
77.8122
 31
0.0
  0
LINE
  8
0
 62
     0
 10
259.745
 20
77.8122
 30
0.0
 11
259.745
 21
78.8113
 31
0.0
  0
LINE
  8
0
 62
     0
 10
259.745
 20
78.8113
 30
0.0
 11
245.744
 21
78.8113
 31
0.0
  0
LINE
  8
0
 62
     0
 10
226.694
 20
78.8113
 30
0.0
 11
226.694
 21
77.8122
 31
0.0
  0
LINE
  8
0
 62
     0
 10
226.694
 20
77.8122
 30
0.0
 11
225.895
 21
77.8122
 31
0.0
  0
LINE
  8
0
 62
     0
 10
225.895
 20
77.8122
 30
0.0
 11
225.895
 21
74.713
 31
0.0
  0
LINE
  8
0
 62
     0
 10
225.895
 20
74.713
 30
0.0
 11
226.694
 21
74.713
 31
0.0
  0
LINE
  8
0
 62
     0
 10
226.694
 20
74.713
 30
0.0
 11
226.694
 21
68.9116
 31
0.0
  0
LINE
  8
0
 62
     0
 10
226.694
 20
68.9116
 30
0.0
 11
225.895
 21
68.9116
 31
0.0
  0
LINE
  8
0
 62
     0
 10
225.895
 20
68.9116
 30
0.0
 11
225.895
 21
65.8125
 31
0.0
  0
LINE
  8
0
 62
     0
 10
225.895
 20
65.8125
 30
0.0
 11
226.694
 21
65.8125
 31
0.0
  0
LINE
  8
0
 62
     0
 10
226.694
 20
65.8125
 30
0.0
 11
226.694
 21
64.812
 31
0.0
  0
LINE
  8
0
 62
     0
 10
226.694
 20
64.812
 30
0.0
 11
240.695
 21
64.812
 31
0.0
  0
LINE
  8
0
 62
     0
 10
240.695
 20
64.812
 30
0.0
 11
240.695
 21
65.8125
 31
0.0
  0
LINE
  8
0
 62
     0
 10
240.695
 20
65.8125
 30
0.0
 11
241.494
 21
65.8125
 31
0.0
  0
LINE
  8
0
 62
     0
 10
241.494
 20
65.8125
 30
0.0
 11
241.494
 21
68.9116
 31
0.0
  0
LINE
  8
0
 62
     0
 10
241.494
 20
68.9116
 30
0.0
 11
240.695
 21
68.9116
 31
0.0
  0
LINE
  8
0
 62
     0
 10
240.695
 20
68.9116
 30
0.0
 11
240.695
 21
74.713
 31
0.0
  0
LINE
  8
0
 62
     0
 10
240.695
 20
74.713
 30
0.0
 11
241.494
 21
74.713
 31
0.0
  0
LINE
  8
0
 62
     0
 10
241.494
 20
74.713
 30
0.0
 11
241.494
 21
77.8122
 31
0.0
  0
LINE
  8
0
 62
     0
 10
241.494
 20
77.8122
 30
0.0
 11
240.695
 21
77.8122
 31
0.0
  0
LINE
  8
0
 62
     0
 10
240.695
 20
77.8122
 30
0.0
 11
240.695
 21
78.8113
 31
0.0
  0
LINE
  8
0
 62
     0
 10
240.695
 20
78.8113
 30
0.0
 11
226.694
 21
78.8113
 31
0.0
  0
LINE
  8
0
 62
     0
 10
207.644
 20
78.8113
 30
0.0
 11
207.644
 21
77.8122
 31
0.0
  0
LINE
  8
0
 62
     0
 10
207.644
 20
77.8122
 30
0.0
 11
206.845
 21
77.8122
 31
0.0
  0
LINE
  8
0
 62
     0
 10
206.845
 20
77.8122
 30
0.0
 11
206.845
 21
74.713
 31
0.0
  0
LINE
  8
0
 62
     0
 10
206.845
 20
74.713
 30
0.0
 11
207.644
 21
74.713
 31
0.0
  0
LINE
  8
0
 62
     0
 10
207.644
 20
74.713
 30
0.0
 11
207.644
 21
68.9116
 31
0.0
  0
LINE
  8
0
 62
     0
 10
207.644
 20
68.9116
 30
0.0
 11
206.845
 21
68.9116
 31
0.0
  0
LINE
  8
0
 62
     0
 10
206.845
 20
68.9116
 30
0.0
 11
206.845
 21
65.8125
 31
0.0
  0
LINE
  8
0
 62
     0
 10
206.845
 20
65.8125
 30
0.0
 11
207.644
 21
65.8125
 31
0.0
  0
LINE
  8
0
 62
     0
 10
207.644
 20
65.8125
 30
0.0
 11
207.644
 21
64.812
 31
0.0
  0
LINE
  8
0
 62
     0
 10
207.644
 20
64.812
 30
0.0
 11
221.645
 21
64.812
 31
0.0
  0
LINE
  8
0
 62
     0
 10
221.645
 20
64.812
 30
0.0
 11
221.645
 21
65.8125
 31
0.0
  0
LINE
  8
0
 62
     0
 10
221.645
 20
65.8125
 30
0.0
 11
222.444
 21
65.8125
 31
0.0
  0
LINE
  8
0
 62
     0
 10
222.444
 20
65.8125
 30
0.0
 11
222.444
 21
68.9116
 31
0.0
  0
LINE
  8
0
 62
     0
 10
222.444
 20
68.9116
 30
0.0
 11
221.645
 21
68.9116
 31
0.0
  0
LINE
  8
0
 62
     0
 10
221.645
 20
68.9116
 30
0.0
 11
221.645
 21
74.713
 31
0.0
  0
LINE
  8
0
 62
     0
 10
221.645
 20
74.713
 30
0.0
 11
222.444
 21
74.713
 31
0.0
  0
LINE
  8
0
 62
     0
 10
222.444
 20
74.713
 30
0.0
 11
222.444
 21
77.8122
 31
0.0
  0
LINE
  8
0
 62
     0
 10
222.444
 20
77.8122
 30
0.0
 11
221.645
 21
77.8122
 31
0.0
  0
LINE
  8
0
 62
     0
 10
221.645
 20
77.8122
 30
0.0
 11
221.645
 21
78.8113
 31
0.0
  0
LINE
  8
0
 62
     0
 10
221.645
 20
78.8113
 30
0.0
 11
207.644
 21
78.8113
 31
0.0
  0
LINE
  8
0
 62
     0
 10
188.594
 20
78.8113
 30
0.0
 11
188.594
 21
77.8122
 31
0.0
  0
LINE
  8
0
 62
     0
 10
188.594
 20
77.8122
 30
0.0
 11
187.795
 21
77.8122
 31
0.0
  0
LINE
  8
0
 62
     0
 10
187.795
 20
77.8122
 30
0.0
 11
187.795
 21
74.713
 31
0.0
  0
LINE
  8
0
 62
     0
 10
187.795
 20
74.713
 30
0.0
 11
188.594
 21
74.713
 31
0.0
  0
LINE
  8
0
 62
     0
 10
188.594
 20
74.713
 30
0.0
 11
188.594
 21
68.9116
 31
0.0
  0
LINE
  8
0
 62
     0
 10
188.594
 20
68.9116
 30
0.0
 11
187.795
 21
68.9116
 31
0.0
  0
LINE
  8
0
 62
     0
 10
187.795
 20
68.9116
 30
0.0
 11
187.795
 21
65.8125
 31
0.0
  0
LINE
  8
0
 62
     0
 10
187.795
 20
65.8125
 30
0.0
 11
188.594
 21
65.8125
 31
0.0
  0
LINE
  8
0
 62
     0
 10
188.594
 20
65.8125
 30
0.0
 11
188.594
 21
64.812
 31
0.0
  0
LINE
  8
0
 62
     0
 10
188.594
 20
64.812
 30
0.0
 11
202.595
 21
64.812
 31
0.0
  0
LINE
  8
0
 62
     0
 10
202.595
 20
64.812
 30
0.0
 11
202.595
 21
65.8125
 31
0.0
  0
LINE
  8
0
 62
     0
 10
202.595
 20
65.8125
 30
0.0
 11
203.394
 21
65.8125
 31
0.0
  0
LINE
  8
0
 62
     0
 10
203.394
 20
65.8125
 30
0.0
 11
203.394
 21
68.9116
 31
0.0
  0
LINE
  8
0
 62
     0
 10
203.394
 20
68.9116
 30
0.0
 11
202.595
 21
68.9116
 31
0.0
  0
LINE
  8
0
 62
     0
 10
202.595
 20
68.9116
 30
0.0
 11
202.595
 21
74.713
 31
0.0
  0
LINE
  8
0
 62
     0
 10
202.595
 20
74.713
 30
0.0
 11
203.394
 21
74.713
 31
0.0
  0
LINE
  8
0
 62
     0
 10
203.394
 20
74.713
 30
0.0
 11
203.394
 21
77.8122
 31
0.0
  0
LINE
  8
0
 62
     0
 10
203.394
 20
77.8122
 30
0.0
 11
202.595
 21
77.8122
 31
0.0
  0
LINE
  8
0
 62
     0
 10
202.595
 20
77.8122
 30
0.0
 11
202.595
 21
78.8113
 31
0.0
  0
LINE
  8
0
 62
     0
 10
202.595
 20
78.8113
 30
0.0
 11
188.594
 21
78.8113
 31
0.0
  0
LINE
  8
0
 62
     0
 10
169.544
 20
78.8113
 30
0.0
 11
169.544
 21
77.8122
 31
0.0
  0
LINE
  8
0
 62
     0
 10
169.544
 20
77.8122
 30
0.0
 11
168.745
 21
77.8122
 31
0.0
  0
LINE
  8
0
 62
     0
 10
168.745
 20
77.8122
 30
0.0
 11
168.745
 21
74.713
 31
0.0
  0
LINE
  8
0
 62
     0
 10
168.745
 20
74.713
 30
0.0
 11
169.544
 21
74.713
 31
0.0
  0
LINE
  8
0
 62
     0
 10
169.544
 20
74.713
 30
0.0
 11
169.544
 21
68.9116
 31
0.0
  0
LINE
  8
0
 62
     0
 10
169.544
 20
68.9116
 30
0.0
 11
168.745
 21
68.9116
 31
0.0
  0
LINE
  8
0
 62
     0
 10
168.745
 20
68.9116
 30
0.0
 11
168.745
 21
65.8125
 31
0.0
  0
LINE
  8
0
 62
     0
 10
168.745
 20
65.8125
 30
0.0
 11
169.544
 21
65.8125
 31
0.0
  0
LINE
  8
0
 62
     0
 10
169.544
 20
65.8125
 30
0.0
 11
169.544
 21
64.812
 31
0.0
  0
LINE
  8
0
 62
     0
 10
169.544
 20
64.812
 30
0.0
 11
183.545
 21
64.812
 31
0.0
  0
LINE
  8
0
 62
     0
 10
183.545
 20
64.812
 30
0.0
 11
183.545
 21
65.8125
 31
0.0
  0
LINE
  8
0
 62
     0
 10
183.545
 20
65.8125
 30
0.0
 11
184.344
 21
65.8125
 31
0.0
  0
LINE
  8
0
 62
     0
 10
184.344
 20
65.8125
 30
0.0
 11
184.344
 21
68.9116
 31
0.0
  0
LINE
  8
0
 62
     0
 10
184.344
 20
68.9116
 30
0.0
 11
183.545
 21
68.9116
 31
0.0
  0
LINE
  8
0
 62
     0
 10
183.545
 20
68.9116
 30
0.0
 11
183.545
 21
74.713
 31
0.0
  0
LINE
  8
0
 62
     0
 10
183.545
 20
74.713
 30
0.0
 11
184.344
 21
74.713
 31
0.0
  0
LINE
  8
0
 62
     0
 10
184.344
 20
74.713
 30
0.0
 11
184.344
 21
77.8122
 31
0.0
  0
LINE
  8
0
 62
     0
 10
184.344
 20
77.8122
 30
0.0
 11
183.545
 21
77.8122
 31
0.0
  0
LINE
  8
0
 62
     0
 10
183.545
 20
77.8122
 30
0.0
 11
183.545
 21
78.8113
 31
0.0
  0
LINE
  8
0
 62
     0
 10
183.545
 20
78.8113
 30
0.0
 11
169.544
 21
78.8113
 31
0.0
  0
LINE
  8
0
 62
     0
 10
150.494
 20
78.8113
 30
0.0
 11
150.494
 21
77.8122
 31
0.0
  0
LINE
  8
0
 62
     0
 10
150.494
 20
77.8122
 30
0.0
 11
149.695
 21
77.8122
 31
0.0
  0
LINE
  8
0
 62
     0
 10
149.695
 20
77.8122
 30
0.0
 11
149.695
 21
74.713
 31
0.0
  0
LINE
  8
0
 62
     0
 10
149.695
 20
74.713
 30
0.0
 11
150.494
 21
74.713
 31
0.0
  0
LINE
  8
0
 62
     0
 10
150.494
 20
74.713
 30
0.0
 11
150.494
 21
68.9116
 31
0.0
  0
LINE
  8
0
 62
     0
 10
150.494
 20
68.9116
 30
0.0
 11
149.695
 21
68.9116
 31
0.0
  0
LINE
  8
0
 62
     0
 10
149.695
 20
68.9116
 30
0.0
 11
149.695
 21
65.8125
 31
0.0
  0
LINE
  8
0
 62
     0
 10
149.695
 20
65.8125
 30
0.0
 11
150.494
 21
65.8125
 31
0.0
  0
LINE
  8
0
 62
     0
 10
150.494
 20
65.8125
 30
0.0
 11
150.494
 21
64.812
 31
0.0
  0
LINE
  8
0
 62
     0
 10
150.494
 20
64.812
 30
0.0
 11
164.495
 21
64.812
 31
0.0
  0
LINE
  8
0
 62
     0
 10
164.495
 20
64.812
 30
0.0
 11
164.495
 21
65.8125
 31
0.0
  0
LINE
  8
0
 62
     0
 10
164.495
 20
65.8125
 30
0.0
 11
165.294
 21
65.8125
 31
0.0
  0
LINE
  8
0
 62
     0
 10
165.294
 20
65.8125
 30
0.0
 11
165.294
 21
68.9116
 31
0.0
  0
LINE
  8
0
 62
     0
 10
165.294
 20
68.9116
 30
0.0
 11
164.495
 21
68.9116
 31
0.0
  0
LINE
  8
0
 62
     0
 10
164.495
 20
68.9116
 30
0.0
 11
164.495
 21
74.713
 31
0.0
  0
LINE
  8
0
 62
     0
 10
164.495
 20
74.713
 30
0.0
 11
165.294
 21
74.713
 31
0.0
  0
LINE
  8
0
 62
     0
 10
165.294
 20
74.713
 30
0.0
 11
165.294
 21
77.8122
 31
0.0
  0
LINE
  8
0
 62
     0
 10
165.294
 20
77.8122
 30
0.0
 11
164.495
 21
77.8122
 31
0.0
  0
LINE
  8
0
 62
     0
 10
164.495
 20
77.8122
 30
0.0
 11
164.495
 21
78.8113
 31
0.0
  0
LINE
  8
0
 62
     0
 10
164.495
 20
78.8113
 30
0.0
 11
150.494
 21
78.8113
 31
0.0
  0
LINE
  8
0
 62
     0
 10
131.444
 20
78.8113
 30
0.0
 11
131.444
 21
77.8122
 31
0.0
  0
LINE
  8
0
 62
     0
 10
131.444
 20
77.8122
 30
0.0
 11
130.643
 21
77.8122
 31
0.0
  0
LINE
  8
0
 62
     0
 10
130.643
 20
77.8122
 30
0.0
 11
130.643
 21
74.713
 31
0.0
  0
LINE
  8
0
 62
     0
 10
130.643
 20
74.713
 30
0.0
 11
131.444
 21
74.713
 31
0.0
  0
LINE
  8
0
 62
     0
 10
131.444
 20
74.713
 30
0.0
 11
131.444
 21
68.9116
 31
0.0
  0
LINE
  8
0
 62
     0
 10
131.444
 20
68.9116
 30
0.0
 11
130.643
 21
68.9116
 31
0.0
  0
LINE
  8
0
 62
     0
 10
130.643
 20
68.9116
 30
0.0
 11
130.643
 21
65.8125
 31
0.0
  0
LINE
  8
0
 62
     0
 10
130.643
 20
65.8125
 30
0.0
 11
131.444
 21
65.8125
 31
0.0
  0
LINE
  8
0
 62
     0
 10
131.444
 20
65.8125
 30
0.0
 11
131.444
 21
64.812
 31
0.0
  0
LINE
  8
0
 62
     0
 10
131.444
 20
64.812
 30
0.0
 11
145.445
 21
64.812
 31
0.0
  0
LINE
  8
0
 62
     0
 10
145.445
 20
64.812
 30
0.0
 11
145.445
 21
65.8125
 31
0.0
  0
LINE
  8
0
 62
     0
 10
145.445
 20
65.8125
 30
0.0
 11
146.244
 21
65.8125
 31
0.0
  0
LINE
  8
0
 62
     0
 10
146.244
 20
65.8125
 30
0.0
 11
146.244
 21
68.9116
 31
0.0
  0
LINE
  8
0
 62
     0
 10
146.244
 20
68.9116
 30
0.0
 11
145.445
 21
68.9116
 31
0.0
  0
LINE
  8
0
 62
     0
 10
145.445
 20
68.9116
 30
0.0
 11
145.445
 21
74.713
 31
0.0
  0
LINE
  8
0
 62
     0
 10
145.445
 20
74.713
 30
0.0
 11
146.244
 21
74.713
 31
0.0
  0
LINE
  8
0
 62
     0
 10
146.244
 20
74.713
 30
0.0
 11
146.244
 21
77.8122
 31
0.0
  0
LINE
  8
0
 62
     0
 10
146.244
 20
77.8122
 30
0.0
 11
145.445
 21
77.8122
 31
0.0
  0
LINE
  8
0
 62
     0
 10
145.445
 20
77.8122
 30
0.0
 11
145.445
 21
78.8113
 31
0.0
  0
LINE
  8
0
 62
     0
 10
145.445
 20
78.8113
 30
0.0
 11
131.444
 21
78.8113
 31
0.0
  0
LINE
  8
0
 62
     0
 10
112.394
 20
78.8113
 30
0.0
 11
112.394
 21
77.8122
 31
0.0
  0
LINE
  8
0
 62
     0
 10
112.394
 20
77.8122
 30
0.0
 11
111.595
 21
77.8122
 31
0.0
  0
LINE
  8
0
 62
     0
 10
111.595
 20
77.8122
 30
0.0
 11
111.595
 21
74.713
 31
0.0
  0
LINE
  8
0
 62
     0
 10
111.595
 20
74.713
 30
0.0
 11
112.394
 21
74.713
 31
0.0
  0
LINE
  8
0
 62
     0
 10
112.394
 20
74.713
 30
0.0
 11
112.394
 21
68.9116
 31
0.0
  0
LINE
  8
0
 62
     0
 10
112.394
 20
68.9116
 30
0.0
 11
111.595
 21
68.9116
 31
0.0
  0
LINE
  8
0
 62
     0
 10
111.595
 20
68.9116
 30
0.0
 11
111.595
 21
65.8125
 31
0.0
  0
LINE
  8
0
 62
     0
 10
111.595
 20
65.8125
 30
0.0
 11
112.394
 21
65.8125
 31
0.0
  0
LINE
  8
0
 62
     0
 10
112.394
 20
65.8125
 30
0.0
 11
112.394
 21
64.812
 31
0.0
  0
LINE
  8
0
 62
     0
 10
112.394
 20
64.812
 30
0.0
 11
126.395
 21
64.812
 31
0.0
  0
LINE
  8
0
 62
     0
 10
126.395
 20
64.812
 30
0.0
 11
126.395
 21
65.8125
 31
0.0
  0
LINE
  8
0
 62
     0
 10
126.395
 20
65.8125
 30
0.0
 11
127.194
 21
65.8125
 31
0.0
  0
LINE
  8
0
 62
     0
 10
127.194
 20
65.8125
 30
0.0
 11
127.194
 21
68.9116
 31
0.0
  0
LINE
  8
0
 62
     0
 10
127.194
 20
68.9116
 30
0.0
 11
126.395
 21
68.9116
 31
0.0
  0
LINE
  8
0
 62
     0
 10
126.395
 20
68.9116
 30
0.0
 11
126.395
 21
74.713
 31
0.0
  0
LINE
  8
0
 62
     0
 10
126.395
 20
74.713
 30
0.0
 11
127.194
 21
74.713
 31
0.0
  0
LINE
  8
0
 62
     0
 10
127.194
 20
74.713
 30
0.0
 11
127.194
 21
77.8122
 31
0.0
  0
LINE
  8
0
 62
     0
 10
127.194
 20
77.8122
 30
0.0
 11
126.395
 21
77.8122
 31
0.0
  0
LINE
  8
0
 62
     0
 10
126.395
 20
77.8122
 30
0.0
 11
126.395
 21
78.8113
 31
0.0
  0
LINE
  8
0
 62
     0
 10
126.395
 20
78.8113
 30
0.0
 11
112.394
 21
78.8113
 31
0.0
  0
LINE
  8
0
 62
     0
 10
93.3443
 20
78.8113
 30
0.0
 11
93.3443
 21
77.8122
 31
0.0
  0
LINE
  8
0
 62
     0
 10
93.3443
 20
77.8122
 30
0.0
 11
92.5449
 21
77.8122
 31
0.0
  0
LINE
  8
0
 62
     0
 10
92.5449
 20
77.8122
 30
0.0
 11
92.5449
 21
74.713
 31
0.0
  0
LINE
  8
0
 62
     0
 10
92.5449
 20
74.713
 30
0.0
 11
93.3443
 21
74.713
 31
0.0
  0
LINE
  8
0
 62
     0
 10
93.3443
 20
74.713
 30
0.0
 11
93.3443
 21
68.9116
 31
0.0
  0
LINE
  8
0
 62
     0
 10
93.3443
 20
68.9116
 30
0.0
 11
92.5449
 21
68.9116
 31
0.0
  0
LINE
  8
0
 62
     0
 10
92.5449
 20
68.9116
 30
0.0
 11
92.5449
 21
65.8125
 31
0.0
  0
LINE
  8
0
 62
     0
 10
92.5449
 20
65.8125
 30
0.0
 11
93.3443
 21
65.8125
 31
0.0
  0
LINE
  8
0
 62
     0
 10
93.3443
 20
65.8125
 30
0.0
 11
93.3443
 21
64.812
 31
0.0
  0
LINE
  8
0
 62
     0
 10
93.3443
 20
64.812
 30
0.0
 11
107.345
 21
64.812
 31
0.0
  0
LINE
  8
0
 62
     0
 10
107.345
 20
64.812
 30
0.0
 11
107.345
 21
65.8125
 31
0.0
  0
LINE
  8
0
 62
     0
 10
107.345
 20
65.8125
 30
0.0
 11
108.144
 21
65.8125
 31
0.0
  0
LINE
  8
0
 62
     0
 10
108.144
 20
65.8125
 30
0.0
 11
108.144
 21
68.9116
 31
0.0
  0
LINE
  8
0
 62
     0
 10
108.144
 20
68.9116
 30
0.0
 11
107.345
 21
68.9116
 31
0.0
  0
LINE
  8
0
 62
     0
 10
107.345
 20
68.9116
 30
0.0
 11
107.345
 21
74.713
 31
0.0
  0
LINE
  8
0
 62
     0
 10
107.345
 20
74.713
 30
0.0
 11
108.144
 21
74.713
 31
0.0
  0
LINE
  8
0
 62
     0
 10
108.144
 20
74.713
 30
0.0
 11
108.144
 21
77.8122
 31
0.0
  0
LINE
  8
0
 62
     0
 10
108.144
 20
77.8122
 30
0.0
 11
107.345
 21
77.8122
 31
0.0
  0
LINE
  8
0
 62
     0
 10
107.345
 20
77.8122
 30
0.0
 11
107.345
 21
78.8113
 31
0.0
  0
LINE
  8
0
 62
     0
 10
107.345
 20
78.8113
 30
0.0
 11
93.3443
 21
78.8113
 31
0.0
  0
LINE
  8
0
 62
     0
 10
74.2943
 20
78.8113
 30
0.0
 11
74.2943
 21
77.8122
 31
0.0
  0
LINE
  8
0
 62
     0
 10
74.2943
 20
77.8122
 30
0.0
 11
73.4949
 21
77.8122
 31
0.0
  0
LINE
  8
0
 62
     0
 10
73.4949
 20
77.8122
 30
0.0
 11
73.4949
 21
74.713
 31
0.0
  0
LINE
  8
0
 62
     0
 10
73.4949
 20
74.713
 30
0.0
 11
74.2943
 21
74.713
 31
0.0
  0
LINE
  8
0
 62
     0
 10
74.2943
 20
74.713
 30
0.0
 11
74.2943
 21
68.9116
 31
0.0
  0
LINE
  8
0
 62
     0
 10
74.2943
 20
68.9116
 30
0.0
 11
73.4949
 21
68.9116
 31
0.0
  0
LINE
  8
0
 62
     0
 10
73.4949
 20
68.9116
 30
0.0
 11
73.4949
 21
65.8125
 31
0.0
  0
LINE
  8
0
 62
     0
 10
73.4949
 20
65.8125
 30
0.0
 11
74.2943
 21
65.8125
 31
0.0
  0
LINE
  8
0
 62
     0
 10
74.2943
 20
65.8125
 30
0.0
 11
74.2943
 21
64.812
 31
0.0
  0
LINE
  8
0
 62
     0
 10
74.2943
 20
64.812
 30
0.0
 11
88.295
 21
64.812
 31
0.0
  0
LINE
  8
0
 62
     0
 10
88.295
 20
64.812
 30
0.0
 11
88.295
 21
65.8125
 31
0.0
  0
LINE
  8
0
 62
     0
 10
88.295
 20
65.8125
 30
0.0
 11
89.0944
 21
65.8125
 31
0.0
  0
LINE
  8
0
 62
     0
 10
89.0944
 20
65.8125
 30
0.0
 11
89.0944
 21
68.9116
 31
0.0
  0
LINE
  8
0
 62
     0
 10
89.0944
 20
68.9116
 30
0.0
 11
88.295
 21
68.9116
 31
0.0
  0
LINE
  8
0
 62
     0
 10
88.295
 20
68.9116
 30
0.0
 11
88.295
 21
74.713
 31
0.0
  0
LINE
  8
0
 62
     0
 10
88.295
 20
74.713
 30
0.0
 11
89.0944
 21
74.713
 31
0.0
  0
LINE
  8
0
 62
     0
 10
89.0944
 20
74.713
 30
0.0
 11
89.0944
 21
77.8122
 31
0.0
  0
LINE
  8
0
 62
     0
 10
89.0944
 20
77.8122
 30
0.0
 11
88.295
 21
77.8122
 31
0.0
  0
LINE
  8
0
 62
     0
 10
88.295
 20
77.8122
 30
0.0
 11
88.295
 21
78.8113
 31
0.0
  0
LINE
  8
0
 62
     0
 10
88.295
 20
78.8113
 30
0.0
 11
74.2943
 21
78.8113
 31
0.0
  0
LINE
  8
0
 62
     0
 10
55.2443
 20
78.8113
 30
0.0
 11
55.2443
 21
77.8122
 31
0.0
  0
LINE
  8
0
 62
     0
 10
55.2443
 20
77.8122
 30
0.0
 11
54.4449
 21
77.8122
 31
0.0
  0
LINE
  8
0
 62
     0
 10
54.4449
 20
77.8122
 30
0.0
 11
54.4449
 21
74.713
 31
0.0
  0
LINE
  8
0
 62
     0
 10
54.4449
 20
74.713
 30
0.0
 11
55.2443
 21
74.713
 31
0.0
  0
LINE
  8
0
 62
     0
 10
55.2443
 20
74.713
 30
0.0
 11
55.2443
 21
68.9116
 31
0.0
  0
LINE
  8
0
 62
     0
 10
55.2443
 20
68.9116
 30
0.0
 11
54.4449
 21
68.9116
 31
0.0
  0
LINE
  8
0
 62
     0
 10
54.4449
 20
68.9116
 30
0.0
 11
54.4449
 21
65.8125
 31
0.0
  0
LINE
  8
0
 62
     0
 10
54.4449
 20
65.8125
 30
0.0
 11
55.2443
 21
65.8125
 31
0.0
  0
LINE
  8
0
 62
     0
 10
55.2443
 20
65.8125
 30
0.0
 11
55.2443
 21
64.812
 31
0.0
  0
LINE
  8
0
 62
     0
 10
55.2443
 20
64.812
 30
0.0
 11
69.245
 21
64.812
 31
0.0
  0
LINE
  8
0
 62
     0
 10
69.245
 20
64.812
 30
0.0
 11
69.245
 21
65.8125
 31
0.0
  0
LINE
  8
0
 62
     0
 10
69.245
 20
65.8125
 30
0.0
 11
70.0444
 21
65.8125
 31
0.0
  0
LINE
  8
0
 62
     0
 10
70.0444
 20
65.8125
 30
0.0
 11
70.0444
 21
68.9116
 31
0.0
  0
LINE
  8
0
 62
     0
 10
70.0444
 20
68.9116
 30
0.0
 11
69.245
 21
68.9116
 31
0.0
  0
LINE
  8
0
 62
     0
 10
69.245
 20
68.9116
 30
0.0
 11
69.245
 21
74.713
 31
0.0
  0
LINE
  8
0
 62
     0
 10
69.245
 20
74.713
 30
0.0
 11
70.0444
 21
74.713
 31
0.0
  0
LINE
  8
0
 62
     0
 10
70.0444
 20
74.713
 30
0.0
 11
70.0444
 21
77.8122
 31
0.0
  0
LINE
  8
0
 62
     0
 10
70.0444
 20
77.8122
 30
0.0
 11
69.245
 21
77.8122
 31
0.0
  0
LINE
  8
0
 62
     0
 10
69.245
 20
77.8122
 30
0.0
 11
69.245
 21
78.8113
 31
0.0
  0
LINE
  8
0
 62
     0
 10
69.245
 20
78.8113
 30
0.0
 11
55.2443
 21
78.8113
 31
0.0
  0
LINE
  8
0
 62
     0
 10
36.1943
 20
78.8113
 30
0.0
 11
36.1943
 21
77.8122
 31
0.0
  0
LINE
  8
0
 62
     0
 10
36.1943
 20
77.8122
 30
0.0
 11
35.3949
 21
77.8122
 31
0.0
  0
LINE
  8
0
 62
     0
 10
35.3949
 20
77.8122
 30
0.0
 11
35.3949
 21
74.713
 31
0.0
  0
LINE
  8
0
 62
     0
 10
35.3949
 20
74.713
 30
0.0
 11
36.1943
 21
74.713
 31
0.0
  0
LINE
  8
0
 62
     0
 10
36.1943
 20
74.713
 30
0.0
 11
36.1943
 21
68.9116
 31
0.0
  0
LINE
  8
0
 62
     0
 10
36.1943
 20
68.9116
 30
0.0
 11
35.3949
 21
68.9116
 31
0.0
  0
LINE
  8
0
 62
     0
 10
35.3949
 20
68.9116
 30
0.0
 11
35.3949
 21
65.8125
 31
0.0
  0
LINE
  8
0
 62
     0
 10
35.3949
 20
65.8125
 30
0.0
 11
36.1943
 21
65.8125
 31
0.0
  0
LINE
  8
0
 62
     0
 10
36.1943
 20
65.8125
 30
0.0
 11
36.1943
 21
64.812
 31
0.0
  0
LINE
  8
0
 62
     0
 10
36.1943
 20
64.812
 30
0.0
 11
50.195
 21
64.812
 31
0.0
  0
LINE
  8
0
 62
     0
 10
50.195
 20
64.812
 30
0.0
 11
50.195
 21
65.8125
 31
0.0
  0
LINE
  8
0
 62
     0
 10
50.195
 20
65.8125
 30
0.0
 11
50.9944
 21
65.8125
 31
0.0
  0
LINE
  8
0
 62
     0
 10
50.9944
 20
65.8125
 30
0.0
 11
50.9944
 21
68.9116
 31
0.0
  0
LINE
  8
0
 62
     0
 10
50.9944
 20
68.9116
 30
0.0
 11
50.195
 21
68.9116
 31
0.0
  0
LINE
  8
0
 62
     0
 10
50.195
 20
68.9116
 30
0.0
 11
50.195
 21
74.713
 31
0.0
  0
LINE
  8
0
 62
     0
 10
50.195
 20
74.713
 30
0.0
 11
50.9944
 21
74.713
 31
0.0
  0
LINE
  8
0
 62
     0
 10
50.9944
 20
74.713
 30
0.0
 11
50.9944
 21
77.8122
 31
0.0
  0
LINE
  8
0
 62
     0
 10
50.9944
 20
77.8122
 30
0.0
 11
50.195
 21
77.8122
 31
0.0
  0
LINE
  8
0
 62
     0
 10
50.195
 20
77.8122
 30
0.0
 11
50.195
 21
78.8113
 31
0.0
  0
LINE
  8
0
 62
     0
 10
50.195
 20
78.8113
 30
0.0
 11
36.1943
 21
78.8113
 31
0.0
  0
LINE
  8
0
 62
     0
 10
12.3817
 20
78.8113
 30
0.0
 11
12.3817
 21
77.8122
 31
0.0
  0
LINE
  8
0
 62
     0
 10
12.3817
 20
77.8122
 30
0.0
 11
11.581
 21
77.8122
 31
0.0
  0
LINE
  8
0
 62
     0
 10
11.581
 20
77.8122
 30
0.0
 11
11.581
 21
74.713
 31
0.0
  0
LINE
  8
0
 62
     0
 10
11.581
 20
74.713
 30
0.0
 11
12.3817
 21
74.713
 31
0.0
  0
LINE
  8
0
 62
     0
 10
12.3817
 20
74.713
 30
0.0
 11
12.3817
 21
68.9116
 31
0.0
  0
LINE
  8
0
 62
     0
 10
12.3817
 20
68.9116
 30
0.0
 11
11.581
 21
68.9116
 31
0.0
  0
LINE
  8
0
 62
     0
 10
11.581
 20
68.9116
 30
0.0
 11
11.581
 21
65.8125
 31
0.0
  0
LINE
  8
0
 62
     0
 10
11.581
 20
65.8125
 30
0.0
 11
12.3817
 21
65.8125
 31
0.0
  0
LINE
  8
0
 62
     0
 10
12.3817
 20
65.8125
 30
0.0
 11
12.3817
 21
64.812
 31
0.0
  0
LINE
  8
0
 62
     0
 10
12.3817
 20
64.812
 30
0.0
 11
26.3812
 21
64.812
 31
0.0
  0
LINE
  8
0
 62
     0
 10
26.3812
 20
64.812
 30
0.0
 11
26.3812
 21
65.8125
 31
0.0
  0
LINE
  8
0
 62
     0
 10
26.3812
 20
65.8125
 30
0.0
 11
27.1818
 21
65.8125
 31
0.0
  0
LINE
  8
0
 62
     0
 10
27.1818
 20
65.8125
 30
0.0
 11
27.1818
 21
68.9116
 31
0.0
  0
LINE
  8
0
 62
     0
 10
27.1818
 20
68.9116
 30
0.0
 11
26.3812
 21
68.9116
 31
0.0
  0
LINE
  8
0
 62
     0
 10
26.3812
 20
68.9116
 30
0.0
 11
26.3812
 21
74.713
 31
0.0
  0
LINE
  8
0
 62
     0
 10
26.3812
 20
74.713
 30
0.0
 11
27.1818
 21
74.713
 31
0.0
  0
LINE
  8
0
 62
     0
 10
27.1818
 20
74.713
 30
0.0
 11
27.1818
 21
77.8122
 31
0.0
  0
LINE
  8
0
 62
     0
 10
27.1818
 20
77.8122
 30
0.0
 11
26.3812
 21
77.8122
 31
0.0
  0
LINE
  8
0
 62
     0
 10
26.3812
 20
77.8122
 30
0.0
 11
26.3812
 21
78.8113
 31
0.0
  0
LINE
  8
0
 62
     0
 10
26.3812
 20
78.8113
 30
0.0
 11
12.3817
 21
78.8113
 31
0.0
  0
LINE
  8
0
 62
     0
 10
340.994
 20
83.5738
 30
0.0
 11
340.994
 21
82.5733
 31
0.0
  0
LINE
  8
0
 62
     0
 10
340.994
 20
82.5733
 30
0.0
 11
340.195
 21
82.5733
 31
0.0
  0
LINE
  8
0
 62
     0
 10
340.195
 20
82.5733
 30
0.0
 11
340.195
 21
79.4741
 31
0.0
  0
LINE
  8
0
 62
     0
 10
340.195
 20
79.4741
 30
0.0
 11
340.994
 21
79.4741
 31
0.0
  0
LINE
  8
0
 62
     0
 10
340.994
 20
79.4741
 30
0.0
 11
340.994
 21
73.6741
 31
0.0
  0
LINE
  8
0
 62
     0
 10
340.994
 20
73.6741
 30
0.0
 11
340.195
 21
73.6741
 31
0.0
  0
LINE
  8
0
 62
     0
 10
340.195
 20
73.6741
 30
0.0
 11
340.195
 21
70.5735
 31
0.0
  0
LINE
  8
0
 62
     0
 10
340.195
 20
70.5735
 30
0.0
 11
340.994
 21
70.5735
 31
0.0
  0
LINE
  8
0
 62
     0
 10
340.994
 20
70.5735
 30
0.0
 11
340.994
 21
69.5745
 31
0.0
  0
LINE
  8
0
 62
     0
 10
340.994
 20
69.5745
 30
0.0
 11
354.997
 21
69.5745
 31
0.0
  0
LINE
  8
0
 62
     0
 10
354.997
 20
69.5745
 30
0.0
 11
354.997
 21
70.5735
 31
0.0
  0
LINE
  8
0
 62
     0
 10
354.997
 20
70.5735
 30
0.0
 11
355.794
 21
70.5735
 31
0.0
  0
LINE
  8
0
 62
     0
 10
355.794
 20
70.5735
 30
0.0
 11
355.794
 21
73.6741
 31
0.0
  0
LINE
  8
0
 62
     0
 10
355.794
 20
73.6741
 30
0.0
 11
354.997
 21
73.6741
 31
0.0
  0
LINE
  8
0
 62
     0
 10
354.997
 20
73.6741
 30
0.0
 11
354.997
 21
79.4741
 31
0.0
  0
LINE
  8
0
 62
     0
 10
354.997
 20
79.4741
 30
0.0
 11
355.794
 21
79.4741
 31
0.0
  0
LINE
  8
0
 62
     0
 10
355.794
 20
79.4741
 30
0.0
 11
355.794
 21
82.5733
 31
0.0
  0
LINE
  8
0
 62
     0
 10
355.794
 20
82.5733
 30
0.0
 11
354.997
 21
82.5733
 31
0.0
  0
LINE
  8
0
 62
     0
 10
354.997
 20
82.5733
 30
0.0
 11
354.997
 21
83.5738
 31
0.0
  0
LINE
  8
0
 62
     0
 10
354.997
 20
83.5738
 30
0.0
 11
340.994
 21
83.5738
 31
0.0
  0
LINE
  8
0
 62
     0
 10
321.944
 20
83.5738
 30
0.0
 11
321.944
 21
82.5733
 31
0.0
  0
LINE
  8
0
 62
     0
 10
321.944
 20
82.5733
 30
0.0
 11
321.145
 21
82.5733
 31
0.0
  0
LINE
  8
0
 62
     0
 10
321.145
 20
82.5733
 30
0.0
 11
321.145
 21
79.4741
 31
0.0
  0
LINE
  8
0
 62
     0
 10
321.145
 20
79.4741
 30
0.0
 11
321.944
 21
79.4741
 31
0.0
  0
LINE
  8
0
 62
     0
 10
321.944
 20
79.4741
 30
0.0
 11
321.944
 21
73.6741
 31
0.0
  0
LINE
  8
0
 62
     0
 10
321.944
 20
73.6741
 30
0.0
 11
321.145
 21
73.6741
 31
0.0
  0
LINE
  8
0
 62
     0
 10
321.145
 20
73.6741
 30
0.0
 11
321.145
 21
70.5735
 31
0.0
  0
LINE
  8
0
 62
     0
 10
321.145
 20
70.5735
 30
0.0
 11
321.944
 21
70.5735
 31
0.0
  0
LINE
  8
0
 62
     0
 10
321.944
 20
70.5735
 30
0.0
 11
321.944
 21
69.5745
 31
0.0
  0
LINE
  8
0
 62
     0
 10
321.944
 20
69.5745
 30
0.0
 11
335.945
 21
69.5745
 31
0.0
  0
LINE
  8
0
 62
     0
 10
335.945
 20
69.5745
 30
0.0
 11
335.945
 21
70.5735
 31
0.0
  0
LINE
  8
0
 62
     0
 10
335.945
 20
70.5735
 30
0.0
 11
336.744
 21
70.5735
 31
0.0
  0
LINE
  8
0
 62
     0
 10
336.744
 20
70.5735
 30
0.0
 11
336.744
 21
73.6741
 31
0.0
  0
LINE
  8
0
 62
     0
 10
336.744
 20
73.6741
 30
0.0
 11
335.945
 21
73.6741
 31
0.0
  0
LINE
  8
0
 62
     0
 10
335.945
 20
73.6741
 30
0.0
 11
335.945
 21
79.4741
 31
0.0
  0
LINE
  8
0
 62
     0
 10
335.945
 20
79.4741
 30
0.0
 11
336.744
 21
79.4741
 31
0.0
  0
LINE
  8
0
 62
     0
 10
336.744
 20
79.4741
 30
0.0
 11
336.744
 21
82.5733
 31
0.0
  0
LINE
  8
0
 62
     0
 10
336.744
 20
82.5733
 30
0.0
 11
335.945
 21
82.5733
 31
0.0
  0
LINE
  8
0
 62
     0
 10
335.945
 20
82.5733
 30
0.0
 11
335.945
 21
83.5738
 31
0.0
  0
LINE
  8
0
 62
     0
 10
335.945
 20
83.5738
 30
0.0
 11
321.944
 21
83.5738
 31
0.0
  0
LINE
  8
0
 62
     0
 10
302.894
 20
83.5738
 30
0.0
 11
302.894
 21
82.5733
 31
0.0
  0
LINE
  8
0
 62
     0
 10
302.894
 20
82.5733
 30
0.0
 11
302.095
 21
82.5733
 31
0.0
  0
LINE
  8
0
 62
     0
 10
302.095
 20
82.5733
 30
0.0
 11
302.095
 21
79.4741
 31
0.0
  0
LINE
  8
0
 62
     0
 10
302.095
 20
79.4741
 30
0.0
 11
302.894
 21
79.4741
 31
0.0
  0
LINE
  8
0
 62
     0
 10
302.894
 20
79.4741
 30
0.0
 11
302.894
 21
73.6741
 31
0.0
  0
LINE
  8
0
 62
     0
 10
302.894
 20
73.6741
 30
0.0
 11
302.095
 21
73.6741
 31
0.0
  0
LINE
  8
0
 62
     0
 10
302.095
 20
73.6741
 30
0.0
 11
302.095
 21
70.5735
 31
0.0
  0
LINE
  8
0
 62
     0
 10
302.095
 20
70.5735
 30
0.0
 11
302.894
 21
70.5735
 31
0.0
  0
LINE
  8
0
 62
     0
 10
302.894
 20
70.5735
 30
0.0
 11
302.894
 21
69.5745
 31
0.0
  0
LINE
  8
0
 62
     0
 10
302.894
 20
69.5745
 30
0.0
 11
316.895
 21
69.5745
 31
0.0
  0
LINE
  8
0
 62
     0
 10
316.895
 20
69.5745
 30
0.0
 11
316.895
 21
70.5735
 31
0.0
  0
LINE
  8
0
 62
     0
 10
316.895
 20
70.5735
 30
0.0
 11
317.694
 21
70.5735
 31
0.0
  0
LINE
  8
0
 62
     0
 10
317.694
 20
70.5735
 30
0.0
 11
317.694
 21
73.6741
 31
0.0
  0
LINE
  8
0
 62
     0
 10
317.694
 20
73.6741
 30
0.0
 11
316.895
 21
73.6741
 31
0.0
  0
LINE
  8
0
 62
     0
 10
316.895
 20
73.6741
 30
0.0
 11
316.895
 21
79.4741
 31
0.0
  0
LINE
  8
0
 62
     0
 10
316.895
 20
79.4741
 30
0.0
 11
317.694
 21
79.4741
 31
0.0
  0
LINE
  8
0
 62
     0
 10
317.694
 20
79.4741
 30
0.0
 11
317.694
 21
82.5733
 31
0.0
  0
LINE
  8
0
 62
     0
 10
317.694
 20
82.5733
 30
0.0
 11
316.895
 21
82.5733
 31
0.0
  0
LINE
  8
0
 62
     0
 10
316.895
 20
82.5733
 30
0.0
 11
316.895
 21
83.5738
 31
0.0
  0
LINE
  8
0
 62
     0
 10
316.895
 20
83.5738
 30
0.0
 11
302.894
 21
83.5738
 31
0.0
  0
LINE
  8
0
 62
     0
 10
264.794
 20
97.8613
 30
0.0
 11
264.794
 21
96.8622
 31
0.0
  0
LINE
  8
0
 62
     0
 10
264.794
 20
96.8622
 30
0.0
 11
263.995
 21
96.8622
 31
0.0
  0
LINE
  8
0
 62
     0
 10
263.995
 20
96.8622
 30
0.0
 11
263.995
 21
93.7616
 31
0.0
  0
LINE
  8
0
 62
     0
 10
263.995
 20
93.7616
 30
0.0
 11
264.794
 21
93.7616
 31
0.0
  0
LINE
  8
0
 62
     0
 10
264.794
 20
93.7616
 30
0.0
 11
264.794
 21
93.1609
 31
0.0
  0
LINE
  8
0
 62
     0
 10
264.794
 20
93.1609
 30
0.0
 11
263.27
 21
93.1609
 31
0.0
  0
LINE
  8
0
 62
     0
 10
263.27
 20
93.1609
 30
0.0
 11
263.27
 21
96.3923
 31
0.0
  0
LINE
  8
0
 62
     0
 10
263.27
 20
96.3923
 30
0.0
 11
261.545
 21
96.3923
 31
0.0
  0
LINE
  8
0
 62
     0
 10
261.545
 20
96.3923
 30
0.0
 11
261.545
 21
97.3116
 31
0.0
  0
LINE
  8
0
 62
     0
 10
261.545
 20
97.3116
 30
0.0
 11
258.244
 21
97.3116
 31
0.0
  0
LINE
  8
0
 62
     0
 10
258.244
 20
97.3116
 30
0.0
 11
258.244
 21
96.3923
 31
0.0
  0
LINE
  8
0
 62
     0
 10
258.244
 20
96.3923
 30
0.0
 11
256.519
 21
96.3923
 31
0.0
  0
LINE
  8
0
 62
     0
 10
256.519
 20
96.3923
 30
0.0
 11
256.519
 21
93.1609
 31
0.0
  0
LINE
  8
0
 62
     0
 10
256.519
 20
93.1609
 30
0.0
 11
255.695
 21
93.1609
 31
0.0
  0
LINE
  8
0
 62
     0
 10
255.695
 20
93.1609
 30
0.0
 11
255.695
 21
90.3623
 31
0.0
  0
LINE
  8
0
 62
     0
 10
255.695
 20
90.3623
 30
0.0
 11
256.519
 21
90.3623
 31
0.0
  0
LINE
  8
0
 62
     0
 10
256.519
 20
90.3623
 30
0.0
 11
256.519
 21
84.092
 31
0.0
  0
LINE
  8
0
 62
     0
 10
256.519
 20
84.092
 30
0.0
 11
258.244
 21
84.092
 31
0.0
  0
LINE
  8
0
 62
     0
 10
258.244
 20
84.092
 30
0.0
 11
258.244
 21
83.1123
 31
0.0
  0
LINE
  8
0
 62
     0
 10
258.244
 20
83.1123
 30
0.0
 11
261.545
 21
83.1123
 31
0.0
  0
LINE
  8
0
 62
     0
 10
261.545
 20
83.1123
 30
0.0
 11
261.545
 21
84.092
 31
0.0
  0
LINE
  8
0
 62
     0
 10
261.545
 20
84.092
 30
0.0
 11
263.27
 21
84.092
 31
0.0
  0
LINE
  8
0
 62
     0
 10
263.27
 20
84.092
 30
0.0
 11
263.27
 21
88.5624
 31
0.0
  0
LINE
  8
0
 62
     0
 10
263.27
 20
88.5624
 30
0.0
 11
264.794
 21
88.5624
 31
0.0
  0
LINE
  8
0
 62
     0
 10
264.794
 20
88.5624
 30
0.0
 11
264.794
 21
87.9616
 31
0.0
  0
LINE
  8
0
 62
     0
 10
264.794
 20
87.9616
 30
0.0
 11
263.995
 21
87.9616
 31
0.0
  0
LINE
  8
0
 62
     0
 10
263.995
 20
87.9616
 30
0.0
 11
263.995
 21
84.8625
 31
0.0
  0
LINE
  8
0
 62
     0
 10
263.995
 20
84.8625
 30
0.0
 11
264.794
 21
84.8625
 31
0.0
  0
LINE
  8
0
 62
     0
 10
264.794
 20
84.8625
 30
0.0
 11
264.794
 21
83.862
 31
0.0
  0
LINE
  8
0
 62
     0
 10
264.794
 20
83.862
 30
0.0
 11
278.795
 21
83.862
 31
0.0
  0
LINE
  8
0
 62
     0
 10
278.795
 20
83.862
 30
0.0
 11
278.795
 21
84.8625
 31
0.0
  0
LINE
  8
0
 62
     0
 10
278.795
 20
84.8625
 30
0.0
 11
279.594
 21
84.8625
 31
0.0
  0
LINE
  8
0
 62
     0
 10
279.594
 20
84.8625
 30
0.0
 11
279.594
 21
87.9616
 31
0.0
  0
LINE
  8
0
 62
     0
 10
279.594
 20
87.9616
 30
0.0
 11
278.795
 21
87.9616
 31
0.0
  0
LINE
  8
0
 62
     0
 10
278.795
 20
87.9616
 30
0.0
 11
278.795
 21
88.5624
 31
0.0
  0
LINE
  8
0
 62
     0
 10
278.795
 20
88.5624
 30
0.0
 11
280.319
 21
88.5624
 31
0.0
  0
LINE
  8
0
 62
     0
 10
280.319
 20
88.5624
 30
0.0
 11
280.319
 21
84.092
 31
0.0
  0
LINE
  8
0
 62
     0
 10
280.319
 20
84.092
 30
0.0
 11
282.044
 21
84.092
 31
0.0
  0
LINE
  8
0
 62
     0
 10
282.044
 20
84.092
 30
0.0
 11
282.044
 21
83.1123
 31
0.0
  0
LINE
  8
0
 62
     0
 10
282.044
 20
83.1123
 30
0.0
 11
285.345
 21
83.1123
 31
0.0
  0
LINE
  8
0
 62
     0
 10
285.345
 20
83.1123
 30
0.0
 11
285.345
 21
84.092
 31
0.0
  0
LINE
  8
0
 62
     0
 10
285.345
 20
84.092
 30
0.0
 11
287.07
 21
84.092
 31
0.0
  0
LINE
  8
0
 62
     0
 10
287.07
 20
84.092
 30
0.0
 11
287.07
 21
90.3623
 31
0.0
  0
LINE
  8
0
 62
     0
 10
287.07
 20
90.3623
 30
0.0
 11
287.894
 21
90.3623
 31
0.0
  0
LINE
  8
0
 62
     0
 10
287.894
 20
90.3623
 30
0.0
 11
287.894
 21
93.1609
 31
0.0
  0
LINE
  8
0
 62
     0
 10
287.894
 20
93.1609
 30
0.0
 11
287.07
 21
93.1609
 31
0.0
  0
LINE
  8
0
 62
     0
 10
287.07
 20
93.1609
 30
0.0
 11
287.07
 21
96.3923
 31
0.0
  0
LINE
  8
0
 62
     0
 10
287.07
 20
96.3923
 30
0.0
 11
285.345
 21
96.3923
 31
0.0
  0
LINE
  8
0
 62
     0
 10
285.345
 20
96.3923
 30
0.0
 11
285.345
 21
97.3116
 31
0.0
  0
LINE
  8
0
 62
     0
 10
285.345
 20
97.3116
 30
0.0
 11
282.044
 21
97.3116
 31
0.0
  0
LINE
  8
0
 62
     0
 10
282.044
 20
97.3116
 30
0.0
 11
282.044
 21
96.3923
 31
0.0
  0
LINE
  8
0
 62
     0
 10
282.044
 20
96.3923
 30
0.0
 11
280.319
 21
96.3923
 31
0.0
  0
LINE
  8
0
 62
     0
 10
280.319
 20
96.3923
 30
0.0
 11
280.319
 21
93.1609
 31
0.0
  0
LINE
  8
0
 62
     0
 10
280.319
 20
93.1609
 30
0.0
 11
278.795
 21
93.1609
 31
0.0
  0
LINE
  8
0
 62
     0
 10
278.795
 20
93.1609
 30
0.0
 11
278.795
 21
93.7616
 31
0.0
  0
LINE
  8
0
 62
     0
 10
278.795
 20
93.7616
 30
0.0
 11
279.594
 21
93.7616
 31
0.0
  0
LINE
  8
0
 62
     0
 10
279.594
 20
93.7616
 30
0.0
 11
279.594
 21
96.8622
 31
0.0
  0
LINE
  8
0
 62
     0
 10
279.594
 20
96.8622
 30
0.0
 11
278.795
 21
96.8622
 31
0.0
  0
LINE
  8
0
 62
     0
 10
278.795
 20
96.8622
 30
0.0
 11
278.795
 21
97.8613
 31
0.0
  0
LINE
  8
0
 62
     0
 10
278.795
 20
97.8613
 30
0.0
 11
264.794
 21
97.8613
 31
0.0
  0
LINE
  8
0
 62
     0
 10
236.219
 20
97.8613
 30
0.0
 11
236.219
 21
96.8622
 31
0.0
  0
LINE
  8
0
 62
     0
 10
236.219
 20
96.8622
 30
0.0
 11
235.42
 21
96.8622
 31
0.0
  0
LINE
  8
0
 62
     0
 10
235.42
 20
96.8622
 30
0.0
 11
235.42
 21
93.7616
 31
0.0
  0
LINE
  8
0
 62
     0
 10
235.42
 20
93.7616
 30
0.0
 11
236.219
 21
93.7616
 31
0.0
  0
LINE
  8
0
 62
     0
 10
236.219
 20
93.7616
 30
0.0
 11
236.219
 21
87.9616
 31
0.0
  0
LINE
  8
0
 62
     0
 10
236.219
 20
87.9616
 30
0.0
 11
235.42
 21
87.9616
 31
0.0
  0
LINE
  8
0
 62
     0
 10
235.42
 20
87.9616
 30
0.0
 11
235.42
 21
84.8625
 31
0.0
  0
LINE
  8
0
 62
     0
 10
235.42
 20
84.8625
 30
0.0
 11
236.219
 21
84.8625
 31
0.0
  0
LINE
  8
0
 62
     0
 10
236.219
 20
84.8625
 30
0.0
 11
236.219
 21
83.862
 31
0.0
  0
LINE
  8
0
 62
     0
 10
236.219
 20
83.862
 30
0.0
 11
250.22
 21
83.862
 31
0.0
  0
LINE
  8
0
 62
     0
 10
250.22
 20
83.862
 30
0.0
 11
250.22
 21
84.8625
 31
0.0
  0
LINE
  8
0
 62
     0
 10
250.22
 20
84.8625
 30
0.0
 11
251.019
 21
84.8625
 31
0.0
  0
LINE
  8
0
 62
     0
 10
251.019
 20
84.8625
 30
0.0
 11
251.019
 21
87.9616
 31
0.0
  0
LINE
  8
0
 62
     0
 10
251.019
 20
87.9616
 30
0.0
 11
250.22
 21
87.9616
 31
0.0
  0
LINE
  8
0
 62
     0
 10
250.22
 20
87.9616
 30
0.0
 11
250.22
 21
93.7616
 31
0.0
  0
LINE
  8
0
 62
     0
 10
250.22
 20
93.7616
 30
0.0
 11
251.019
 21
93.7616
 31
0.0
  0
LINE
  8
0
 62
     0
 10
251.019
 20
93.7616
 30
0.0
 11
251.019
 21
96.8622
 31
0.0
  0
LINE
  8
0
 62
     0
 10
251.019
 20
96.8622
 30
0.0
 11
250.22
 21
96.8622
 31
0.0
  0
LINE
  8
0
 62
     0
 10
250.22
 20
96.8622
 30
0.0
 11
250.22
 21
97.8613
 31
0.0
  0
LINE
  8
0
 62
     0
 10
250.22
 20
97.8613
 30
0.0
 11
236.219
 21
97.8613
 31
0.0
  0
LINE
  8
0
 62
     0
 10
217.169
 20
97.8613
 30
0.0
 11
217.169
 21
96.8622
 31
0.0
  0
LINE
  8
0
 62
     0
 10
217.169
 20
96.8622
 30
0.0
 11
216.37
 21
96.8622
 31
0.0
  0
LINE
  8
0
 62
     0
 10
216.37
 20
96.8622
 30
0.0
 11
216.37
 21
93.7616
 31
0.0
  0
LINE
  8
0
 62
     0
 10
216.37
 20
93.7616
 30
0.0
 11
217.169
 21
93.7616
 31
0.0
  0
LINE
  8
0
 62
     0
 10
217.169
 20
93.7616
 30
0.0
 11
217.169
 21
87.9616
 31
0.0
  0
LINE
  8
0
 62
     0
 10
217.169
 20
87.9616
 30
0.0
 11
216.37
 21
87.9616
 31
0.0
  0
LINE
  8
0
 62
     0
 10
216.37
 20
87.9616
 30
0.0
 11
216.37
 21
84.8625
 31
0.0
  0
LINE
  8
0
 62
     0
 10
216.37
 20
84.8625
 30
0.0
 11
217.169
 21
84.8625
 31
0.0
  0
LINE
  8
0
 62
     0
 10
217.169
 20
84.8625
 30
0.0
 11
217.169
 21
83.862
 31
0.0
  0
LINE
  8
0
 62
     0
 10
217.169
 20
83.862
 30
0.0
 11
231.17
 21
83.862
 31
0.0
  0
LINE
  8
0
 62
     0
 10
231.17
 20
83.862
 30
0.0
 11
231.17
 21
84.8625
 31
0.0
  0
LINE
  8
0
 62
     0
 10
231.17
 20
84.8625
 30
0.0
 11
231.969
 21
84.8625
 31
0.0
  0
LINE
  8
0
 62
     0
 10
231.969
 20
84.8625
 30
0.0
 11
231.969
 21
87.9616
 31
0.0
  0
LINE
  8
0
 62
     0
 10
231.969
 20
87.9616
 30
0.0
 11
231.17
 21
87.9616
 31
0.0
  0
LINE
  8
0
 62
     0
 10
231.17
 20
87.9616
 30
0.0
 11
231.17
 21
93.7616
 31
0.0
  0
LINE
  8
0
 62
     0
 10
231.17
 20
93.7616
 30
0.0
 11
231.969
 21
93.7616
 31
0.0
  0
LINE
  8
0
 62
     0
 10
231.969
 20
93.7616
 30
0.0
 11
231.969
 21
96.8622
 31
0.0
  0
LINE
  8
0
 62
     0
 10
231.969
 20
96.8622
 30
0.0
 11
231.17
 21
96.8622
 31
0.0
  0
LINE
  8
0
 62
     0
 10
231.17
 20
96.8622
 30
0.0
 11
231.17
 21
97.8613
 31
0.0
  0
LINE
  8
0
 62
     0
 10
231.17
 20
97.8613
 30
0.0
 11
217.169
 21
97.8613
 31
0.0
  0
LINE
  8
0
 62
     0
 10
198.119
 20
97.8613
 30
0.0
 11
198.119
 21
96.8622
 31
0.0
  0
LINE
  8
0
 62
     0
 10
198.119
 20
96.8622
 30
0.0
 11
197.32
 21
96.8622
 31
0.0
  0
LINE
  8
0
 62
     0
 10
197.32
 20
96.8622
 30
0.0
 11
197.32
 21
93.7616
 31
0.0
  0
LINE
  8
0
 62
     0
 10
197.32
 20
93.7616
 30
0.0
 11
198.119
 21
93.7616
 31
0.0
  0
LINE
  8
0
 62
     0
 10
198.119
 20
93.7616
 30
0.0
 11
198.119
 21
87.9616
 31
0.0
  0
LINE
  8
0
 62
     0
 10
198.119
 20
87.9616
 30
0.0
 11
197.32
 21
87.9616
 31
0.0
  0
LINE
  8
0
 62
     0
 10
197.32
 20
87.9616
 30
0.0
 11
197.32
 21
84.8625
 31
0.0
  0
LINE
  8
0
 62
     0
 10
197.32
 20
84.8625
 30
0.0
 11
198.119
 21
84.8625
 31
0.0
  0
LINE
  8
0
 62
     0
 10
198.119
 20
84.8625
 30
0.0
 11
198.119
 21
83.862
 31
0.0
  0
LINE
  8
0
 62
     0
 10
198.119
 20
83.862
 30
0.0
 11
212.12
 21
83.862
 31
0.0
  0
LINE
  8
0
 62
     0
 10
212.12
 20
83.862
 30
0.0
 11
212.12
 21
84.8625
 31
0.0
  0
LINE
  8
0
 62
     0
 10
212.12
 20
84.8625
 30
0.0
 11
212.919
 21
84.8625
 31
0.0
  0
LINE
  8
0
 62
     0
 10
212.919
 20
84.8625
 30
0.0
 11
212.919
 21
87.9616
 31
0.0
  0
LINE
  8
0
 62
     0
 10
212.919
 20
87.9616
 30
0.0
 11
212.12
 21
87.9616
 31
0.0
  0
LINE
  8
0
 62
     0
 10
212.12
 20
87.9616
 30
0.0
 11
212.12
 21
93.7616
 31
0.0
  0
LINE
  8
0
 62
     0
 10
212.12
 20
93.7616
 30
0.0
 11
212.919
 21
93.7616
 31
0.0
  0
LINE
  8
0
 62
     0
 10
212.919
 20
93.7616
 30
0.0
 11
212.919
 21
96.8622
 31
0.0
  0
LINE
  8
0
 62
     0
 10
212.919
 20
96.8622
 30
0.0
 11
212.12
 21
96.8622
 31
0.0
  0
LINE
  8
0
 62
     0
 10
212.12
 20
96.8622
 30
0.0
 11
212.12
 21
97.8613
 31
0.0
  0
LINE
  8
0
 62
     0
 10
212.12
 20
97.8613
 30
0.0
 11
198.119
 21
97.8613
 31
0.0
  0
LINE
  8
0
 62
     0
 10
179.069
 20
97.8613
 30
0.0
 11
179.069
 21
96.8622
 31
0.0
  0
LINE
  8
0
 62
     0
 10
179.069
 20
96.8622
 30
0.0
 11
178.27
 21
96.8622
 31
0.0
  0
LINE
  8
0
 62
     0
 10
178.27
 20
96.8622
 30
0.0
 11
178.27
 21
93.7616
 31
0.0
  0
LINE
  8
0
 62
     0
 10
178.27
 20
93.7616
 30
0.0
 11
179.069
 21
93.7616
 31
0.0
  0
LINE
  8
0
 62
     0
 10
179.069
 20
93.7616
 30
0.0
 11
179.069
 21
87.9616
 31
0.0
  0
LINE
  8
0
 62
     0
 10
179.069
 20
87.9616
 30
0.0
 11
178.27
 21
87.9616
 31
0.0
  0
LINE
  8
0
 62
     0
 10
178.27
 20
87.9616
 30
0.0
 11
178.27
 21
84.8625
 31
0.0
  0
LINE
  8
0
 62
     0
 10
178.27
 20
84.8625
 30
0.0
 11
179.069
 21
84.8625
 31
0.0
  0
LINE
  8
0
 62
     0
 10
179.069
 20
84.8625
 30
0.0
 11
179.069
 21
83.862
 31
0.0
  0
LINE
  8
0
 62
     0
 10
179.069
 20
83.862
 30
0.0
 11
193.07
 21
83.862
 31
0.0
  0
LINE
  8
0
 62
     0
 10
193.07
 20
83.862
 30
0.0
 11
193.07
 21
84.8625
 31
0.0
  0
LINE
  8
0
 62
     0
 10
193.07
 20
84.8625
 30
0.0
 11
193.869
 21
84.8625
 31
0.0
  0
LINE
  8
0
 62
     0
 10
193.869
 20
84.8625
 30
0.0
 11
193.869
 21
87.9616
 31
0.0
  0
LINE
  8
0
 62
     0
 10
193.869
 20
87.9616
 30
0.0
 11
193.07
 21
87.9616
 31
0.0
  0
LINE
  8
0
 62
     0
 10
193.07
 20
87.9616
 30
0.0
 11
193.07
 21
93.7616
 31
0.0
  0
LINE
  8
0
 62
     0
 10
193.07
 20
93.7616
 30
0.0
 11
193.869
 21
93.7616
 31
0.0
  0
LINE
  8
0
 62
     0
 10
193.869
 20
93.7616
 30
0.0
 11
193.869
 21
96.8622
 31
0.0
  0
LINE
  8
0
 62
     0
 10
193.869
 20
96.8622
 30
0.0
 11
193.07
 21
96.8622
 31
0.0
  0
LINE
  8
0
 62
     0
 10
193.07
 20
96.8622
 30
0.0
 11
193.07
 21
97.8613
 31
0.0
  0
LINE
  8
0
 62
     0
 10
193.07
 20
97.8613
 30
0.0
 11
179.069
 21
97.8613
 31
0.0
  0
LINE
  8
0
 62
     0
 10
160.019
 20
97.8613
 30
0.0
 11
160.019
 21
96.8622
 31
0.0
  0
LINE
  8
0
 62
     0
 10
160.019
 20
96.8622
 30
0.0
 11
159.22
 21
96.8622
 31
0.0
  0
LINE
  8
0
 62
     0
 10
159.22
 20
96.8622
 30
0.0
 11
159.22
 21
93.7616
 31
0.0
  0
LINE
  8
0
 62
     0
 10
159.22
 20
93.7616
 30
0.0
 11
160.019
 21
93.7616
 31
0.0
  0
LINE
  8
0
 62
     0
 10
160.019
 20
93.7616
 30
0.0
 11
160.019
 21
87.9616
 31
0.0
  0
LINE
  8
0
 62
     0
 10
160.019
 20
87.9616
 30
0.0
 11
159.22
 21
87.9616
 31
0.0
  0
LINE
  8
0
 62
     0
 10
159.22
 20
87.9616
 30
0.0
 11
159.22
 21
84.8625
 31
0.0
  0
LINE
  8
0
 62
     0
 10
159.22
 20
84.8625
 30
0.0
 11
160.019
 21
84.8625
 31
0.0
  0
LINE
  8
0
 62
     0
 10
160.019
 20
84.8625
 30
0.0
 11
160.019
 21
83.862
 31
0.0
  0
LINE
  8
0
 62
     0
 10
160.019
 20
83.862
 30
0.0
 11
174.02
 21
83.862
 31
0.0
  0
LINE
  8
0
 62
     0
 10
174.02
 20
83.862
 30
0.0
 11
174.02
 21
84.8625
 31
0.0
  0
LINE
  8
0
 62
     0
 10
174.02
 20
84.8625
 30
0.0
 11
174.819
 21
84.8625
 31
0.0
  0
LINE
  8
0
 62
     0
 10
174.819
 20
84.8625
 30
0.0
 11
174.819
 21
87.9616
 31
0.0
  0
LINE
  8
0
 62
     0
 10
174.819
 20
87.9616
 30
0.0
 11
174.02
 21
87.9616
 31
0.0
  0
LINE
  8
0
 62
     0
 10
174.02
 20
87.9616
 30
0.0
 11
174.02
 21
93.7616
 31
0.0
  0
LINE
  8
0
 62
     0
 10
174.02
 20
93.7616
 30
0.0
 11
174.819
 21
93.7616
 31
0.0
  0
LINE
  8
0
 62
     0
 10
174.819
 20
93.7616
 30
0.0
 11
174.819
 21
96.8622
 31
0.0
  0
LINE
  8
0
 62
     0
 10
174.819
 20
96.8622
 30
0.0
 11
174.02
 21
96.8622
 31
0.0
  0
LINE
  8
0
 62
     0
 10
174.02
 20
96.8622
 30
0.0
 11
174.02
 21
97.8613
 31
0.0
  0
LINE
  8
0
 62
     0
 10
174.02
 20
97.8613
 30
0.0
 11
160.019
 21
97.8613
 31
0.0
  0
LINE
  8
0
 62
     0
 10
140.969
 20
97.8613
 30
0.0
 11
140.969
 21
96.8622
 31
0.0
  0
LINE
  8
0
 62
     0
 10
140.969
 20
96.8622
 30
0.0
 11
140.17
 21
96.8622
 31
0.0
  0
LINE
  8
0
 62
     0
 10
140.17
 20
96.8622
 30
0.0
 11
140.17
 21
93.7616
 31
0.0
  0
LINE
  8
0
 62
     0
 10
140.17
 20
93.7616
 30
0.0
 11
140.969
 21
93.7616
 31
0.0
  0
LINE
  8
0
 62
     0
 10
140.969
 20
93.7616
 30
0.0
 11
140.969
 21
87.9616
 31
0.0
  0
LINE
  8
0
 62
     0
 10
140.969
 20
87.9616
 30
0.0
 11
140.17
 21
87.9616
 31
0.0
  0
LINE
  8
0
 62
     0
 10
140.17
 20
87.9616
 30
0.0
 11
140.17
 21
84.8625
 31
0.0
  0
LINE
  8
0
 62
     0
 10
140.17
 20
84.8625
 30
0.0
 11
140.969
 21
84.8625
 31
0.0
  0
LINE
  8
0
 62
     0
 10
140.969
 20
84.8625
 30
0.0
 11
140.969
 21
83.862
 31
0.0
  0
LINE
  8
0
 62
     0
 10
140.969
 20
83.862
 30
0.0
 11
154.97
 21
83.862
 31
0.0
  0
LINE
  8
0
 62
     0
 10
154.97
 20
83.862
 30
0.0
 11
154.97
 21
84.8625
 31
0.0
  0
LINE
  8
0
 62
     0
 10
154.97
 20
84.8625
 30
0.0
 11
155.769
 21
84.8625
 31
0.0
  0
LINE
  8
0
 62
     0
 10
155.769
 20
84.8625
 30
0.0
 11
155.769
 21
87.9616
 31
0.0
  0
LINE
  8
0
 62
     0
 10
155.769
 20
87.9616
 30
0.0
 11
154.97
 21
87.9616
 31
0.0
  0
LINE
  8
0
 62
     0
 10
154.97
 20
87.9616
 30
0.0
 11
154.97
 21
93.7616
 31
0.0
  0
LINE
  8
0
 62
     0
 10
154.97
 20
93.7616
 30
0.0
 11
155.769
 21
93.7616
 31
0.0
  0
LINE
  8
0
 62
     0
 10
155.769
 20
93.7616
 30
0.0
 11
155.769
 21
96.8622
 31
0.0
  0
LINE
  8
0
 62
     0
 10
155.769
 20
96.8622
 30
0.0
 11
154.97
 21
96.8622
 31
0.0
  0
LINE
  8
0
 62
     0
 10
154.97
 20
96.8622
 30
0.0
 11
154.97
 21
97.8613
 31
0.0
  0
LINE
  8
0
 62
     0
 10
154.97
 20
97.8613
 30
0.0
 11
140.969
 21
97.8613
 31
0.0
  0
LINE
  8
0
 62
     0
 10
121.919
 20
97.8613
 30
0.0
 11
121.919
 21
96.8622
 31
0.0
  0
LINE
  8
0
 62
     0
 10
121.919
 20
96.8622
 30
0.0
 11
121.118
 21
96.8622
 31
0.0
  0
LINE
  8
0
 62
     0
 10
121.118
 20
96.8622
 30
0.0
 11
121.118
 21
93.7616
 31
0.0
  0
LINE
  8
0
 62
     0
 10
121.118
 20
93.7616
 30
0.0
 11
121.919
 21
93.7616
 31
0.0
  0
LINE
  8
0
 62
     0
 10
121.919
 20
93.7616
 30
0.0
 11
121.919
 21
87.9616
 31
0.0
  0
LINE
  8
0
 62
     0
 10
121.919
 20
87.9616
 30
0.0
 11
121.118
 21
87.9616
 31
0.0
  0
LINE
  8
0
 62
     0
 10
121.118
 20
87.9616
 30
0.0
 11
121.118
 21
84.8625
 31
0.0
  0
LINE
  8
0
 62
     0
 10
121.118
 20
84.8625
 30
0.0
 11
121.919
 21
84.8625
 31
0.0
  0
LINE
  8
0
 62
     0
 10
121.919
 20
84.8625
 30
0.0
 11
121.919
 21
83.862
 31
0.0
  0
LINE
  8
0
 62
     0
 10
121.919
 20
83.862
 30
0.0
 11
135.92
 21
83.862
 31
0.0
  0
LINE
  8
0
 62
     0
 10
135.92
 20
83.862
 30
0.0
 11
135.92
 21
84.8625
 31
0.0
  0
LINE
  8
0
 62
     0
 10
135.92
 20
84.8625
 30
0.0
 11
136.719
 21
84.8625
 31
0.0
  0
LINE
  8
0
 62
     0
 10
136.719
 20
84.8625
 30
0.0
 11
136.719
 21
87.9616
 31
0.0
  0
LINE
  8
0
 62
     0
 10
136.719
 20
87.9616
 30
0.0
 11
135.92
 21
87.9616
 31
0.0
  0
LINE
  8
0
 62
     0
 10
135.92
 20
87.9616
 30
0.0
 11
135.92
 21
93.7616
 31
0.0
  0
LINE
  8
0
 62
     0
 10
135.92
 20
93.7616
 30
0.0
 11
136.719
 21
93.7616
 31
0.0
  0
LINE
  8
0
 62
     0
 10
136.719
 20
93.7616
 30
0.0
 11
136.719
 21
96.8622
 31
0.0
  0
LINE
  8
0
 62
     0
 10
136.719
 20
96.8622
 30
0.0
 11
135.92
 21
96.8622
 31
0.0
  0
LINE
  8
0
 62
     0
 10
135.92
 20
96.8622
 30
0.0
 11
135.92
 21
97.8613
 31
0.0
  0
LINE
  8
0
 62
     0
 10
135.92
 20
97.8613
 30
0.0
 11
121.919
 21
97.8613
 31
0.0
  0
LINE
  8
0
 62
     0
 10
102.869
 20
97.8613
 30
0.0
 11
102.869
 21
96.8622
 31
0.0
  0
LINE
  8
0
 62
     0
 10
102.869
 20
96.8622
 30
0.0
 11
102.07
 21
96.8622
 31
0.0
  0
LINE
  8
0
 62
     0
 10
102.07
 20
96.8622
 30
0.0
 11
102.07
 21
93.7616
 31
0.0
  0
LINE
  8
0
 62
     0
 10
102.07
 20
93.7616
 30
0.0
 11
102.869
 21
93.7616
 31
0.0
  0
LINE
  8
0
 62
     0
 10
102.869
 20
93.7616
 30
0.0
 11
102.869
 21
87.9616
 31
0.0
  0
LINE
  8
0
 62
     0
 10
102.869
 20
87.9616
 30
0.0
 11
102.07
 21
87.9616
 31
0.0
  0
LINE
  8
0
 62
     0
 10
102.07
 20
87.9616
 30
0.0
 11
102.07
 21
84.8625
 31
0.0
  0
LINE
  8
0
 62
     0
 10
102.07
 20
84.8625
 30
0.0
 11
102.869
 21
84.8625
 31
0.0
  0
LINE
  8
0
 62
     0
 10
102.869
 20
84.8625
 30
0.0
 11
102.869
 21
83.862
 31
0.0
  0
LINE
  8
0
 62
     0
 10
102.869
 20
83.862
 30
0.0
 11
116.869
 21
83.862
 31
0.0
  0
LINE
  8
0
 62
     0
 10
116.869
 20
83.862
 30
0.0
 11
116.869
 21
84.8625
 31
0.0
  0
LINE
  8
0
 62
     0
 10
116.869
 20
84.8625
 30
0.0
 11
117.668
 21
84.8625
 31
0.0
  0
LINE
  8
0
 62
     0
 10
117.668
 20
84.8625
 30
0.0
 11
117.668
 21
87.9616
 31
0.0
  0
LINE
  8
0
 62
     0
 10
117.668
 20
87.9616
 30
0.0
 11
116.869
 21
87.9616
 31
0.0
  0
LINE
  8
0
 62
     0
 10
116.869
 20
87.9616
 30
0.0
 11
116.869
 21
93.7616
 31
0.0
  0
LINE
  8
0
 62
     0
 10
116.869
 20
93.7616
 30
0.0
 11
117.668
 21
93.7616
 31
0.0
  0
LINE
  8
0
 62
     0
 10
117.668
 20
93.7616
 30
0.0
 11
117.668
 21
96.8622
 31
0.0
  0
LINE
  8
0
 62
     0
 10
117.668
 20
96.8622
 30
0.0
 11
116.869
 21
96.8622
 31
0.0
  0
LINE
  8
0
 62
     0
 10
116.869
 20
96.8622
 30
0.0
 11
116.869
 21
97.8613
 31
0.0
  0
LINE
  8
0
 62
     0
 10
116.869
 20
97.8613
 30
0.0
 11
102.869
 21
97.8613
 31
0.0
  0
LINE
  8
0
 62
     0
 10
83.8193
 20
97.8613
 30
0.0
 11
83.8193
 21
96.8622
 31
0.0
  0
LINE
  8
0
 62
     0
 10
83.8193
 20
96.8622
 30
0.0
 11
83.0199
 21
96.8622
 31
0.0
  0
LINE
  8
0
 62
     0
 10
83.0199
 20
96.8622
 30
0.0
 11
83.0199
 21
93.7616
 31
0.0
  0
LINE
  8
0
 62
     0
 10
83.0199
 20
93.7616
 30
0.0
 11
83.8193
 21
93.7616
 31
0.0
  0
LINE
  8
0
 62
     0
 10
83.8193
 20
93.7616
 30
0.0
 11
83.8193
 21
87.9616
 31
0.0
  0
LINE
  8
0
 62
     0
 10
83.8193
 20
87.9616
 30
0.0
 11
83.0199
 21
87.9616
 31
0.0
  0
LINE
  8
0
 62
     0
 10
83.0199
 20
87.9616
 30
0.0
 11
83.0199
 21
84.8625
 31
0.0
  0
LINE
  8
0
 62
     0
 10
83.0199
 20
84.8625
 30
0.0
 11
83.8193
 21
84.8625
 31
0.0
  0
LINE
  8
0
 62
     0
 10
83.8193
 20
84.8625
 30
0.0
 11
83.8193
 21
83.862
 31
0.0
  0
LINE
  8
0
 62
     0
 10
83.8193
 20
83.862
 30
0.0
 11
97.82
 21
83.862
 31
0.0
  0
LINE
  8
0
 62
     0
 10
97.82
 20
83.862
 30
0.0
 11
97.82
 21
84.8625
 31
0.0
  0
LINE
  8
0
 62
     0
 10
97.82
 20
84.8625
 30
0.0
 11
98.618
 21
84.8625
 31
0.0
  0
LINE
  8
0
 62
     0
 10
98.618
 20
84.8625
 30
0.0
 11
98.618
 21
87.9616
 31
0.0
  0
LINE
  8
0
 62
     0
 10
98.618
 20
87.9616
 30
0.0
 11
97.82
 21
87.9616
 31
0.0
  0
LINE
  8
0
 62
     0
 10
97.82
 20
87.9616
 30
0.0
 11
97.82
 21
93.7616
 31
0.0
  0
LINE
  8
0
 62
     0
 10
97.82
 20
93.7616
 30
0.0
 11
98.618
 21
93.7616
 31
0.0
  0
LINE
  8
0
 62
     0
 10
98.618
 20
93.7616
 30
0.0
 11
98.618
 21
96.8622
 31
0.0
  0
LINE
  8
0
 62
     0
 10
98.618
 20
96.8622
 30
0.0
 11
97.82
 21
96.8622
 31
0.0
  0
LINE
  8
0
 62
     0
 10
97.82
 20
96.8622
 30
0.0
 11
97.82
 21
97.8613
 31
0.0
  0
LINE
  8
0
 62
     0
 10
97.82
 20
97.8613
 30
0.0
 11
83.8193
 21
97.8613
 31
0.0
  0
LINE
  8
0
 62
     0
 10
64.7693
 20
97.8613
 30
0.0
 11
64.7693
 21
96.8622
 31
0.0
  0
LINE
  8
0
 62
     0
 10
64.7693
 20
96.8622
 30
0.0
 11
63.9699
 21
96.8622
 31
0.0
  0
LINE
  8
0
 62
     0
 10
63.9699
 20
96.8622
 30
0.0
 11
63.9699
 21
93.7616
 31
0.0
  0
LINE
  8
0
 62
     0
 10
63.9699
 20
93.7616
 30
0.0
 11
64.7693
 21
93.7616
 31
0.0
  0
LINE
  8
0
 62
     0
 10
64.7693
 20
93.7616
 30
0.0
 11
64.7693
 21
87.9616
 31
0.0
  0
LINE
  8
0
 62
     0
 10
64.7693
 20
87.9616
 30
0.0
 11
63.9699
 21
87.9616
 31
0.0
  0
LINE
  8
0
 62
     0
 10
63.9699
 20
87.9616
 30
0.0
 11
63.9699
 21
84.8625
 31
0.0
  0
LINE
  8
0
 62
     0
 10
63.9699
 20
84.8625
 30
0.0
 11
64.7693
 21
84.8625
 31
0.0
  0
LINE
  8
0
 62
     0
 10
64.7693
 20
84.8625
 30
0.0
 11
64.7693
 21
83.862
 31
0.0
  0
LINE
  8
0
 62
     0
 10
64.7693
 20
83.862
 30
0.0
 11
78.77
 21
83.862
 31
0.0
  0
LINE
  8
0
 62
     0
 10
78.77
 20
83.862
 30
0.0
 11
78.77
 21
84.8625
 31
0.0
  0
LINE
  8
0
 62
     0
 10
78.77
 20
84.8625
 30
0.0
 11
79.5694
 21
84.8625
 31
0.0
  0
LINE
  8
0
 62
     0
 10
79.5694
 20
84.8625
 30
0.0
 11
79.5694
 21
87.9616
 31
0.0
  0
LINE
  8
0
 62
     0
 10
79.5694
 20
87.9616
 30
0.0
 11
78.77
 21
87.9616
 31
0.0
  0
LINE
  8
0
 62
     0
 10
78.77
 20
87.9616
 30
0.0
 11
78.77
 21
93.7616
 31
0.0
  0
LINE
  8
0
 62
     0
 10
78.77
 20
93.7616
 30
0.0
 11
79.5694
 21
93.7616
 31
0.0
  0
LINE
  8
0
 62
     0
 10
79.5694
 20
93.7616
 30
0.0
 11
79.5694
 21
96.8622
 31
0.0
  0
LINE
  8
0
 62
     0
 10
79.5694
 20
96.8622
 30
0.0
 11
78.77
 21
96.8622
 31
0.0
  0
LINE
  8
0
 62
     0
 10
78.77
 20
96.8622
 30
0.0
 11
78.77
 21
97.8613
 31
0.0
  0
LINE
  8
0
 62
     0
 10
78.77
 20
97.8613
 30
0.0
 11
64.7693
 21
97.8613
 31
0.0
  0
LINE
  8
0
 62
     0
 10
45.7193
 20
97.8613
 30
0.0
 11
45.7193
 21
96.8622
 31
0.0
  0
LINE
  8
0
 62
     0
 10
45.7193
 20
96.8622
 30
0.0
 11
44.9199
 21
96.8622
 31
0.0
  0
LINE
  8
0
 62
     0
 10
44.9199
 20
96.8622
 30
0.0
 11
44.9199
 21
93.7616
 31
0.0
  0
LINE
  8
0
 62
     0
 10
44.9199
 20
93.7616
 30
0.0
 11
45.7193
 21
93.7616
 31
0.0
  0
LINE
  8
0
 62
     0
 10
45.7193
 20
93.7616
 30
0.0
 11
45.7193
 21
87.9616
 31
0.0
  0
LINE
  8
0
 62
     0
 10
45.7193
 20
87.9616
 30
0.0
 11
44.9199
 21
87.9616
 31
0.0
  0
LINE
  8
0
 62
     0
 10
44.9199
 20
87.9616
 30
0.0
 11
44.9199
 21
84.8625
 31
0.0
  0
LINE
  8
0
 62
     0
 10
44.9199
 20
84.8625
 30
0.0
 11
45.7193
 21
84.8625
 31
0.0
  0
LINE
  8
0
 62
     0
 10
45.7193
 20
84.8625
 30
0.0
 11
45.7193
 21
83.862
 31
0.0
  0
LINE
  8
0
 62
     0
 10
45.7193
 20
83.862
 30
0.0
 11
59.72
 21
83.862
 31
0.0
  0
LINE
  8
0
 62
     0
 10
59.72
 20
83.862
 30
0.0
 11
59.72
 21
84.8625
 31
0.0
  0
LINE
  8
0
 62
     0
 10
59.72
 20
84.8625
 30
0.0
 11
60.5194
 21
84.8625
 31
0.0
  0
LINE
  8
0
 62
     0
 10
60.5194
 20
84.8625
 30
0.0
 11
60.5194
 21
87.9616
 31
0.0
  0
LINE
  8
0
 62
     0
 10
60.5194
 20
87.9616
 30
0.0
 11
59.72
 21
87.9616
 31
0.0
  0
LINE
  8
0
 62
     0
 10
59.72
 20
87.9616
 30
0.0
 11
59.72
 21
93.7616
 31
0.0
  0
LINE
  8
0
 62
     0
 10
59.72
 20
93.7616
 30
0.0
 11
60.5194
 21
93.7616
 31
0.0
  0
LINE
  8
0
 62
     0
 10
60.5194
 20
93.7616
 30
0.0
 11
60.5194
 21
96.8622
 31
0.0
  0
LINE
  8
0
 62
     0
 10
60.5194
 20
96.8622
 30
0.0
 11
59.72
 21
96.8622
 31
0.0
  0
LINE
  8
0
 62
     0
 10
59.72
 20
96.8622
 30
0.0
 11
59.72
 21
97.8613
 31
0.0
  0
LINE
  8
0
 62
     0
 10
59.72
 20
97.8613
 30
0.0
 11
45.7193
 21
97.8613
 31
0.0
  0
LINE
  8
0
 62
     0
 10
26.6692
 20
97.8613
 30
0.0
 11
26.6692
 21
96.8622
 31
0.0
  0
LINE
  8
0
 62
     0
 10
26.6692
 20
96.8622
 30
0.0
 11
25.8699
 21
96.8622
 31
0.0
  0
LINE
  8
0
 62
     0
 10
25.8699
 20
96.8622
 30
0.0
 11
25.8699
 21
93.7616
 31
0.0
  0
LINE
  8
0
 62
     0
 10
25.8699
 20
93.7616
 30
0.0
 11
26.6692
 21
93.7616
 31
0.0
  0
LINE
  8
0
 62
     0
 10
26.6692
 20
93.7616
 30
0.0
 11
26.6692
 21
87.9616
 31
0.0
  0
LINE
  8
0
 62
     0
 10
26.6692
 20
87.9616
 30
0.0
 11
25.8699
 21
87.9616
 31
0.0
  0
LINE
  8
0
 62
     0
 10
25.8699
 20
87.9616
 30
0.0
 11
25.8699
 21
84.8625
 31
0.0
  0
LINE
  8
0
 62
     0
 10
25.8699
 20
84.8625
 30
0.0
 11
26.6692
 21
84.8625
 31
0.0
  0
LINE
  8
0
 62
     0
 10
26.6692
 20
84.8625
 30
0.0
 11
26.6692
 21
83.862
 31
0.0
  0
LINE
  8
0
 62
     0
 10
26.6692
 20
83.862
 30
0.0
 11
40.67
 21
83.862
 31
0.0
  0
LINE
  8
0
 62
     0
 10
40.67
 20
83.862
 30
0.0
 11
40.67
 21
84.8625
 31
0.0
  0
LINE
  8
0
 62
     0
 10
40.67
 20
84.8625
 30
0.0
 11
41.4694
 21
84.8625
 31
0.0
  0
LINE
  8
0
 62
     0
 10
41.4694
 20
84.8625
 30
0.0
 11
41.4694
 21
87.9616
 31
0.0
  0
LINE
  8
0
 62
     0
 10
41.4694
 20
87.9616
 30
0.0
 11
40.67
 21
87.9616
 31
0.0
  0
LINE
  8
0
 62
     0
 10
40.67
 20
87.9616
 30
0.0
 11
40.67
 21
93.7616
 31
0.0
  0
LINE
  8
0
 62
     0
 10
40.67
 20
93.7616
 30
0.0
 11
41.4694
 21
93.7616
 31
0.0
  0
LINE
  8
0
 62
     0
 10
41.4694
 20
93.7616
 30
0.0
 11
41.4694
 21
96.8622
 31
0.0
  0
LINE
  8
0
 62
     0
 10
41.4694
 20
96.8622
 30
0.0
 11
40.67
 21
96.8622
 31
0.0
  0
LINE
  8
0
 62
     0
 10
40.67
 20
96.8622
 30
0.0
 11
40.67
 21
97.8613
 31
0.0
  0
LINE
  8
0
 62
     0
 10
40.67
 20
97.8613
 30
0.0
 11
26.6692
 21
97.8613
 31
0.0
  0
LINE
  8
0
 62
     0
 10
7.61919
 20
97.8613
 30
0.0
 11
7.61919
 21
96.8622
 31
0.0
  0
LINE
  8
0
 62
     0
 10
7.61919
 20
96.8622
 30
0.0
 11
6.81852
 21
96.8622
 31
0.0
  0
LINE
  8
0
 62
     0
 10
6.81852
 20
96.8622
 30
0.0
 11
6.81852
 21
93.7616
 31
0.0
  0
LINE
  8
0
 62
     0
 10
6.81852
 20
93.7616
 30
0.0
 11
7.61919
 21
93.7616
 31
0.0
  0
LINE
  8
0
 62
     0
 10
7.61919
 20
93.7616
 30
0.0
 11
7.61919
 21
87.9616
 31
0.0
  0
LINE
  8
0
 62
     0
 10
7.61919
 20
87.9616
 30
0.0
 11
6.81852
 21
87.9616
 31
0.0
  0
LINE
  8
0
 62
     0
 10
6.81852
 20
87.9616
 30
0.0
 11
6.81852
 21
84.8625
 31
0.0
  0
LINE
  8
0
 62
     0
 10
6.81852
 20
84.8625
 30
0.0
 11
7.61919
 21
84.8625
 31
0.0
  0
LINE
  8
0
 62
     0
 10
7.61919
 20
84.8625
 30
0.0
 11
7.61919
 21
83.862
 31
0.0
  0
LINE
  8
0
 62
     0
 10
7.61919
 20
83.862
 30
0.0
 11
21.6201
 21
83.862
 31
0.0
  0
LINE
  8
0
 62
     0
 10
21.6201
 20
83.862
 30
0.0
 11
21.6201
 21
84.8625
 31
0.0
  0
LINE
  8
0
 62
     0
 10
21.6201
 20
84.8625
 30
0.0
 11
22.4193
 21
84.8625
 31
0.0
  0
LINE
  8
0
 62
     0
 10
22.4193
 20
84.8625
 30
0.0
 11
22.4193
 21
87.9616
 31
0.0
  0
LINE
  8
0
 62
     0
 10
22.4193
 20
87.9616
 30
0.0
 11
21.6201
 21
87.9616
 31
0.0
  0
LINE
  8
0
 62
     0
 10
21.6201
 20
87.9616
 30
0.0
 11
21.6201
 21
93.7616
 31
0.0
  0
LINE
  8
0
 62
     0
 10
21.6201
 20
93.7616
 30
0.0
 11
22.4193
 21
93.7616
 31
0.0
  0
LINE
  8
0
 62
     0
 10
22.4193
 20
93.7616
 30
0.0
 11
22.4193
 21
96.8622
 31
0.0
  0
LINE
  8
0
 62
     0
 10
22.4193
 20
96.8622
 30
0.0
 11
21.6201
 21
96.8622
 31
0.0
  0
LINE
  8
0
 62
     0
 10
21.6201
 20
96.8622
 30
0.0
 11
21.6201
 21
97.8613
 31
0.0
  0
LINE
  8
0
 62
     0
 10
21.6201
 20
97.8613
 30
0.0
 11
7.61919
 21
97.8613
 31
0.0
  0
LINE
  8
0
 62
     0
 10
340.994
 20
102.624
 30
0.0
 11
340.994
 21
101.623
 31
0.0
  0
LINE
  8
0
 62
     0
 10
340.994
 20
101.623
 30
0.0
 11
340.195
 21
101.623
 31
0.0
  0
LINE
  8
0
 62
     0
 10
340.195
 20
101.623
 30
0.0
 11
340.195
 21
98.5241
 31
0.0
  0
LINE
  8
0
 62
     0
 10
340.195
 20
98.5241
 30
0.0
 11
340.994
 21
98.5241
 31
0.0
  0
LINE
  8
0
 62
     0
 10
340.994
 20
98.5241
 30
0.0
 11
340.994
 21
92.7241
 31
0.0
  0
LINE
  8
0
 62
     0
 10
340.994
 20
92.7241
 30
0.0
 11
340.195
 21
92.7241
 31
0.0
  0
LINE
  8
0
 62
     0
 10
340.195
 20
92.7241
 30
0.0
 11
340.195
 21
89.6235
 31
0.0
  0
LINE
  8
0
 62
     0
 10
340.195
 20
89.6235
 30
0.0
 11
340.994
 21
89.6235
 31
0.0
  0
LINE
  8
0
 62
     0
 10
340.994
 20
89.6235
 30
0.0
 11
340.994
 21
88.6245
 31
0.0
  0
LINE
  8
0
 62
     0
 10
340.994
 20
88.6245
 30
0.0
 11
354.997
 21
88.6245
 31
0.0
  0
LINE
  8
0
 62
     0
 10
354.997
 20
88.6245
 30
0.0
 11
354.997
 21
89.6235
 31
0.0
  0
LINE
  8
0
 62
     0
 10
354.997
 20
89.6235
 30
0.0
 11
355.794
 21
89.6235
 31
0.0
  0
LINE
  8
0
 62
     0
 10
355.794
 20
89.6235
 30
0.0
 11
355.794
 21
92.7241
 31
0.0
  0
LINE
  8
0
 62
     0
 10
355.794
 20
92.7241
 30
0.0
 11
354.997
 21
92.7241
 31
0.0
  0
LINE
  8
0
 62
     0
 10
354.997
 20
92.7241
 30
0.0
 11
354.997
 21
98.5241
 31
0.0
  0
LINE
  8
0
 62
     0
 10
354.997
 20
98.5241
 30
0.0
 11
355.794
 21
98.5241
 31
0.0
  0
LINE
  8
0
 62
     0
 10
355.794
 20
98.5241
 30
0.0
 11
355.794
 21
101.623
 31
0.0
  0
LINE
  8
0
 62
     0
 10
355.794
 20
101.623
 30
0.0
 11
354.997
 21
101.623
 31
0.0
  0
LINE
  8
0
 62
     0
 10
354.997
 20
101.623
 30
0.0
 11
354.997
 21
102.624
 31
0.0
  0
LINE
  8
0
 62
     0
 10
354.997
 20
102.624
 30
0.0
 11
340.994
 21
102.624
 31
0.0
  0
LINE
  8
0
 62
     0
 10
321.944
 20
102.624
 30
0.0
 11
321.944
 21
101.623
 31
0.0
  0
LINE
  8
0
 62
     0
 10
321.944
 20
101.623
 30
0.0
 11
321.145
 21
101.623
 31
0.0
  0
LINE
  8
0
 62
     0
 10
321.145
 20
101.623
 30
0.0
 11
321.145
 21
98.5241
 31
0.0
  0
LINE
  8
0
 62
     0
 10
321.145
 20
98.5241
 30
0.0
 11
321.944
 21
98.5241
 31
0.0
  0
LINE
  8
0
 62
     0
 10
321.944
 20
98.5241
 30
0.0
 11
321.944
 21
92.7241
 31
0.0
  0
LINE
  8
0
 62
     0
 10
321.944
 20
92.7241
 30
0.0
 11
321.145
 21
92.7241
 31
0.0
  0
LINE
  8
0
 62
     0
 10
321.145
 20
92.7241
 30
0.0
 11
321.145
 21
89.6235
 31
0.0
  0
LINE
  8
0
 62
     0
 10
321.145
 20
89.6235
 30
0.0
 11
321.944
 21
89.6235
 31
0.0
  0
LINE
  8
0
 62
     0
 10
321.944
 20
89.6235
 30
0.0
 11
321.944
 21
88.6245
 31
0.0
  0
LINE
  8
0
 62
     0
 10
321.944
 20
88.6245
 30
0.0
 11
335.945
 21
88.6245
 31
0.0
  0
LINE
  8
0
 62
     0
 10
335.945
 20
88.6245
 30
0.0
 11
335.945
 21
89.6235
 31
0.0
  0
LINE
  8
0
 62
     0
 10
335.945
 20
89.6235
 30
0.0
 11
336.744
 21
89.6235
 31
0.0
  0
LINE
  8
0
 62
     0
 10
336.744
 20
89.6235
 30
0.0
 11
336.744
 21
92.7241
 31
0.0
  0
LINE
  8
0
 62
     0
 10
336.744
 20
92.7241
 30
0.0
 11
335.945
 21
92.7241
 31
0.0
  0
LINE
  8
0
 62
     0
 10
335.945
 20
92.7241
 30
0.0
 11
335.945
 21
98.5241
 31
0.0
  0
LINE
  8
0
 62
     0
 10
335.945
 20
98.5241
 30
0.0
 11
336.744
 21
98.5241
 31
0.0
  0
LINE
  8
0
 62
     0
 10
336.744
 20
98.5241
 30
0.0
 11
336.744
 21
101.623
 31
0.0
  0
LINE
  8
0
 62
     0
 10
336.744
 20
101.623
 30
0.0
 11
335.945
 21
101.623
 31
0.0
  0
LINE
  8
0
 62
     0
 10
335.945
 20
101.623
 30
0.0
 11
335.945
 21
102.624
 31
0.0
  0
LINE
  8
0
 62
     0
 10
335.945
 20
102.624
 30
0.0
 11
321.944
 21
102.624
 31
0.0
  0
LINE
  8
0
 62
     0
 10
302.894
 20
102.624
 30
0.0
 11
302.894
 21
101.623
 31
0.0
  0
LINE
  8
0
 62
     0
 10
302.894
 20
101.623
 30
0.0
 11
302.095
 21
101.623
 31
0.0
  0
LINE
  8
0
 62
     0
 10
302.095
 20
101.623
 30
0.0
 11
302.095
 21
98.5241
 31
0.0
  0
LINE
  8
0
 62
     0
 10
302.095
 20
98.5241
 30
0.0
 11
302.894
 21
98.5241
 31
0.0
  0
LINE
  8
0
 62
     0
 10
302.894
 20
98.5241
 30
0.0
 11
302.894
 21
92.7241
 31
0.0
  0
LINE
  8
0
 62
     0
 10
302.894
 20
92.7241
 30
0.0
 11
302.095
 21
92.7241
 31
0.0
  0
LINE
  8
0
 62
     0
 10
302.095
 20
92.7241
 30
0.0
 11
302.095
 21
89.6235
 31
0.0
  0
LINE
  8
0
 62
     0
 10
302.095
 20
89.6235
 30
0.0
 11
302.894
 21
89.6235
 31
0.0
  0
LINE
  8
0
 62
     0
 10
302.894
 20
89.6235
 30
0.0
 11
302.894
 21
88.6245
 31
0.0
  0
LINE
  8
0
 62
     0
 10
302.894
 20
88.6245
 30
0.0
 11
316.895
 21
88.6245
 31
0.0
  0
LINE
  8
0
 62
     0
 10
316.895
 20
88.6245
 30
0.0
 11
316.895
 21
89.6235
 31
0.0
  0
LINE
  8
0
 62
     0
 10
316.895
 20
89.6235
 30
0.0
 11
317.694
 21
89.6235
 31
0.0
  0
LINE
  8
0
 62
     0
 10
317.694
 20
89.6235
 30
0.0
 11
317.694
 21
92.7241
 31
0.0
  0
LINE
  8
0
 62
     0
 10
317.694
 20
92.7241
 30
0.0
 11
316.895
 21
92.7241
 31
0.0
  0
LINE
  8
0
 62
     0
 10
316.895
 20
92.7241
 30
0.0
 11
316.895
 21
98.5241
 31
0.0
  0
LINE
  8
0
 62
     0
 10
316.895
 20
98.5241
 30
0.0
 11
317.694
 21
98.5241
 31
0.0
  0
LINE
  8
0
 62
     0
 10
317.694
 20
98.5241
 30
0.0
 11
317.694
 21
101.623
 31
0.0
  0
LINE
  8
0
 62
     0
 10
317.694
 20
101.623
 30
0.0
 11
316.895
 21
101.623
 31
0.0
  0
LINE
  8
0
 62
     0
 10
316.895
 20
101.623
 30
0.0
 11
316.895
 21
102.624
 31
0.0
  0
LINE
  8
0
 62
     0
 10
316.895
 20
102.624
 30
0.0
 11
302.894
 21
102.624
 31
0.0
  0
LINE
  8
0
 62
     0
 10
345.757
 20
126.436
 30
0.0
 11
345.757
 21
125.437
 31
0.0
  0
LINE
  8
0
 62
     0
 10
345.757
 20
125.437
 30
0.0
 11
344.956
 21
125.437
 31
0.0
  0
LINE
  8
0
 62
     0
 10
344.956
 20
125.437
 30
0.0
 11
344.956
 21
122.337
 31
0.0
  0
LINE
  8
0
 62
     0
 10
344.956
 20
122.337
 30
0.0
 11
345.757
 21
122.337
 31
0.0
  0
LINE
  8
0
 62
     0
 10
345.757
 20
122.337
 30
0.0
 11
345.757
 21
116.537
 31
0.0
  0
LINE
  8
0
 62
     0
 10
345.757
 20
116.537
 30
0.0
 11
344.956
 21
116.537
 31
0.0
  0
LINE
  8
0
 62
     0
 10
344.956
 20
116.537
 30
0.0
 11
344.956
 21
113.436
 31
0.0
  0
LINE
  8
0
 62
     0
 10
344.956
 20
113.436
 30
0.0
 11
345.757
 21
113.436
 31
0.0
  0
LINE
  8
0
 62
     0
 10
345.757
 20
113.436
 30
0.0
 11
345.757
 21
112.436
 31
0.0
  0
LINE
  8
0
 62
     0
 10
345.757
 20
112.436
 30
0.0
 11
359.756
 21
112.436
 31
0.0
  0
LINE
  8
0
 62
     0
 10
359.756
 20
112.436
 30
0.0
 11
359.756
 21
113.436
 31
0.0
  0
LINE
  8
0
 62
     0
 10
359.756
 20
113.436
 30
0.0
 11
360.557
 21
113.436
 31
0.0
  0
LINE
  8
0
 62
     0
 10
360.557
 20
113.436
 30
0.0
 11
360.557
 21
116.537
 31
0.0
  0
LINE
  8
0
 62
     0
 10
360.557
 20
116.537
 30
0.0
 11
359.756
 21
116.537
 31
0.0
  0
LINE
  8
0
 62
     0
 10
359.756
 20
116.537
 30
0.0
 11
359.756
 21
122.337
 31
0.0
  0
LINE
  8
0
 62
     0
 10
359.756
 20
122.337
 30
0.0
 11
360.557
 21
122.337
 31
0.0
  0
LINE
  8
0
 62
     0
 10
360.557
 20
122.337
 30
0.0
 11
360.557
 21
125.437
 31
0.0
  0
LINE
  8
0
 62
     0
 10
360.557
 20
125.437
 30
0.0
 11
359.756
 21
125.437
 31
0.0
  0
LINE
  8
0
 62
     0
 10
359.756
 20
125.437
 30
0.0
 11
359.756
 21
126.436
 31
0.0
  0
LINE
  8
0
 62
     0
 10
359.756
 20
126.436
 30
0.0
 11
345.757
 21
126.436
 31
0.0
  0
LINE
  8
0
 62
     0
 10
321.944
 20
126.436
 30
0.0
 11
321.944
 21
125.437
 31
0.0
  0
LINE
  8
0
 62
     0
 10
321.944
 20
125.437
 30
0.0
 11
321.145
 21
125.437
 31
0.0
  0
LINE
  8
0
 62
     0
 10
321.145
 20
125.437
 30
0.0
 11
321.145
 21
122.337
 31
0.0
  0
LINE
  8
0
 62
     0
 10
321.145
 20
122.337
 30
0.0
 11
321.944
 21
122.337
 31
0.0
  0
LINE
  8
0
 62
     0
 10
321.944
 20
122.337
 30
0.0
 11
321.944
 21
116.537
 31
0.0
  0
LINE
  8
0
 62
     0
 10
321.944
 20
116.537
 30
0.0
 11
321.145
 21
116.537
 31
0.0
  0
LINE
  8
0
 62
     0
 10
321.145
 20
116.537
 30
0.0
 11
321.145
 21
113.436
 31
0.0
  0
LINE
  8
0
 62
     0
 10
321.145
 20
113.436
 30
0.0
 11
321.944
 21
113.436
 31
0.0
  0
LINE
  8
0
 62
     0
 10
321.944
 20
113.436
 30
0.0
 11
321.944
 21
112.436
 31
0.0
  0
LINE
  8
0
 62
     0
 10
321.944
 20
112.436
 30
0.0
 11
335.945
 21
112.436
 31
0.0
  0
LINE
  8
0
 62
     0
 10
335.945
 20
112.436
 30
0.0
 11
335.945
 21
113.436
 31
0.0
  0
LINE
  8
0
 62
     0
 10
335.945
 20
113.436
 30
0.0
 11
336.744
 21
113.436
 31
0.0
  0
LINE
  8
0
 62
     0
 10
336.744
 20
113.436
 30
0.0
 11
336.744
 21
116.537
 31
0.0
  0
LINE
  8
0
 62
     0
 10
336.744
 20
116.537
 30
0.0
 11
335.945
 21
116.537
 31
0.0
  0
LINE
  8
0
 62
     0
 10
335.945
 20
116.537
 30
0.0
 11
335.945
 21
122.337
 31
0.0
  0
LINE
  8
0
 62
     0
 10
335.945
 20
122.337
 30
0.0
 11
336.744
 21
122.337
 31
0.0
  0
LINE
  8
0
 62
     0
 10
336.744
 20
122.337
 30
0.0
 11
336.744
 21
125.437
 31
0.0
  0
LINE
  8
0
 62
     0
 10
336.744
 20
125.437
 30
0.0
 11
335.945
 21
125.437
 31
0.0
  0
LINE
  8
0
 62
     0
 10
335.945
 20
125.437
 30
0.0
 11
335.945
 21
126.436
 31
0.0
  0
LINE
  8
0
 62
     0
 10
335.945
 20
126.436
 30
0.0
 11
321.944
 21
126.436
 31
0.0
  0
LINE
  8
0
 62
     0
 10
302.894
 20
126.436
 30
0.0
 11
302.894
 21
125.437
 31
0.0
  0
LINE
  8
0
 62
     0
 10
302.894
 20
125.437
 30
0.0
 11
302.095
 21
125.437
 31
0.0
  0
LINE
  8
0
 62
     0
 10
302.095
 20
125.437
 30
0.0
 11
302.095
 21
122.337
 31
0.0
  0
LINE
  8
0
 62
     0
 10
302.095
 20
122.337
 30
0.0
 11
302.894
 21
122.337
 31
0.0
  0
LINE
  8
0
 62
     0
 10
302.894
 20
122.337
 30
0.0
 11
302.894
 21
116.537
 31
0.0
  0
LINE
  8
0
 62
     0
 10
302.894
 20
116.537
 30
0.0
 11
302.095
 21
116.537
 31
0.0
  0
LINE
  8
0
 62
     0
 10
302.095
 20
116.537
 30
0.0
 11
302.095
 21
113.436
 31
0.0
  0
LINE
  8
0
 62
     0
 10
302.095
 20
113.436
 30
0.0
 11
302.894
 21
113.436
 31
0.0
  0
LINE
  8
0
 62
     0
 10
302.894
 20
113.436
 30
0.0
 11
302.894
 21
112.436
 31
0.0
  0
LINE
  8
0
 62
     0
 10
302.894
 20
112.436
 30
0.0
 11
316.895
 21
112.436
 31
0.0
  0
LINE
  8
0
 62
     0
 10
316.895
 20
112.436
 30
0.0
 11
316.895
 21
113.436
 31
0.0
  0
LINE
  8
0
 62
     0
 10
316.895
 20
113.436
 30
0.0
 11
317.694
 21
113.436
 31
0.0
  0
LINE
  8
0
 62
     0
 10
317.694
 20
113.436
 30
0.0
 11
317.694
 21
116.537
 31
0.0
  0
LINE
  8
0
 62
     0
 10
317.694
 20
116.537
 30
0.0
 11
316.895
 21
116.537
 31
0.0
  0
LINE
  8
0
 62
     0
 10
316.895
 20
116.537
 30
0.0
 11
316.895
 21
122.337
 31
0.0
  0
LINE
  8
0
 62
     0
 10
316.895
 20
122.337
 30
0.0
 11
317.694
 21
122.337
 31
0.0
  0
LINE
  8
0
 62
     0
 10
317.694
 20
122.337
 30
0.0
 11
317.694
 21
125.437
 31
0.0
  0
LINE
  8
0
 62
     0
 10
317.694
 20
125.437
 30
0.0
 11
316.895
 21
125.437
 31
0.0
  0
LINE
  8
0
 62
     0
 10
316.895
 20
125.437
 30
0.0
 11
316.895
 21
126.436
 31
0.0
  0
LINE
  8
0
 62
     0
 10
316.895
 20
126.436
 30
0.0
 11
302.894
 21
126.436
 31
0.0
  0
LINE
  8
0
 62
     0
 10
283.844
 20
126.436
 30
0.0
 11
283.844
 21
125.437
 31
0.0
  0
LINE
  8
0
 62
     0
 10
283.844
 20
125.437
 30
0.0
 11
283.045
 21
125.437
 31
0.0
  0
LINE
  8
0
 62
     0
 10
283.045
 20
125.437
 30
0.0
 11
283.045
 21
122.337
 31
0.0
  0
LINE
  8
0
 62
     0
 10
283.045
 20
122.337
 30
0.0
 11
283.844
 21
122.337
 31
0.0
  0
LINE
  8
0
 62
     0
 10
283.844
 20
122.337
 30
0.0
 11
283.844
 21
116.537
 31
0.0
  0
LINE
  8
0
 62
     0
 10
283.844
 20
116.537
 30
0.0
 11
283.045
 21
116.537
 31
0.0
  0
LINE
  8
0
 62
     0
 10
283.045
 20
116.537
 30
0.0
 11
283.045
 21
113.436
 31
0.0
  0
LINE
  8
0
 62
     0
 10
283.045
 20
113.436
 30
0.0
 11
283.844
 21
113.436
 31
0.0
  0
LINE
  8
0
 62
     0
 10
283.844
 20
113.436
 30
0.0
 11
283.844
 21
112.436
 31
0.0
  0
LINE
  8
0
 62
     0
 10
283.844
 20
112.436
 30
0.0
 11
297.845
 21
112.436
 31
0.0
  0
LINE
  8
0
 62
     0
 10
297.845
 20
112.436
 30
0.0
 11
297.845
 21
113.436
 31
0.0
  0
LINE
  8
0
 62
     0
 10
297.845
 20
113.436
 30
0.0
 11
298.644
 21
113.436
 31
0.0
  0
LINE
  8
0
 62
     0
 10
298.644
 20
113.436
 30
0.0
 11
298.644
 21
116.537
 31
0.0
  0
LINE
  8
0
 62
     0
 10
298.644
 20
116.537
 30
0.0
 11
297.845
 21
116.537
 31
0.0
  0
LINE
  8
0
 62
     0
 10
297.845
 20
116.537
 30
0.0
 11
297.845
 21
122.337
 31
0.0
  0
LINE
  8
0
 62
     0
 10
297.845
 20
122.337
 30
0.0
 11
298.644
 21
122.337
 31
0.0
  0
LINE
  8
0
 62
     0
 10
298.644
 20
122.337
 30
0.0
 11
298.644
 21
125.437
 31
0.0
  0
LINE
  8
0
 62
     0
 10
298.644
 20
125.437
 30
0.0
 11
297.845
 21
125.437
 31
0.0
  0
LINE
  8
0
 62
     0
 10
297.845
 20
125.437
 30
0.0
 11
297.845
 21
126.436
 31
0.0
  0
LINE
  8
0
 62
     0
 10
297.845
 20
126.436
 30
0.0
 11
283.844
 21
126.436
 31
0.0
  0
LINE
  8
0
 62
     0
 10
264.794
 20
126.436
 30
0.0
 11
264.794
 21
125.437
 31
0.0
  0
LINE
  8
0
 62
     0
 10
264.794
 20
125.437
 30
0.0
 11
263.995
 21
125.437
 31
0.0
  0
LINE
  8
0
 62
     0
 10
263.995
 20
125.437
 30
0.0
 11
263.995
 21
122.337
 31
0.0
  0
LINE
  8
0
 62
     0
 10
263.995
 20
122.337
 30
0.0
 11
264.794
 21
122.337
 31
0.0
  0
LINE
  8
0
 62
     0
 10
264.794
 20
122.337
 30
0.0
 11
264.794
 21
116.537
 31
0.0
  0
LINE
  8
0
 62
     0
 10
264.794
 20
116.537
 30
0.0
 11
263.995
 21
116.537
 31
0.0
  0
LINE
  8
0
 62
     0
 10
263.995
 20
116.537
 30
0.0
 11
263.995
 21
113.436
 31
0.0
  0
LINE
  8
0
 62
     0
 10
263.995
 20
113.436
 30
0.0
 11
264.794
 21
113.436
 31
0.0
  0
LINE
  8
0
 62
     0
 10
264.794
 20
113.436
 30
0.0
 11
264.794
 21
112.436
 31
0.0
  0
LINE
  8
0
 62
     0
 10
264.794
 20
112.436
 30
0.0
 11
278.795
 21
112.436
 31
0.0
  0
LINE
  8
0
 62
     0
 10
278.795
 20
112.436
 30
0.0
 11
278.795
 21
113.436
 31
0.0
  0
LINE
  8
0
 62
     0
 10
278.795
 20
113.436
 30
0.0
 11
279.594
 21
113.436
 31
0.0
  0
LINE
  8
0
 62
     0
 10
279.594
 20
113.436
 30
0.0
 11
279.594
 21
116.537
 31
0.0
  0
LINE
  8
0
 62
     0
 10
279.594
 20
116.537
 30
0.0
 11
278.795
 21
116.537
 31
0.0
  0
LINE
  8
0
 62
     0
 10
278.795
 20
116.537
 30
0.0
 11
278.795
 21
122.337
 31
0.0
  0
LINE
  8
0
 62
     0
 10
278.795
 20
122.337
 30
0.0
 11
279.594
 21
122.337
 31
0.0
  0
LINE
  8
0
 62
     0
 10
279.594
 20
122.337
 30
0.0
 11
279.594
 21
125.437
 31
0.0
  0
LINE
  8
0
 62
     0
 10
279.594
 20
125.437
 30
0.0
 11
278.795
 21
125.437
 31
0.0
  0
LINE
  8
0
 62
     0
 10
278.795
 20
125.437
 30
0.0
 11
278.795
 21
126.436
 31
0.0
  0
LINE
  8
0
 62
     0
 10
278.795
 20
126.436
 30
0.0
 11
264.794
 21
126.436
 31
0.0
  0
LINE
  8
0
 62
     0
 10
240.982
 20
126.436
 30
0.0
 11
240.982
 21
125.437
 31
0.0
  0
LINE
  8
0
 62
     0
 10
240.982
 20
125.437
 30
0.0
 11
240.181
 21
125.437
 31
0.0
  0
LINE
  8
0
 62
     0
 10
240.181
 20
125.437
 30
0.0
 11
240.181
 21
122.337
 31
0.0
  0
LINE
  8
0
 62
     0
 10
240.181
 20
122.337
 30
0.0
 11
240.982
 21
122.337
 31
0.0
  0
LINE
  8
0
 62
     0
 10
240.982
 20
122.337
 30
0.0
 11
240.982
 21
116.537
 31
0.0
  0
LINE
  8
0
 62
     0
 10
240.982
 20
116.537
 30
0.0
 11
240.181
 21
116.537
 31
0.0
  0
LINE
  8
0
 62
     0
 10
240.181
 20
116.537
 30
0.0
 11
240.181
 21
113.436
 31
0.0
  0
LINE
  8
0
 62
     0
 10
240.181
 20
113.436
 30
0.0
 11
240.982
 21
113.436
 31
0.0
  0
LINE
  8
0
 62
     0
 10
240.982
 20
113.436
 30
0.0
 11
240.982
 21
112.436
 31
0.0
  0
LINE
  8
0
 62
     0
 10
240.982
 20
112.436
 30
0.0
 11
254.981
 21
112.436
 31
0.0
  0
LINE
  8
0
 62
     0
 10
254.981
 20
112.436
 30
0.0
 11
254.981
 21
113.436
 31
0.0
  0
LINE
  8
0
 62
     0
 10
254.981
 20
113.436
 30
0.0
 11
255.782
 21
113.436
 31
0.0
  0
LINE
  8
0
 62
     0
 10
255.782
 20
113.436
 30
0.0
 11
255.782
 21
116.537
 31
0.0
  0
LINE
  8
0
 62
     0
 10
255.782
 20
116.537
 30
0.0
 11
254.981
 21
116.537
 31
0.0
  0
LINE
  8
0
 62
     0
 10
254.981
 20
116.537
 30
0.0
 11
254.981
 21
122.337
 31
0.0
  0
LINE
  8
0
 62
     0
 10
254.981
 20
122.337
 30
0.0
 11
255.782
 21
122.337
 31
0.0
  0
LINE
  8
0
 62
     0
 10
255.782
 20
122.337
 30
0.0
 11
255.782
 21
125.437
 31
0.0
  0
LINE
  8
0
 62
     0
 10
255.782
 20
125.437
 30
0.0
 11
254.981
 21
125.437
 31
0.0
  0
LINE
  8
0
 62
     0
 10
254.981
 20
125.437
 30
0.0
 11
254.981
 21
126.436
 31
0.0
  0
LINE
  8
0
 62
     0
 10
254.981
 20
126.436
 30
0.0
 11
240.982
 21
126.436
 31
0.0
  0
LINE
  8
0
 62
     0
 10
221.932
 20
126.436
 30
0.0
 11
221.932
 21
125.437
 31
0.0
  0
LINE
  8
0
 62
     0
 10
221.932
 20
125.437
 30
0.0
 11
221.131
 21
125.437
 31
0.0
  0
LINE
  8
0
 62
     0
 10
221.131
 20
125.437
 30
0.0
 11
221.131
 21
122.337
 31
0.0
  0
LINE
  8
0
 62
     0
 10
221.131
 20
122.337
 30
0.0
 11
221.932
 21
122.337
 31
0.0
  0
LINE
  8
0
 62
     0
 10
221.932
 20
122.337
 30
0.0
 11
221.932
 21
116.537
 31
0.0
  0
LINE
  8
0
 62
     0
 10
221.932
 20
116.537
 30
0.0
 11
221.131
 21
116.537
 31
0.0
  0
LINE
  8
0
 62
     0
 10
221.131
 20
116.537
 30
0.0
 11
221.131
 21
113.436
 31
0.0
  0
LINE
  8
0
 62
     0
 10
221.131
 20
113.436
 30
0.0
 11
221.932
 21
113.436
 31
0.0
  0
LINE
  8
0
 62
     0
 10
221.932
 20
113.436
 30
0.0
 11
221.932
 21
112.436
 31
0.0
  0
LINE
  8
0
 62
     0
 10
221.932
 20
112.436
 30
0.0
 11
235.931
 21
112.436
 31
0.0
  0
LINE
  8
0
 62
     0
 10
235.931
 20
112.436
 30
0.0
 11
235.931
 21
113.436
 31
0.0
  0
LINE
  8
0
 62
     0
 10
235.931
 20
113.436
 30
0.0
 11
236.732
 21
113.436
 31
0.0
  0
LINE
  8
0
 62
     0
 10
236.732
 20
113.436
 30
0.0
 11
236.732
 21
116.537
 31
0.0
  0
LINE
  8
0
 62
     0
 10
236.732
 20
116.537
 30
0.0
 11
235.931
 21
116.537
 31
0.0
  0
LINE
  8
0
 62
     0
 10
235.931
 20
116.537
 30
0.0
 11
235.931
 21
122.337
 31
0.0
  0
LINE
  8
0
 62
     0
 10
235.931
 20
122.337
 30
0.0
 11
236.732
 21
122.337
 31
0.0
  0
LINE
  8
0
 62
     0
 10
236.732
 20
122.337
 30
0.0
 11
236.732
 21
125.437
 31
0.0
  0
LINE
  8
0
 62
     0
 10
236.732
 20
125.437
 30
0.0
 11
235.931
 21
125.437
 31
0.0
  0
LINE
  8
0
 62
     0
 10
235.931
 20
125.437
 30
0.0
 11
235.931
 21
126.436
 31
0.0
  0
LINE
  8
0
 62
     0
 10
235.931
 20
126.436
 30
0.0
 11
221.932
 21
126.436
 31
0.0
  0
LINE
  8
0
 62
     0
 10
202.882
 20
126.436
 30
0.0
 11
202.882
 21
125.437
 31
0.0
  0
LINE
  8
0
 62
     0
 10
202.882
 20
125.437
 30
0.0
 11
202.081
 21
125.437
 31
0.0
  0
LINE
  8
0
 62
     0
 10
202.081
 20
125.437
 30
0.0
 11
202.081
 21
122.337
 31
0.0
  0
LINE
  8
0
 62
     0
 10
202.081
 20
122.337
 30
0.0
 11
202.882
 21
122.337
 31
0.0
  0
LINE
  8
0
 62
     0
 10
202.882
 20
122.337
 30
0.0
 11
202.882
 21
116.537
 31
0.0
  0
LINE
  8
0
 62
     0
 10
202.882
 20
116.537
 30
0.0
 11
202.081
 21
116.537
 31
0.0
  0
LINE
  8
0
 62
     0
 10
202.081
 20
116.537
 30
0.0
 11
202.081
 21
113.436
 31
0.0
  0
LINE
  8
0
 62
     0
 10
202.081
 20
113.436
 30
0.0
 11
202.882
 21
113.436
 31
0.0
  0
LINE
  8
0
 62
     0
 10
202.882
 20
113.436
 30
0.0
 11
202.882
 21
112.436
 31
0.0
  0
LINE
  8
0
 62
     0
 10
202.882
 20
112.436
 30
0.0
 11
216.881
 21
112.436
 31
0.0
  0
LINE
  8
0
 62
     0
 10
216.881
 20
112.436
 30
0.0
 11
216.881
 21
113.436
 31
0.0
  0
LINE
  8
0
 62
     0
 10
216.881
 20
113.436
 30
0.0
 11
217.682
 21
113.436
 31
0.0
  0
LINE
  8
0
 62
     0
 10
217.682
 20
113.436
 30
0.0
 11
217.682
 21
116.537
 31
0.0
  0
LINE
  8
0
 62
     0
 10
217.682
 20
116.537
 30
0.0
 11
216.881
 21
116.537
 31
0.0
  0
LINE
  8
0
 62
     0
 10
216.881
 20
116.537
 30
0.0
 11
216.881
 21
122.337
 31
0.0
  0
LINE
  8
0
 62
     0
 10
216.881
 20
122.337
 30
0.0
 11
217.682
 21
122.337
 31
0.0
  0
LINE
  8
0
 62
     0
 10
217.682
 20
122.337
 30
0.0
 11
217.682
 21
125.437
 31
0.0
  0
LINE
  8
0
 62
     0
 10
217.682
 20
125.437
 30
0.0
 11
216.881
 21
125.437
 31
0.0
  0
LINE
  8
0
 62
     0
 10
216.881
 20
125.437
 30
0.0
 11
216.881
 21
126.436
 31
0.0
  0
LINE
  8
0
 62
     0
 10
216.881
 20
126.436
 30
0.0
 11
202.882
 21
126.436
 31
0.0
  0
LINE
  8
0
 62
     0
 10
183.832
 20
126.436
 30
0.0
 11
183.832
 21
125.437
 31
0.0
  0
LINE
  8
0
 62
     0
 10
183.832
 20
125.437
 30
0.0
 11
183.031
 21
125.437
 31
0.0
  0
LINE
  8
0
 62
     0
 10
183.031
 20
125.437
 30
0.0
 11
183.031
 21
122.337
 31
0.0
  0
LINE
  8
0
 62
     0
 10
183.031
 20
122.337
 30
0.0
 11
183.832
 21
122.337
 31
0.0
  0
LINE
  8
0
 62
     0
 10
183.832
 20
122.337
 30
0.0
 11
183.832
 21
116.537
 31
0.0
  0
LINE
  8
0
 62
     0
 10
183.832
 20
116.537
 30
0.0
 11
183.031
 21
116.537
 31
0.0
  0
LINE
  8
0
 62
     0
 10
183.031
 20
116.537
 30
0.0
 11
183.031
 21
113.436
 31
0.0
  0
LINE
  8
0
 62
     0
 10
183.031
 20
113.436
 30
0.0
 11
183.832
 21
113.436
 31
0.0
  0
LINE
  8
0
 62
     0
 10
183.832
 20
113.436
 30
0.0
 11
183.832
 21
112.436
 31
0.0
  0
LINE
  8
0
 62
     0
 10
183.832
 20
112.436
 30
0.0
 11
197.831
 21
112.436
 31
0.0
  0
LINE
  8
0
 62
     0
 10
197.831
 20
112.436
 30
0.0
 11
197.831
 21
113.436
 31
0.0
  0
LINE
  8
0
 62
     0
 10
197.831
 20
113.436
 30
0.0
 11
198.632
 21
113.436
 31
0.0
  0
LINE
  8
0
 62
     0
 10
198.632
 20
113.436
 30
0.0
 11
198.632
 21
116.537
 31
0.0
  0
LINE
  8
0
 62
     0
 10
198.632
 20
116.537
 30
0.0
 11
197.831
 21
116.537
 31
0.0
  0
LINE
  8
0
 62
     0
 10
197.831
 20
116.537
 30
0.0
 11
197.831
 21
122.337
 31
0.0
  0
LINE
  8
0
 62
     0
 10
197.831
 20
122.337
 30
0.0
 11
198.632
 21
122.337
 31
0.0
  0
LINE
  8
0
 62
     0
 10
198.632
 20
122.337
 30
0.0
 11
198.632
 21
125.437
 31
0.0
  0
LINE
  8
0
 62
     0
 10
198.632
 20
125.437
 30
0.0
 11
197.831
 21
125.437
 31
0.0
  0
LINE
  8
0
 62
     0
 10
197.831
 20
125.437
 30
0.0
 11
197.831
 21
126.436
 31
0.0
  0
LINE
  8
0
 62
     0
 10
197.831
 20
126.436
 30
0.0
 11
183.832
 21
126.436
 31
0.0
  0
LINE
  8
0
 62
     0
 10
164.782
 20
126.436
 30
0.0
 11
164.782
 21
125.437
 31
0.0
  0
LINE
  8
0
 62
     0
 10
164.782
 20
125.437
 30
0.0
 11
163.981
 21
125.437
 31
0.0
  0
LINE
  8
0
 62
     0
 10
163.981
 20
125.437
 30
0.0
 11
163.981
 21
122.337
 31
0.0
  0
LINE
  8
0
 62
     0
 10
163.981
 20
122.337
 30
0.0
 11
164.782
 21
122.337
 31
0.0
  0
LINE
  8
0
 62
     0
 10
164.782
 20
122.337
 30
0.0
 11
164.782
 21
116.537
 31
0.0
  0
LINE
  8
0
 62
     0
 10
164.782
 20
116.537
 30
0.0
 11
163.981
 21
116.537
 31
0.0
  0
LINE
  8
0
 62
     0
 10
163.981
 20
116.537
 30
0.0
 11
163.981
 21
113.436
 31
0.0
  0
LINE
  8
0
 62
     0
 10
163.981
 20
113.436
 30
0.0
 11
164.782
 21
113.436
 31
0.0
  0
LINE
  8
0
 62
     0
 10
164.782
 20
113.436
 30
0.0
 11
164.782
 21
112.436
 31
0.0
  0
LINE
  8
0
 62
     0
 10
164.782
 20
112.436
 30
0.0
 11
178.781
 21
112.436
 31
0.0
  0
LINE
  8
0
 62
     0
 10
178.781
 20
112.436
 30
0.0
 11
178.781
 21
113.436
 31
0.0
  0
LINE
  8
0
 62
     0
 10
178.781
 20
113.436
 30
0.0
 11
179.582
 21
113.436
 31
0.0
  0
LINE
  8
0
 62
     0
 10
179.582
 20
113.436
 30
0.0
 11
179.582
 21
116.537
 31
0.0
  0
LINE
  8
0
 62
     0
 10
179.582
 20
116.537
 30
0.0
 11
178.781
 21
116.537
 31
0.0
  0
LINE
  8
0
 62
     0
 10
178.781
 20
116.537
 30
0.0
 11
178.781
 21
122.337
 31
0.0
  0
LINE
  8
0
 62
     0
 10
178.781
 20
122.337
 30
0.0
 11
179.582
 21
122.337
 31
0.0
  0
LINE
  8
0
 62
     0
 10
179.582
 20
122.337
 30
0.0
 11
179.582
 21
125.437
 31
0.0
  0
LINE
  8
0
 62
     0
 10
179.582
 20
125.437
 30
0.0
 11
178.781
 21
125.437
 31
0.0
  0
LINE
  8
0
 62
     0
 10
178.781
 20
125.437
 30
0.0
 11
178.781
 21
126.436
 31
0.0
  0
LINE
  8
0
 62
     0
 10
178.781
 20
126.436
 30
0.0
 11
164.782
 21
126.436
 31
0.0
  0
LINE
  8
0
 62
     0
 10
145.732
 20
126.436
 30
0.0
 11
145.732
 21
125.437
 31
0.0
  0
LINE
  8
0
 62
     0
 10
145.732
 20
125.437
 30
0.0
 11
144.931
 21
125.437
 31
0.0
  0
LINE
  8
0
 62
     0
 10
144.931
 20
125.437
 30
0.0
 11
144.931
 21
122.337
 31
0.0
  0
LINE
  8
0
 62
     0
 10
144.931
 20
122.337
 30
0.0
 11
145.732
 21
122.337
 31
0.0
  0
LINE
  8
0
 62
     0
 10
145.732
 20
122.337
 30
0.0
 11
145.732
 21
116.537
 31
0.0
  0
LINE
  8
0
 62
     0
 10
145.732
 20
116.537
 30
0.0
 11
144.931
 21
116.537
 31
0.0
  0
LINE
  8
0
 62
     0
 10
144.931
 20
116.537
 30
0.0
 11
144.931
 21
113.436
 31
0.0
  0
LINE
  8
0
 62
     0
 10
144.931
 20
113.436
 30
0.0
 11
145.732
 21
113.436
 31
0.0
  0
LINE
  8
0
 62
     0
 10
145.732
 20
113.436
 30
0.0
 11
145.732
 21
112.436
 31
0.0
  0
LINE
  8
0
 62
     0
 10
145.732
 20
112.436
 30
0.0
 11
159.731
 21
112.436
 31
0.0
  0
LINE
  8
0
 62
     0
 10
159.731
 20
112.436
 30
0.0
 11
159.731
 21
113.436
 31
0.0
  0
LINE
  8
0
 62
     0
 10
159.731
 20
113.436
 30
0.0
 11
160.532
 21
113.436
 31
0.0
  0
LINE
  8
0
 62
     0
 10
160.532
 20
113.436
 30
0.0
 11
160.532
 21
116.537
 31
0.0
  0
LINE
  8
0
 62
     0
 10
160.532
 20
116.537
 30
0.0
 11
159.731
 21
116.537
 31
0.0
  0
LINE
  8
0
 62
     0
 10
159.731
 20
116.537
 30
0.0
 11
159.731
 21
122.337
 31
0.0
  0
LINE
  8
0
 62
     0
 10
159.731
 20
122.337
 30
0.0
 11
160.532
 21
122.337
 31
0.0
  0
LINE
  8
0
 62
     0
 10
160.532
 20
122.337
 30
0.0
 11
160.532
 21
125.437
 31
0.0
  0
LINE
  8
0
 62
     0
 10
160.532
 20
125.437
 30
0.0
 11
159.731
 21
125.437
 31
0.0
  0
LINE
  8
0
 62
     0
 10
159.731
 20
125.437
 30
0.0
 11
159.731
 21
126.436
 31
0.0
  0
LINE
  8
0
 62
     0
 10
159.731
 20
126.436
 30
0.0
 11
145.732
 21
126.436
 31
0.0
  0
LINE
  8
0
 62
     0
 10
121.919
 20
126.436
 30
0.0
 11
121.919
 21
125.437
 31
0.0
  0
LINE
  8
0
 62
     0
 10
121.919
 20
125.437
 30
0.0
 11
121.118
 21
125.437
 31
0.0
  0
LINE
  8
0
 62
     0
 10
121.118
 20
125.437
 30
0.0
 11
121.118
 21
122.337
 31
0.0
  0
LINE
  8
0
 62
     0
 10
121.118
 20
122.337
 30
0.0
 11
121.919
 21
122.337
 31
0.0
  0
LINE
  8
0
 62
     0
 10
121.919
 20
122.337
 30
0.0
 11
121.919
 21
116.537
 31
0.0
  0
LINE
  8
0
 62
     0
 10
121.919
 20
116.537
 30
0.0
 11
121.118
 21
116.537
 31
0.0
  0
LINE
  8
0
 62
     0
 10
121.118
 20
116.537
 30
0.0
 11
121.118
 21
113.436
 31
0.0
  0
LINE
  8
0
 62
     0
 10
121.118
 20
113.436
 30
0.0
 11
121.919
 21
113.436
 31
0.0
  0
LINE
  8
0
 62
     0
 10
121.919
 20
113.436
 30
0.0
 11
121.919
 21
112.436
 31
0.0
  0
LINE
  8
0
 62
     0
 10
121.919
 20
112.436
 30
0.0
 11
135.92
 21
112.436
 31
0.0
  0
LINE
  8
0
 62
     0
 10
135.92
 20
112.436
 30
0.0
 11
135.92
 21
113.436
 31
0.0
  0
LINE
  8
0
 62
     0
 10
135.92
 20
113.436
 30
0.0
 11
136.719
 21
113.436
 31
0.0
  0
LINE
  8
0
 62
     0
 10
136.719
 20
113.436
 30
0.0
 11
136.719
 21
116.537
 31
0.0
  0
LINE
  8
0
 62
     0
 10
136.719
 20
116.537
 30
0.0
 11
135.92
 21
116.537
 31
0.0
  0
LINE
  8
0
 62
     0
 10
135.92
 20
116.537
 30
0.0
 11
135.92
 21
122.337
 31
0.0
  0
LINE
  8
0
 62
     0
 10
135.92
 20
122.337
 30
0.0
 11
136.719
 21
122.337
 31
0.0
  0
LINE
  8
0
 62
     0
 10
136.719
 20
122.337
 30
0.0
 11
136.719
 21
125.437
 31
0.0
  0
LINE
  8
0
 62
     0
 10
136.719
 20
125.437
 30
0.0
 11
135.92
 21
125.437
 31
0.0
  0
LINE
  8
0
 62
     0
 10
135.92
 20
125.437
 30
0.0
 11
135.92
 21
126.436
 31
0.0
  0
LINE
  8
0
 62
     0
 10
135.92
 20
126.436
 30
0.0
 11
121.919
 21
126.436
 31
0.0
  0
LINE
  8
0
 62
     0
 10
102.869
 20
126.436
 30
0.0
 11
102.869
 21
125.437
 31
0.0
  0
LINE
  8
0
 62
     0
 10
102.869
 20
125.437
 30
0.0
 11
102.07
 21
125.437
 31
0.0
  0
LINE
  8
0
 62
     0
 10
102.07
 20
125.437
 30
0.0
 11
102.07
 21
122.337
 31
0.0
  0
LINE
  8
0
 62
     0
 10
102.07
 20
122.337
 30
0.0
 11
102.869
 21
122.337
 31
0.0
  0
LINE
  8
0
 62
     0
 10
102.869
 20
122.337
 30
0.0
 11
102.869
 21
116.537
 31
0.0
  0
LINE
  8
0
 62
     0
 10
102.869
 20
116.537
 30
0.0
 11
102.07
 21
116.537
 31
0.0
  0
LINE
  8
0
 62
     0
 10
102.07
 20
116.537
 30
0.0
 11
102.07
 21
113.436
 31
0.0
  0
LINE
  8
0
 62
     0
 10
102.07
 20
113.436
 30
0.0
 11
102.869
 21
113.436
 31
0.0
  0
LINE
  8
0
 62
     0
 10
102.869
 20
113.436
 30
0.0
 11
102.869
 21
112.436
 31
0.0
  0
LINE
  8
0
 62
     0
 10
102.869
 20
112.436
 30
0.0
 11
116.869
 21
112.436
 31
0.0
  0
LINE
  8
0
 62
     0
 10
116.869
 20
112.436
 30
0.0
 11
116.869
 21
113.436
 31
0.0
  0
LINE
  8
0
 62
     0
 10
116.869
 20
113.436
 30
0.0
 11
117.668
 21
113.436
 31
0.0
  0
LINE
  8
0
 62
     0
 10
117.668
 20
113.436
 30
0.0
 11
117.668
 21
116.537
 31
0.0
  0
LINE
  8
0
 62
     0
 10
117.668
 20
116.537
 30
0.0
 11
116.869
 21
116.537
 31
0.0
  0
LINE
  8
0
 62
     0
 10
116.869
 20
116.537
 30
0.0
 11
116.869
 21
122.337
 31
0.0
  0
LINE
  8
0
 62
     0
 10
116.869
 20
122.337
 30
0.0
 11
117.668
 21
122.337
 31
0.0
  0
LINE
  8
0
 62
     0
 10
117.668
 20
122.337
 30
0.0
 11
117.668
 21
125.437
 31
0.0
  0
LINE
  8
0
 62
     0
 10
117.668
 20
125.437
 30
0.0
 11
116.869
 21
125.437
 31
0.0
  0
LINE
  8
0
 62
     0
 10
116.869
 20
125.437
 30
0.0
 11
116.869
 21
126.436
 31
0.0
  0
LINE
  8
0
 62
     0
 10
116.869
 20
126.436
 30
0.0
 11
102.869
 21
126.436
 31
0.0
  0
LINE
  8
0
 62
     0
 10
83.8193
 20
126.436
 30
0.0
 11
83.8193
 21
125.437
 31
0.0
  0
LINE
  8
0
 62
     0
 10
83.8193
 20
125.437
 30
0.0
 11
83.0199
 21
125.437
 31
0.0
  0
LINE
  8
0
 62
     0
 10
83.0199
 20
125.437
 30
0.0
 11
83.0199
 21
122.337
 31
0.0
  0
LINE
  8
0
 62
     0
 10
83.0199
 20
122.337
 30
0.0
 11
83.8193
 21
122.337
 31
0.0
  0
LINE
  8
0
 62
     0
 10
83.8193
 20
122.337
 30
0.0
 11
83.8193
 21
116.537
 31
0.0
  0
LINE
  8
0
 62
     0
 10
83.8193
 20
116.537
 30
0.0
 11
83.0199
 21
116.537
 31
0.0
  0
LINE
  8
0
 62
     0
 10
83.0199
 20
116.537
 30
0.0
 11
83.0199
 21
113.436
 31
0.0
  0
LINE
  8
0
 62
     0
 10
83.0199
 20
113.436
 30
0.0
 11
83.8193
 21
113.436
 31
0.0
  0
LINE
  8
0
 62
     0
 10
83.8193
 20
113.436
 30
0.0
 11
83.8193
 21
112.436
 31
0.0
  0
LINE
  8
0
 62
     0
 10
83.8193
 20
112.436
 30
0.0
 11
97.82
 21
112.436
 31
0.0
  0
LINE
  8
0
 62
     0
 10
97.82
 20
112.436
 30
0.0
 11
97.82
 21
113.436
 31
0.0
  0
LINE
  8
0
 62
     0
 10
97.82
 20
113.436
 30
0.0
 11
98.618
 21
113.436
 31
0.0
  0
LINE
  8
0
 62
     0
 10
98.618
 20
113.436
 30
0.0
 11
98.618
 21
116.537
 31
0.0
  0
LINE
  8
0
 62
     0
 10
98.618
 20
116.537
 30
0.0
 11
97.82
 21
116.537
 31
0.0
  0
LINE
  8
0
 62
     0
 10
97.82
 20
116.537
 30
0.0
 11
97.82
 21
122.337
 31
0.0
  0
LINE
  8
0
 62
     0
 10
97.82
 20
122.337
 30
0.0
 11
98.618
 21
122.337
 31
0.0
  0
LINE
  8
0
 62
     0
 10
98.618
 20
122.337
 30
0.0
 11
98.618
 21
125.437
 31
0.0
  0
LINE
  8
0
 62
     0
 10
98.618
 20
125.437
 30
0.0
 11
97.82
 21
125.437
 31
0.0
  0
LINE
  8
0
 62
     0
 10
97.82
 20
125.437
 30
0.0
 11
97.82
 21
126.436
 31
0.0
  0
LINE
  8
0
 62
     0
 10
97.82
 20
126.436
 30
0.0
 11
83.8193
 21
126.436
 31
0.0
  0
LINE
  8
0
 62
     0
 10
64.7693
 20
126.436
 30
0.0
 11
64.7693
 21
125.437
 31
0.0
  0
LINE
  8
0
 62
     0
 10
64.7693
 20
125.437
 30
0.0
 11
63.9699
 21
125.437
 31
0.0
  0
LINE
  8
0
 62
     0
 10
63.9699
 20
125.437
 30
0.0
 11
63.9699
 21
122.337
 31
0.0
  0
LINE
  8
0
 62
     0
 10
63.9699
 20
122.337
 30
0.0
 11
64.7693
 21
122.337
 31
0.0
  0
LINE
  8
0
 62
     0
 10
64.7693
 20
122.337
 30
0.0
 11
64.7693
 21
116.537
 31
0.0
  0
LINE
  8
0
 62
     0
 10
64.7693
 20
116.537
 30
0.0
 11
63.9699
 21
116.537
 31
0.0
  0
LINE
  8
0
 62
     0
 10
63.9699
 20
116.537
 30
0.0
 11
63.9699
 21
113.436
 31
0.0
  0
LINE
  8
0
 62
     0
 10
63.9699
 20
113.436
 30
0.0
 11
64.7693
 21
113.436
 31
0.0
  0
LINE
  8
0
 62
     0
 10
64.7693
 20
113.436
 30
0.0
 11
64.7693
 21
112.436
 31
0.0
  0
LINE
  8
0
 62
     0
 10
64.7693
 20
112.436
 30
0.0
 11
78.77
 21
112.436
 31
0.0
  0
LINE
  8
0
 62
     0
 10
78.77
 20
112.436
 30
0.0
 11
78.77
 21
113.436
 31
0.0
  0
LINE
  8
0
 62
     0
 10
78.77
 20
113.436
 30
0.0
 11
79.5694
 21
113.436
 31
0.0
  0
LINE
  8
0
 62
     0
 10
79.5694
 20
113.436
 30
0.0
 11
79.5694
 21
116.537
 31
0.0
  0
LINE
  8
0
 62
     0
 10
79.5694
 20
116.537
 30
0.0
 11
78.77
 21
116.537
 31
0.0
  0
LINE
  8
0
 62
     0
 10
78.77
 20
116.537
 30
0.0
 11
78.77
 21
122.337
 31
0.0
  0
LINE
  8
0
 62
     0
 10
78.77
 20
122.337
 30
0.0
 11
79.5694
 21
122.337
 31
0.0
  0
LINE
  8
0
 62
     0
 10
79.5694
 20
122.337
 30
0.0
 11
79.5694
 21
125.437
 31
0.0
  0
LINE
  8
0
 62
     0
 10
79.5694
 20
125.437
 30
0.0
 11
78.77
 21
125.437
 31
0.0
  0
LINE
  8
0
 62
     0
 10
78.77
 20
125.437
 30
0.0
 11
78.77
 21
126.436
 31
0.0
  0
LINE
  8
0
 62
     0
 10
78.77
 20
126.436
 30
0.0
 11
64.7693
 21
126.436
 31
0.0
  0
LINE
  8
0
 62
     0
 10
45.7193
 20
126.436
 30
0.0
 11
45.7193
 21
125.437
 31
0.0
  0
LINE
  8
0
 62
     0
 10
45.7193
 20
125.437
 30
0.0
 11
44.9199
 21
125.437
 31
0.0
  0
LINE
  8
0
 62
     0
 10
44.9199
 20
125.437
 30
0.0
 11
44.9199
 21
122.337
 31
0.0
  0
LINE
  8
0
 62
     0
 10
44.9199
 20
122.337
 30
0.0
 11
45.7193
 21
122.337
 31
0.0
  0
LINE
  8
0
 62
     0
 10
45.7193
 20
122.337
 30
0.0
 11
45.7193
 21
116.537
 31
0.0
  0
LINE
  8
0
 62
     0
 10
45.7193
 20
116.537
 30
0.0
 11
44.9199
 21
116.537
 31
0.0
  0
LINE
  8
0
 62
     0
 10
44.9199
 20
116.537
 30
0.0
 11
44.9199
 21
113.436
 31
0.0
  0
LINE
  8
0
 62
     0
 10
44.9199
 20
113.436
 30
0.0
 11
45.7193
 21
113.436
 31
0.0
  0
LINE
  8
0
 62
     0
 10
45.7193
 20
113.436
 30
0.0
 11
45.7193
 21
112.436
 31
0.0
  0
LINE
  8
0
 62
     0
 10
45.7193
 20
112.436
 30
0.0
 11
59.72
 21
112.436
 31
0.0
  0
LINE
  8
0
 62
     0
 10
59.72
 20
112.436
 30
0.0
 11
59.72
 21
113.436
 31
0.0
  0
LINE
  8
0
 62
     0
 10
59.72
 20
113.436
 30
0.0
 11
60.5194
 21
113.436
 31
0.0
  0
LINE
  8
0
 62
     0
 10
60.5194
 20
113.436
 30
0.0
 11
60.5194
 21
116.537
 31
0.0
  0
LINE
  8
0
 62
     0
 10
60.5194
 20
116.537
 30
0.0
 11
59.72
 21
116.537
 31
0.0
  0
LINE
  8
0
 62
     0
 10
59.72
 20
116.537
 30
0.0
 11
59.72
 21
122.337
 31
0.0
  0
LINE
  8
0
 62
     0
 10
59.72
 20
122.337
 30
0.0
 11
60.5194
 21
122.337
 31
0.0
  0
LINE
  8
0
 62
     0
 10
60.5194
 20
122.337
 30
0.0
 11
60.5194
 21
125.437
 31
0.0
  0
LINE
  8
0
 62
     0
 10
60.5194
 20
125.437
 30
0.0
 11
59.72
 21
125.437
 31
0.0
  0
LINE
  8
0
 62
     0
 10
59.72
 20
125.437
 30
0.0
 11
59.72
 21
126.436
 31
0.0
  0
LINE
  8
0
 62
     0
 10
59.72
 20
126.436
 30
0.0
 11
45.7193
 21
126.436
 31
0.0
  0
LINE
  8
0
 62
     0
 10
26.6692
 20
126.436
 30
0.0
 11
26.6692
 21
125.437
 31
0.0
  0
LINE
  8
0
 62
     0
 10
26.6692
 20
125.437
 30
0.0
 11
25.8699
 21
125.437
 31
0.0
  0
LINE
  8
0
 62
     0
 10
25.8699
 20
125.437
 30
0.0
 11
25.8699
 21
122.337
 31
0.0
  0
LINE
  8
0
 62
     0
 10
25.8699
 20
122.337
 30
0.0
 11
26.6692
 21
122.337
 31
0.0
  0
LINE
  8
0
 62
     0
 10
26.6692
 20
122.337
 30
0.0
 11
26.6692
 21
116.537
 31
0.0
  0
LINE
  8
0
 62
     0
 10
26.6692
 20
116.537
 30
0.0
 11
25.8699
 21
116.537
 31
0.0
  0
LINE
  8
0
 62
     0
 10
25.8699
 20
116.537
 30
0.0
 11
25.8699
 21
113.436
 31
0.0
  0
LINE
  8
0
 62
     0
 10
25.8699
 20
113.436
 30
0.0
 11
26.6692
 21
113.436
 31
0.0
  0
LINE
  8
0
 62
     0
 10
26.6692
 20
113.436
 30
0.0
 11
26.6692
 21
112.436
 31
0.0
  0
LINE
  8
0
 62
     0
 10
26.6692
 20
112.436
 30
0.0
 11
40.67
 21
112.436
 31
0.0
  0
LINE
  8
0
 62
     0
 10
40.67
 20
112.436
 30
0.0
 11
40.67
 21
113.436
 31
0.0
  0
LINE
  8
0
 62
     0
 10
40.67
 20
113.436
 30
0.0
 11
41.4694
 21
113.436
 31
0.0
  0
LINE
  8
0
 62
     0
 10
41.4694
 20
113.436
 30
0.0
 11
41.4694
 21
116.537
 31
0.0
  0
LINE
  8
0
 62
     0
 10
41.4694
 20
116.537
 30
0.0
 11
40.67
 21
116.537
 31
0.0
  0
LINE
  8
0
 62
     0
 10
40.67
 20
116.537
 30
0.0
 11
40.67
 21
122.337
 31
0.0
  0
LINE
  8
0
 62
     0
 10
40.67
 20
122.337
 30
0.0
 11
41.4694
 21
122.337
 31
0.0
  0
LINE
  8
0
 62
     0
 10
41.4694
 20
122.337
 30
0.0
 11
41.4694
 21
125.437
 31
0.0
  0
LINE
  8
0
 62
     0
 10
41.4694
 20
125.437
 30
0.0
 11
40.67
 21
125.437
 31
0.0
  0
LINE
  8
0
 62
     0
 10
40.67
 20
125.437
 30
0.0
 11
40.67
 21
126.436
 31
0.0
  0
LINE
  8
0
 62
     0
 10
40.67
 20
126.436
 30
0.0
 11
26.6692
 21
126.436
 31
0.0
  0
LINE
  8
0
 62
     0
 10
7.61919
 20
126.436
 30
0.0
 11
7.61919
 21
125.437
 31
0.0
  0
LINE
  8
0
 62
     0
 10
7.61919
 20
125.437
 30
0.0
 11
6.81852
 21
125.437
 31
0.0
  0
LINE
  8
0
 62
     0
 10
6.81852
 20
125.437
 30
0.0
 11
6.81852
 21
122.337
 31
0.0
  0
LINE
  8
0
 62
     0
 10
6.81852
 20
122.337
 30
0.0
 11
7.61919
 21
122.337
 31
0.0
  0
LINE
  8
0
 62
     0
 10
7.61919
 20
122.337
 30
0.0
 11
7.61919
 21
116.537
 31
0.0
  0
LINE
  8
0
 62
     0
 10
7.61919
 20
116.537
 30
0.0
 11
6.81852
 21
116.537
 31
0.0
  0
LINE
  8
0
 62
     0
 10
6.81852
 20
116.537
 30
0.0
 11
6.81852
 21
113.436
 31
0.0
  0
LINE
  8
0
 62
     0
 10
6.81852
 20
113.436
 30
0.0
 11
7.61919
 21
113.436
 31
0.0
  0
LINE
  8
0
 62
     0
 10
7.61919
 20
113.436
 30
0.0
 11
7.61919
 21
112.436
 31
0.0
  0
LINE
  8
0
 62
     0
 10
7.61919
 20
112.436
 30
0.0
 11
21.6201
 21
112.436
 31
0.0
  0
LINE
  8
0
 62
     0
 10
21.6201
 20
112.436
 30
0.0
 11
21.6201
 21
113.436
 31
0.0
  0
LINE
  8
0
 62
     0
 10
21.6201
 20
113.436
 30
0.0
 11
22.4193
 21
113.436
 31
0.0
  0
LINE
  8
0
 62
     0
 10
22.4193
 20
113.436
 30
0.0
 11
22.4193
 21
116.537
 31
0.0
  0
LINE
  8
0
 62
     0
 10
22.4193
 20
116.537
 30
0.0
 11
21.6201
 21
116.537
 31
0.0
  0
LINE
  8
0
 62
     0
 10
21.6201
 20
116.537
 30
0.0
 11
21.6201
 21
122.337
 31
0.0
  0
LINE
  8
0
 62
     0
 10
21.6201
 20
122.337
 30
0.0
 11
22.4193
 21
122.337
 31
0.0
  0
LINE
  8
0
 62
     0
 10
22.4193
 20
122.337
 30
0.0
 11
22.4193
 21
125.437
 31
0.0
  0
LINE
  8
0
 62
     0
 10
22.4193
 20
125.437
 30
0.0
 11
21.6201
 21
125.437
 31
0.0
  0
LINE
  8
0
 62
     0
 10
21.6201
 20
125.437
 30
0.0
 11
21.6201
 21
126.436
 31
0.0
  0
LINE
  8
0
 62
     0
 10
21.6201
 20
126.436
 30
0.0
 11
7.61919
 21
126.436
 31
0.0
  0
ENDSEC
  0
EOF
